{
.appVersion = "3326";
.formatVersion = 3;
classes = (
{
automatic = 1;
code = "A B C D E F G H I J K L M N O P Q R S T U V W X Y Z Aacute Abreve Acircumflex Adieresis Agrave Amacron Aogonek Aring Atilde AE AEacute Cacute Ccaron Ccedilla Ccircumflex Cdotaccent Eth Dcaron Dcroat Eacute Ebreve Ecaron Ecircumflex Edieresis Edotaccent Egrave Emacron Eogonek Gbreve Gcircumflex Gcommaaccent Gdotaccent Hbar Hcircumflex Iacute Ibreve Icircumflex Idieresis Idotaccent Igrave Imacron Iogonek Itilde Jcircumflex Kcommaaccent Lacute Lcaron Lcommaaccent Ldot Lslash Nacute Ncaron Ncommaaccent Eng Ntilde Oacute Obreve Ocircumflex Odieresis Ograve Ohungarumlaut Omacron Oslash Oslashacute Otilde OE Thorn Racute Rcaron Rcommaaccent Sacute Scaron Scircumflex Scommaaccent Germandbls Tbar Tcaron Tcommaaccent Uacute Ubreve Ucircumflex Udieresis Ugrave Uhungarumlaut Umacron Uogonek Uring Utilde Wacute Wcircumflex Wdieresis Wgrave Yacute Ycircumflex Ydieresis Ygrave Zacute Zcaron Zdotaccent Delta Mu Omega";
name = Uppercase;
}
);
customParameters = (
{
disabled = 1;
name = glyphOrder;
value = (
.notdef,
.null,
CR,
nbspace,
space,
A,
B,
C,
D,
E,
F,
G,
H,
I,
J,
K,
L,
M,
N,
O,
P,
Q,
R,
S,
T,
U,
V,
W,
X,
Y,
Z,
a,
b,
c,
d,
e,
f,
g,
g.ss01,
h,
i,
j,
k,
l,
m,
n,
o,
p,
q,
r,
s,
t,
u,
v,
w,
x,
y,
z,
Aacute,
Abreve,
Acircumflex,
Adieresis,
Agrave,
Amacron,
Aogonek,
Aring,
Atilde,
AE,
AEacute,
Cacute,
Ccaron,
Ccedilla,
Ccircumflex,
Cdotaccent,
Eth,
Dcaron,
Dcroat,
Eacute,
Ebreve,
Ecaron,
Ecircumflex,
Edieresis,
Edotaccent,
Egrave,
Emacron,
Eogonek,
Gbreve,
Gcircumflex,
Gcommaaccent,
Gdotaccent,
Hbar,
Hcircumflex,
Iacute,
Ibreve,
Icircumflex,
Idieresis,
Idotaccent,
Igrave,
IJ,
Imacron,
Iogonek,
Itilde,
Jcircumflex,
Kcommaaccent,
Lacute,
Lcaron,
Lcommaaccent,
Ldot,
Lslash,
Nacute,
Ncaron,
Ncommaaccent,
Eng,
Ntilde,
Oacute,
Obreve,
Ocircumflex,
Odieresis,
Ograve,
Ohungarumlaut,
Omacron,
Oslash,
Oslashacute,
Otilde,
OE,
Thorn,
Racute,
Rcaron,
Rcommaaccent,
Sacute,
Scaron,
Scedilla,
Scircumflex,

glyphs = (
{
glyphname = A;
kernLeft = A;
kernRight = A;
lastChange = "2024-12-19 13:17:24 +0000";
layers = (
{
anchors = (
{
name = bottom;
pos = (230,0);
},
{
name = ogonek;
pos = (430,0);
},
{
name = top;
pos = (230,710);
}
);
background = {
anchors = (
{
name = bottom;
pos = (230,0);
},
{
name = ogonek;
pos = (430,0);
},
{
name = top;
pos = (230,710);
}
);
shapes = (
{
closed = 1;
nodes = (
(120,0,l),
(157,202,l),
(161,228,l),
(229,621,l),
(220,621,l),
(289,228,l),
(293,202,l),
(331,0,l),
(447,0,l),
(303,710,l),
(151,710,l),
(8,0,l)
);
},
{
closed = 1;
nodes = (
(340,171,l),
(340,262,l),
(106,262,l),
(106,171,l)
);
}
);
};
layerId = "E1689EA5-A91E-47D2-BCA7-04A2C9D26D65";
shapes = (
{
closed = 1;
nodes = (
(120,0,l),
(157,202,l),
(161,228,l),
(229,621,l),
(220,621,l),
(289,228,l),
(293,202,l),
(331,0,l),
(447,0,l),
(303,710,l),
(151,710,l),
(8,0,l)
);
},
{
closed = 1;
nodes = (
(340,171,l),
(340,262,l),
(106,262,l),
(106,171,l)
);
}
);
width = 454;
}
);
note = A;
unicode = 65;
},
{
glyphname = Aacute;
kernLeft = A;
kernRight = A;
lastChange = "2024-12-19 13:17:37 +0000";
layers = (
{
background = {
anchors = (
{
name = bottom;
pos = (230,0);
},
{
name = ogonek;
pos = (430,0);
},
{
name = top;
pos = (262,927);
}
);
shapes = (
{
closed = 1;
nodes = (
(120,0,l),
(157,202,l),
(161,228,l),
(229,621,l),
(220,621,l),
(289,228,l),
(293,202,l),
(331,0,l),
(447,0,l),
(303,710,l),
(151,710,l),
(8,0,l)
);
},
{
closed = 1;
nodes = (
(340,171,l),
(340,262,l),
(106,262,l),
(106,171,l)
);
},
{
closed = 1;
nodes = (
(337,897,l),
(259,927,l),
(187,781,l),
(252,763,l)
);
}
);
};
layerId = "E1689EA5-A91E-47D2-BCA7-04A2C9D26D65";
shapes = (
{
alignment = -1;
ref = A;
},
{
alignment = -1;
pos = (187,0);
ref = acutecomb.case;
}
);
width = 454;
}
);
unicode = 193;
},
{
glyphname = Abreve;
kernLeft = A;
kernRight = A;
lastChange = "2024-12-19 13:17:37 +0000";
layers = (
{
background = {
anchors = (
{
name = bottom;
pos = (230,0);
},
{
name = ogonek;
pos = (430,0);
},
{
name = top;
pos = (230,899);
}
);
shapes = (
{
closed = 1;
nodes = (
(120,0,l),
(157,202,l),
(161,228,l),
(229,621,l),
(220,621,l),
(289,228,l),
(293,202,l),
(331,0,l),
(447,0,l),
(303,710,l),
(151,710,l),
(8,0,l)
);
},
{
closed = 1;
nodes = (
(340,171,l),
(340,262,l),
(106,262,l),
(106,171,l)
);
},
{
closed = 1;
nodes = (
(289,772,o),
(330,815,o),
(334,899,c),
(268,899,l),
(265,851,o),
(251,835,o),
(230,835,cs),
(209,835,o),
(195,851,o),
(193,899,c),
(126,899,l),
(130,815,o),
(171,772,o),
(230,772,cs)
);
}
);
};
layerId = "E1689EA5-A91E-47D2-BCA7-04A2C9D26D65";
shapes = (
{
alignment = -1;
ref = A;
},
{
alignment = -1;
pos = (126,0);
ref = brevecomb.case;
}
);
width = 454;
}
);
unicode = 258;
},
{
glyphname = Acircumflex;
kernLeft = A;
kernRight = A;
lastChange = "2024-12-19 13:17:37 +0000";
layers = (
{
background = {
anchors = (
{
name = bottom;
pos = (230,0);
},
{
name = ogonek;
pos = (430,0);
},
{
name = top;
pos = (230,889);
}
);
shapes = (
{
closed = 1;
nodes = (
(120,0,l),
(157,202,l),
(161,228,l),
(229,621,l),
(220,621,l),
(289,228,l),
(293,202,l),
(331,0,l),
(447,0,l),
(303,710,l),
(151,710,l),
(8,0,l)
);
},
{
closed = 1;
nodes = (
(340,171,l),
(340,262,l),
(106,262,l),
(106,171,l)
);
},
{
closed = 1;
nodes = (
(186,768,l),
(259,875,l),
(201,875,l),
(274,768,l),
(353,768,l),
(267,889,l),
(192,889,l),
(106,768,l)
);
}
);
};
layerId = "E1689EA5-A91E-47D2-BCA7-04A2C9D26D65";
shapes = (
{
alignment = -1;
ref = A;
},
{
alignment = -1;
pos = (106,0);
ref = circumflexcomb.case;
}
);
width = 454;
}
);
unicode = 194;
},
{
glyphname = Adieresis;
kernLeft = A;
kernRight = A;
lastChange = "2024-12-19 13:17:37 +0000";
layers = (
{
background = {
anchors = (
{
name = bottom;
pos = (230,0);
},
{
name = ogonek;
pos = (430,0);
},
{
name = top;
pos = (230,886);
}
);
shapes = (
{
closed = 1;
nodes = (
(120,0,l),
(157,202,l),
(161,228,l),
(229,621,l),
(220,621,l),
(289,228,l),
(293,202,l),
(331,0,l),
(447,0,l),
(303,710,l),
(151,710,l),
(8,0,l)
);
},
{
closed = 1;
nodes = (
(340,171,l),
(340,262,l),
(106,262,l),
(106,171,l)
);
},
{
closed = 1;
nodes = (
(214,780,l),
(214,886,l),
(119,886,l),
(119,780,l)
);
},
{
closed = 1;
nodes = (
(346,780,l),
(346,886,l),
(251,886,l),
(251,780,l)
);
}
);
};
layerId = "E1689EA5-A91E-47D2-BCA7-04A2C9D26D65";
shapes = (
{
alignment = -1;
ref = A;
},
{
alignment = -1;
pos = (119,0);
ref = dieresiscomb.case;
}
);
width = 454;
}
);
unicode = 196;
},
{
glyphname = Agrave;
kernLeft = A;
kernRight = A;
lastChange = "2024-12-19 13:17:37 +0000";
layers = (
{
background = {
anchors = (
{
name = bottom;
pos = (230,0);
},
{
name = ogonek;
pos = (430,0);
},
{
name = top;
pos = (198,927);
}
);
shapes = (
{
closed = 1;
nodes = (
(120,0,l),
(157,202,l),
(161,228,l),
(229,621,l),
(220,621,l),
(289,228,l),
(293,202,l),
(331,0,l),
(447,0,l),
(303,710,l),
(151,710,l),
(8,0,l)
);
},
{
closed = 1;
nodes = (
(340,171,l),
(340,262,l),
(106,262,l),
(106,171,l)
);
},
{
closed = 1;
nodes = (
(273,781,l),
(201,927,l),
(123,897,l),
(208,763,l)
);
}
);
};
layerId = "E1689EA5-A91E-47D2-BCA7-04A2C9D26D65";
shapes = (
{
alignment = -1;
ref = A;
},
{
alignment = -1;
pos = (123,0);
ref = gravecomb.case;
}
);
width = 454;
}
);
unicode = 192;
},
{
glyphname = Amacron;
kernLeft = A;
kernRight = A;
lastChange = "2024-12-19 13:17:37 +0000";
layers = (
{
background = {
anchors = (
{
name = bottom;
pos = (230,0);
},
{
name = ogonek;
pos = (430,0);
},
{
name = top;
pos = (230,863);
}
);
shapes = (
{
closed = 1;
nodes = (
(120,0,l),
(157,202,l),
(161,228,l),
(229,621,l),
(220,621,l),
(289,228,l),
(293,202,l),
(331,0,l),
(447,0,l),
(303,710,l),
(151,710,l),
(8,0,l)
);
},
{
closed = 1;
nodes = (
(340,171,l),
(340,262,l),
(106,262,l),
(106,171,l)
);
},
{
closed = 1;
nodes = (
(366,792,l),
(366,863,l),
(94,863,l),
(94,792,l)
);
}
);
};
layerId = "E1689EA5-A91E-47D2-BCA7-04A2C9D26D65";
shapes = (
{
alignment = -1;
ref = A;
},
{
alignment = -1;
pos = (94,0);
ref = macroncomb.case;
}
);
width = 454;
}
);
unicode = 256;
},
{
glyphname = Aogonek;
kernLeft = A;
kernRight = A;
lastChange = "2024-12-19 13:17:24 +0000";
layers = (
{
background = {
shapes = (
{
closed = 1;
nodes = (
(429,-98,l),
(393,-100,o),
(373,-91,o),
(373,-59,cs),
(373,-38,o),
(382,-15,o),
(397,0,c),
(450,0,l),
(306,710,l),
(151,710,l),
(8,0,l),
(122,0,l),
(159,202,l),
(163,228,l),
(227,593,l),
(291,228,l),
(294,202,l),
(331,5,l),
(310,-23,o),
(298,-51,o),
(298,-82,cs),
(298,-153,o),
(360,-170,o),
(429,-161,c)
);
},
{
closed = 1;
nodes = (
(342,171,l),
(342,262,l),
(108,262,l),
(108,171,l)
);
}
);
};
layerId = "E1689EA5-A91E-47D2-BCA7-04A2C9D26D65";
shapes = (
{
closed = 1;
nodes = (
(429,-98,l),
(393,-100,o),
(373,-91,o),
(373,-59,cs),
(373,-38,o),
(382,-15,o),
(397,0,c),
(450,0,l),
(306,710,l),
(151,710,l),
(8,0,l),
(122,0,l),
(159,202,l),
(163,228,l),
(227,593,l),
(291,228,l),
(294,202,l),
(331,5,l),
(310,-23,o),
(298,-51,o),
(298,-82,cs),
(298,-153,o),
(360,-170,o),
(429,-161,c)
);
},
{
closed = 1;
nodes = (
(342,171,l),
(342,262,l),
(108,262,l),
(108,171,l)
);
}
);
width = 457.5;
}
);
unicode = 260;
},
{
glyphname = Aring;
kernLeft = A;
kernRight = A;
lastChange = "2024-12-19 13:17:37 +0000";
layers = (
{
background = {
anchors = (
{
name = bottom;
pos = (230,0);
},
{
name = ogonek;
pos = (430,0);
},
{
name = top;
pos = (230,861);
}
);
shapes = (
{
closed = 1;
nodes = (
(120,0,l),
(157,202,l),
(161,228,l),
(229,621,l),
(220,621,l),
(289,228,l),
(293,202,l),
(331,0,l),
(447,0,l),
(303,710,l),
(151,710,l),
(8,0,l)
);
},
{
closed = 1;
nodes = (
(340,171,l),
(340,262,l),
(106,262,l),
(106,171,l)
);
},
{
closed = 1;
nodes = (
(295,653,o),
(342,698,o),
(342,757,cs),
(342,816,o),
(295,861,o),
(230,861,cs),
(165,861,o),
(117,816,o),
(117,757,cs),
(117,698,o),
(165,653,o),
(230,653,cs)
);
},
{
closed = 1;
nodes = (
(202,710,o),
(183,728,o),
(183,757,cs),
(183,786,o),
(202,804,o),
(230,804,cs),
(257,804,o),
(277,786,o),
(277,757,cs),
(277,728,o),
(257,710,o),
(230,710,cs)
);
}
);
};
layerId = "E1689EA5-A91E-47D2-BCA7-04A2C9D26D65";
shapes = (
{
alignment = -1;
ref = A;
},
{
alignment = -1;
pos = (117,0);
ref = ringcomb.case;
}
);
width = 454;
}
);
unicode = 197;
},
{
glyphname = Atilde;
kernLeft = A;
kernRight = A;
lastChange = "2024-12-19 13:17:37 +0000";
layers = (
{
background = {
anchors = (
{
name = bottom;
pos = (230,0);
},
{
name = ogonek;
pos = (430,0);
},
{
name = top;
pos = (230,878);
}
);
shapes = (
{
closed = 1;
nodes = (
(120,0,l),
(157,202,l),
(161,228,l),
(229,621,l),
(220,621,l),
(289,228,l),
(293,202,l),
(331,0,l),
(447,0,l),
(303,710,l),
(151,710,l),
(8,0,l)
);
},
{
closed = 1;
nodes = (
(340,171,l),
(340,262,l),
(106,262,l),
(106,171,l)
);
},
{
closed = 1;
nodes = (
(316,775,o),
(347,801,o),
(349,878,c),
(292,878,l),
(291,855,o),
(285,841,o),
(269,841,cs),
(249,841,o),
(225,878,o),
(180,878,cs),
(144,878,o),
(113,852,o),
(111,777,c),
(168,777,l),
(170,800,o),
(175,813,o),
(192,813,cs),
(211,813,o),
(235,775,o),
(279,775,cs)
);
}
);
};
layerId = "E1689EA5-A91E-47D2-BCA7-04A2C9D26D65";
shapes = (
{
alignment = -1;
ref = A;
},
{
alignment = -1;
pos = (111,0);
ref = tildecomb.case;
}
);
width = 454;
}
);
unicode = 195;
},
{
glyphname = AE;
kernLeft = AE;
kernRight = E;
lastChange = "2024-12-19 13:17:24 +0000";
layers = (
{
anchors = (
{
name = bottom;
pos = (327,0);
},
{
name = top;
pos = (439,710);
}
);
background = {
anchors = (
{
name = bottom;
pos = (327,0);
},
{
name = top;
pos = (439,710);
}
);
shapes = (
{
closed = 1;
nodes = (
(110,0,l),
(163,202,l),
(169,228,l),
(277,659,l),
(229,613,l),
(346,613,l),
(347,710,l),
(191,710,l),
(-7,0,l)
);
},
{
closed = 1;
nodes = (
(355,171,l),
(355,262,l),
(121,262,l),
(121,171,l)
);
},
{
closed = 1;
nodes = (
(640,0,l),
(640,96,l),
(408,96,l),
(428,68,l),
(428,643,l),
(408,614,l),
(636,614,l),
(636,710,l),
(314,710,l),
(314,0,l)
);
},
{
closed = 1;
nodes = (
(614,318,l),
(614,409,l),
(396,409,l),
(396,318,l)
);
}
);
};
layerId = "E1689EA5-A91E-47D2-BCA7-04A2C9D26D65";
shapes = (
{
closed = 1;
nodes = (
(110,0,l),
(163,202,l),
(169,228,l),
(277,659,l),
(229,613,l),
(346,613,l),
(347,710,l),
(191,710,l),
(-7,0,l)
);
},
{
closed = 1;
nodes = (
(355,171,l),
(355,262,l),
(121,262,l),
(121,171,l)
);
},
{
closed = 1;
nodes = (
(640,0,l),
(640,96,l),
(408,96,l),
(428,68,l),
(428,643,l),
(408,614,l),
(636,614,l),
(636,710,l),
(314,710,l),
(314,0,l)
);
},
{
closed = 1;
nodes = (
(614,318,l),
(614,409,l),
(396,409,l),
(396,318,l)
);
}
);
width = 666;
}
);
unicode = 198;
},
{
glyphname = AEacute;
kernLeft = AE;
kernRight = E;
lastChange = "2024-12-19 13:17:37 +0000";
layers = (
{
background = {
anchors = (
{
name = bottom;
pos = (327,0);
},
{
name = top;
pos = (471,927);
}
);
shapes = (
{
closed = 1;
nodes = (
(110,0,l),
(163,202,l),
(169,228,l),
(277,659,l),
(229,613,l),
(346,613,l),
(347,710,l),
(191,710,l),
(-7,0,l)
);
},
{
closed = 1;
nodes = (
(355,171,l),
(355,262,l),
(121,262,l),
(121,171,l)
);
},
{
closed = 1;
nodes = (
(640,0,l),
(640,96,l),
(408,96,l),
(428,68,l),
(428,643,l),
(408,614,l),
(636,614,l),
(636,710,l),
(314,710,l),
(314,0,l)
);
},
{
closed = 1;
nodes = (
(614,318,l),
(614,409,l),
(396,409,l),
(396,318,l)
);
},
{
closed = 1;
nodes = (
(546,897,l),
(468,927,l),
(396,781,l),
(461,763,l)
);
}
);
};
layerId = "E1689EA5-A91E-47D2-BCA7-04A2C9D26D65";
shapes = (
{
alignment = -1;
ref = AE;
},
{
alignment = -1;
pos = (396,0);
ref = acutecomb.case;
}
);
width = 666;
}
);
unicode = 508;
},
{
glyphname = B;
kernLeft = H;
lastChange = "2024-12-19 13:17:24 +0000";
layers = (
{
anchors = (
{
name = bottom;
pos = (219,0);
},
{
name = center;
pos = (219,355);
},
{
name = top;
pos = (219,710);
}
);
background = {
anchors = (
{
name = bottom;
pos = (219,0);
},
{
name = center;
pos = (219,355);
},
{
name = top;
pos = (219,710);
}
);
shapes = (
{
closed = 1;
nodes = (
(228,0,ls),
(357,0,o),
(416,82,o),
(416,198,cs),
(416,287,o),
(383,350,o),
(302,375,c),
(302,354,l),
(376,379,o),
(408,445,o),
(408,523,cs),
(408,639,o),
(350,710,o),
(224,710,cs),
(45,710,l),
(45,0,l)
);
},
{
closed = 1;
nodes = (
(159,618,l),
(215,618,ls),
(269,618,o),
(296,588,o),
(296,531,cs),
(296,493,ls),
(296,436,o),
(270,408,o),
(215,408,cs),
(143,408,l),
(143,317,l),
(219,317,ls),
(275,317,o),
(301,289,o),
(301,227,cs),
(301,185,ls),
(301,125,o),
(274,92,o),
(219,92,cs),
(159,92,l)
);
}
);
};
layerId = "E1689EA5-A91E-47D2-BCA7-04A2C9D26D65";
shapes = (
{
closed = 1;
nodes = (
(228,0,ls),
(357,0,o),
(416,82,o),
(416,198,cs),
(416,287,o),
(383,350,o),
(302,375,c),
(302,354,l),
(376,379,o),
(408,445,o),
(408,523,cs),
(408,639,o),
(350,710,o),
(224,710,cs),
(45,710,l),
(45,0,l)
);
},
{
closed = 1;
nodes = (
(159,618,l),
(215,618,ls),
(269,618,o),
(296,588,o),
(296,531,cs),
(296,493,ls),
(296,436,o),
(270,408,o),
(215,408,cs),
(143,408,l),
(143,317,l),
(219,317,ls),
(275,317,o),
(301,289,o),
(301,227,cs),
(301,185,ls),
(301,125,o),
(274,92,o),
(219,92,cs),
(159,92,l)
);
}
);
width = 442.5;
}
);
note = B;
unicode = 66;
},
{
glyphname = C;
kernLeft = O;
kernRight = C;
lastChange = "2024-12-19 13:17:24 +0000";
layers = (
{
anchors = (
{
name = bottom;
pos = (235,0);
},
{
name = top;
pos = (225,710);
}
);
background = {
anchors = (
{
name = bottom;
pos = (235,0);
},
{
name = top;
pos = (225,710);
}
);
shapes = (
{
closed = 1;
nodes = (
(332,-12,o),
(410,52,o),
(414,268,c),
(309,271,l),
(304,130,o),
(282,81,o),
(232,81,cs),
(179,81,o),
(146,133,o),
(146,312,cs),
(146,398,ls),
(146,578,o),
(179,629,o),
(231,629,cs),
(281,629,o),
(304,580,o),
(309,438,c),
(414,442,l),
(411,653,o),
(335,722,o),
(230,722,cs),
(108,722,o),
(30,637,o),
(30,355,cs),
(30,74,o),
(108,-12,o),
(230,-12,cs)
);
}
);
};
layerId = "E1689EA5-A91E-47D2-BCA7-04A2C9D26D65";
shapes = (
{
closed = 1;
nodes = (
(332,-12,o),
(410,52,o),
(414,268,c),
(309,271,l),
(304,130,o),
(282,81,o),
(232,81,cs),
(179,81,o),
(146,133,o),
(146,312,cs),
(146,398,ls),
(146,578,o),
(179,629,o),
(231,629,cs),
(281,629,o),
(304,580,o),
(309,438,c),
(414,442,l),
(411,653,o),
(335,722,o),
(230,722,cs),
(108,722,o),
(30,637,o),
(30,355,cs),
(30,74,o),
(108,-12,o),
(230,-12,cs)
);
}
);
width = 440;
}
);
note = C;
unicode = 67;
},
{
glyphname = Cacute;
kernLeft = O;
kernRight = C;
lastChange = "2024-12-19 13:17:37 +0000";
layers = (
{
background = {
anchors = (
{
name = bottom;
pos = (235,0);
},
{
name = top;
pos = (257,927);
}
);
shapes = (
{
closed = 1;
nodes = (
(332,-12,o),
(410,52,o),
(414,268,c),
(309,271,l),
(304,130,o),
(282,81,o),
(232,81,cs),
(179,81,o),
(146,133,o),
(146,312,cs),
(146,398,ls),
(146,578,o),
(179,629,o),
(231,629,cs),
(281,629,o),
(304,580,o),
(309,438,c),
(414,442,l),
(411,653,o),
(335,722,o),
(230,722,cs),
(108,722,o),
(30,637,o),
(30,355,cs),
(30,74,o),
(108,-12,o),
(230,-12,cs)
);
},
{
closed = 1;
nodes = (
(332,897,l),
(254,927,l),
(182,781,l),
(247,763,l)
);
}
);
};
layerId = "E1689EA5-A91E-47D2-BCA7-04A2C9D26D65";
shapes = (
{
alignment = -1;
ref = C;
},
{
alignment = -1;
pos = (182,0);
ref = acutecomb.case;
}
);
width = 440;
}
);
unicode = 262;
},
{
glyphname = Ccaron;
kernLeft = O;
kernRight = C;
lastChange = "2024-12-19 13:17:37 +0000";
layers = (
{
background = {
anchors = (
{
name = bottom;
pos = (235,0);
},
{
name = top;
pos = (225,889);
}
);
shapes = (
{
closed = 1;
nodes = (
(332,-12,o),
(410,52,o),
(414,268,c),
(309,271,l),
(304,130,o),
(282,81,o),
(232,81,cs),
(179,81,o),
(146,133,o),
(146,312,cs),
(146,398,ls),
(146,578,o),
(179,629,o),
(231,629,cs),
(281,629,o),
(304,580,o),
(309,438,c),
(414,442,l),
(411,653,o),
(335,722,o),
(230,722,cs),
(108,722,o),
(30,637,o),
(30,355,cs),
(30,74,o),
(108,-12,o),
(230,-12,cs)
);
},
{
closed = 1;
nodes = (
(262,768,l),
(348,889,l),
(269,889,l),
(196,782,l),
(254,782,l),
(181,889,l),
(101,889,l),
(187,768,l)
);
}
);
};
layerId = "E1689EA5-A91E-47D2-BCA7-04A2C9D26D65";
shapes = (
{
alignment = -1;
ref = C;
},
{
alignment = -1;
pos = (101,0);
ref = caroncomb.case;
}
);
width = 440;
}
);
unicode = 268;
},
{
glyphname = Ccedilla;
kernLeft = O;
kernRight = C;
lastChange = "2024-12-19 13:17:37 +0000";
layers = (
{
background = {
anchors = (
{
name = bottom;
pos = (244,-162);
},
{
name = top;
pos = (225,710);
}
);
shapes = (
{
closed = 1;
nodes = (
(332,-12,o),
(410,52,o),
(414,268,c),
(309,271,l),
(304,130,o),
(282,81,o),
(232,81,cs),
(179,81,o),
(146,133,o),
(146,312,cs),
(146,398,ls),
(146,578,o),
(179,629,o),
(231,629,cs),
(281,629,o),
(304,580,o),
(309,438,c),
(414,442,l),
(411,653,o),
(335,722,o),
(230,722,cs),
(108,722,o),
(30,637,o),
(30,355,cs),
(30,74,o),
(108,-12,o),
(230,-12,cs)
);
},
{
closed = 1;
nodes = (
(277,-167,o),
(317,-143,o),
(317,-94,cs),
(317,-46,o),
(274,-26,o),
(230,-21,c),
(257,-39,l),
(257,2,l),
(201,2,l),
(197,-56,l),
(234,-63,o),
(248,-70,o),
(248,-86,cs),
(248,-112,o),
(205,-110,o),
(170,-102,c),
(170,-161,l),
(192,-165,o),
(206,-167,o),
(224,-167,cs)
);
}
);
};
layerId = "E1689EA5-A91E-47D2-BCA7-04A2C9D26D65";
shapes = (
{
alignment = -1;
ref = C;
},
{
alignment = -1;
pos = (170,0);
ref = cedillacomb;
}
);
width = 440;
}
);
unicode = 199;
},
{
glyphname = Ccircumflex;
kernLeft = O;
kernRight = C;
lastChange = "2024-12-19 13:17:37 +0000";
layers = (
{
background = {
anchors = (
{
name = bottom;
pos = (235,0);
},
{
name = top;
pos = (225,889);
}
);
shapes = (
{
closed = 1;
nodes = (
(332,-12,o),
(410,52,o),
(414,268,c),
(309,271,l),
(304,130,o),
(282,81,o),
(232,81,cs),
(179,81,o),
(146,133,o),
(146,312,cs),
(146,398,ls),
(146,578,o),
(179,629,o),
(231,629,cs),
(281,629,o),
(304,580,o),
(309,438,c),
(414,442,l),
(411,653,o),
(335,722,o),
(230,722,cs),
(108,722,o),
(30,637,o),
(30,355,cs),
(30,74,o),
(108,-12,o),
(230,-12,cs)
);
},
{
closed = 1;
nodes = (
(181,768,l),
(254,875,l),
(196,875,l),
(269,768,l),
(348,768,l),
(262,889,l),
(187,889,l),
(101,768,l)
);
}
);
};
layerId = "E1689EA5-A91E-47D2-BCA7-04A2C9D26D65";
shapes = (
{
alignment = -1;
ref = C;
},
{
alignment = -1;
pos = (101,0);
ref = circumflexcomb.case;
}
);
width = 440;
}
);
unicode = 264;
},
{
glyphname = Cdotaccent;
kernLeft = O;
kernRight = C;
lastChange = "2024-12-19 13:17:37 +0000";
layers = (
{
background = {
anchors = (
{
name = bottom;
pos = (235,0);
},
{
name = top;
pos = (225,886);
}
);
shapes = (
{
closed = 1;
nodes = (
(332,-12,o),
(410,52,o),
(414,268,c),
(309,271,l),
(304,130,o),
(282,81,o),
(232,81,cs),
(179,81,o),
(146,133,o),
(146,312,cs),
(146,398,ls),
(146,578,o),
(179,629,o),
(231,629,cs),
(281,629,o),
(304,580,o),
(309,438,c),
(414,442,l),
(411,653,o),
(335,722,o),
(230,722,cs),
(108,722,o),
(30,637,o),
(30,355,cs),
(30,74,o),
(108,-12,o),
(230,-12,cs)
);
},
{
closed = 1;
nodes = (
(280,780,l),
(280,886,l),
(168,886,l),
(168,780,l)
);
}
);
};
layerId = "E1689EA5-A91E-47D2-BCA7-04A2C9D26D65";
shapes = (
{
alignment = -1;
ref = C;
},
{
alignment = -1;
pos = (168,0);
ref = dotaccentcomb.case;
}
);
width = 440;
}
);
unicode = 266;
},
{
glyphname = D;
kernLeft = H;
kernRight = D;
lastChange = "2024-12-19 13:17:24 +0000";
layers = (
{
anchors = (
{
name = bottom;
pos = (227,0);
},
{
name = center;
pos = (227,355);
},
{
name = top;
pos = (193,710);
}
);
background = {
anchors = (
{
name = bottom;
pos = (227,0);
},
{
name = center;
pos = (227,355);
},
{
name = top;
pos = (193,710);
}
);
shapes = (
{
closed = 1;
nodes = (
(208,0,ls),
(336,0,o),
(421,89,o),
(421,355,cs),
(421,620,o),
(336,710,o),
(208,710,cs),
(45,710,l),
(45,0,l)
);
},
{
closed = 1;
nodes = (
(159,614,l),
(198,614,ls),
(262,614,o),
(305,568,o),
(305,425,cs),
(305,285,ls),
(305,143,o),
(262,96,o),
(198,96,cs),
(159,96,l)
);
}
);
};
layerId = "E1689EA5-A91E-47D2-BCA7-04A2C9D26D65";
shapes = (
{
closed = 1;
nodes = (
(208,0,ls),
(336,0,o),
(421,89,o),
(421,355,cs),
(421,620,o),
(336,710,o),
(208,710,cs),
(45,710,l),
(45,0,l)
);
},
{
closed = 1;
nodes = (
(159,614,l),
(198,614,ls),
(262,614,o),
(305,568,o),
(305,425,cs),
(305,285,ls),
(305,143,o),
(262,96,o),
(198,96,cs),
(159,96,l)
);
}
);
width = 450;
}
);
note = D;
unicode = 68;
},
{
glyphname = Dcaron;
kernLeft = H;
kernRight = D;
lastChange = "2024-12-19 13:17:37 +0000";
layers = (
{
background = {
anchors = (
{
name = bottom;
pos = (227,0);
},
{
name = center;
pos = (227,355);
},
{
name = top;
pos = (193,889);
}
);
shapes = (
{
closed = 1;
nodes = (
(208,0,ls),
(336,0,o),
(421,89,o),
(421,355,cs),
(421,620,o),
(336,710,o),
(208,710,cs),
(45,710,l),
(45,0,l)
);
},
{
closed = 1;
nodes = (
(159,614,l),
(198,614,ls),
(262,614,o),
(305,568,o),
(305,425,cs),
(305,285,ls),
(305,143,o),
(262,96,o),
(198,96,cs),
(159,96,l)
);
},
{
closed = 1;
nodes = (
(230,768,l),
(316,889,l),
(237,889,l),
(164,782,l),
(222,782,l),
(149,889,l),
(69,889,l),
(155,768,l)
);
}
);
};
layerId = "E1689EA5-A91E-47D2-BCA7-04A2C9D26D65";
shapes = (
{
alignment = -1;
ref = D;
},
{
alignment = -1;
pos = (69,0);
ref = caroncomb.case;
}
);
width = 450;
}
);
unicode = 270;
},
{
glyphname = Dcroat;
kernLeft = H;
kernRight = D;
lastChange = "2024-12-19 13:17:37 +0000";
layers = (
{
background = {
anchors = (
{
name = bottom;
pos = (252,0);
},
{
name = center;
pos = (252,355);
},
{
name = top;
pos = (218,710);
}
);
shapes = (
{
closed = 1;
nodes = (
(250,311,l),
(250,399,l),
(17,399,l),
(17,311,l)
);
},
{
closed = 1;
nodes = (
(233,0,ls),
(361,0,o),
(446,89,o),
(446,355,cs),
(446,620,o),
(361,710,o),
(233,710,cs),
(70,710,l),
(70,0,l)
);
},
{
closed = 1;
nodes = (
(184,614,l),
(223,614,ls),
(287,614,o),
(330,568,o),
(330,425,cs),
(330,285,ls),
(330,143,o),
(287,96,o),
(223,96,cs),
(184,96,l)
);
}
);
};
layerId = "E1689EA5-A91E-47D2-BCA7-04A2C9D26D65";
shapes = (
{
closed = 1;
nodes = (
(250,311,l),
(250,399,l),
(17,399,l),
(17,311,l)
);
},
{
alignment = -1;
pos = (25,0);
ref = D;
}
);
width = 475;
}
);
unicode = 272;
},
{
glyphname = Eth;
kernLeft = H;
kernRight = D;
lastChange = "2024-12-19 13:17:37 +0000";
layers = (
{
background = {
anchors = (
{
name = bottom;
pos = (252,0);
},
{
name = center;
pos = (252,355);
},
{
name = top;
pos = (218,710);
}
);
shapes = (
{
closed = 1;
nodes = (
(250,311,l),
(250,399,l),
(17,399,l),
(17,311,l)
);
},
{
closed = 1;
nodes = (
(233,0,ls),
(361,0,o),
(446,89,o),
(446,355,cs),
(446,620,o),
(361,710,o),
(233,710,cs),
(70,710,l),
(70,0,l)
);
},
{
closed = 1;
nodes = (
(184,614,l),
(223,614,ls),
(287,614,o),
(330,568,o),
(330,425,cs),
(330,285,ls),
(330,143,o),
(287,96,o),
(223,96,cs),
(184,96,l)
);
}
);
};
layerId = "E1689EA5-A91E-47D2-BCA7-04A2C9D26D65";
shapes = (
{
alignment = -1;
ref = Dcroat;
}
);
width = 475;
}
);
unicode = 208;
},
{
glyphname = E;
kernLeft = H;
kernRight = E;
lastChange = "2024-12-19 13:17:24 +0000";
layers = (
{
anchors = (
{
name = bottom;
pos = (202,0);
},
{
name = ogonek;
pos = (361,0);
},
{
name = top;
pos = (202,710);
},
{
name = topleft;
pos = (25,710);
}
);
background = {
anchors = (
{
name = bottom;
pos = (202,0);
},
{
name = ogonek;
pos = (361,0);
},
{
name = top;
pos = (202,710);
},
{
name = topleft;
pos = (25,710);
}
);
shapes = (
{
closed = 1;
nodes = (
(371,0,l),
(371,96,l),
(138,96,l),
(159,67,l),
(159,644,l),
(138,614,l),
(367,614,l),
(367,710,l),
(45,710,l),
(45,0,l)
);
},
{
closed = 1;
nodes = (
(344,318,l),
(344,409,l),
(125,409,l),
(125,318,l)
);
}
);
};
layerId = "E1689EA5-A91E-47D2-BCA7-04A2C9D26D65";
shapes = (
{
closed = 1;
nodes = (
(371,0,l),
(371,96,l),
(138,96,l),
(159,67,l),
(159,644,l),
(138,614,l),
(367,614,l),
(367,710,l),
(45,710,l),
(45,0,l)
);
},
{
closed = 1;
nodes = (
(344,318,l),
(344,409,l),
(125,409,l),
(125,318,l)
);
}
);
width = 396.5;
}
);
note = E;
unicode = 69;
},
{
glyphname = Eacute;
kernLeft = H;
kernRight = E;
lastChange = "2024-12-19 13:17:37 +0000";
layers = (
{
background = {
anchors = (
{
name = bottom;
pos = (202,0);
},
{
name = ogonek;
pos = (361,0);
},
{
name = top;
pos = (234,927);
},
{
name = topleft;
pos = (25,710);
}
);
shapes = (
{
closed = 1;
nodes = (
(371,0,l),
(371,96,l),
(138,96,l),
(159,67,l),
(159,644,l),
(138,614,l),
(367,614,l),
(367,710,l),
(45,710,l),
(45,0,l)
);
},
{
closed = 1;
nodes = (
(344,318,l),
(344,409,l),
(125,409,l),
(125,318,l)
);
},
{
closed = 1;
nodes = (
(309,897,l),
(231,927,l),
(159,781,l),
(224,763,l)
);
}
);
};
layerId = "E1689EA5-A91E-47D2-BCA7-04A2C9D26D65";
shapes = (
{
alignment = -1;
ref = E;
},
{
alignment = -1;
pos = (159,0);
ref = acutecomb.case;
}
);
width = 396.5;
}
);
unicode = 201;
},
{
glyphname = Ebreve;
kernLeft = H;
kernRight = E;
lastChange = "2024-12-19 13:17:37 +0000";
layers = (
{
background = {
anchors = (
{
name = bottom;
pos = (202,0);
},
{
name = ogonek;
pos = (361,0);
},
{
name = top;
pos = (202,899);
},
{
name = topleft;
pos = (25,710);
}
);
shapes = (
{
closed = 1;
nodes = (
(371,0,l),
(371,96,l),
(138,96,l),
(159,67,l),
(159,644,l),
(138,614,l),
(367,614,l),
(367,710,l),
(45,710,l),
(45,0,l)
);
},
{
closed = 1;
nodes = (
(344,318,l),
(344,409,l),
(125,409,l),
(125,318,l)
);
},
{
closed = 1;
nodes = (
(261,772,o),
(302,815,o),
(306,899,c),
(240,899,l),
(237,851,o),
(223,835,o),
(202,835,cs),
(181,835,o),
(167,851,o),
(165,899,c),
(98,899,l),
(102,815,o),
(143,772,o),
(202,772,cs)
);
}
);
};
layerId = "E1689EA5-A91E-47D2-BCA7-04A2C9D26D65";
shapes = (
{
alignment = -1;
ref = E;
},
{
alignment = -1;
pos = (98,0);
ref = brevecomb.case;
}
);
width = 396.5;
}
);
unicode = 276;
},
{
glyphname = Ecaron;
kernLeft = H;
kernRight = E;
lastChange = "2024-12-19 13:17:37 +0000";
layers = (
{
background = {
anchors = (
{
name = bottom;
pos = (202,0);
},
{
name = ogonek;
pos = (361,0);
},
{
name = top;
pos = (203,889);
},
{
name = topleft;
pos = (25,710);
}
);
shapes = (
{
closed = 1;
nodes = (
(371,0,l),
(371,96,l),
(138,96,l),
(159,67,l),
(159,644,l),
(138,614,l),
(367,614,l),
(367,710,l),
(45,710,l),
(45,0,l)
);
},
{
closed = 1;
nodes = (
(344,318,l),
(344,409,l),
(125,409,l),
(125,318,l)
);
},
{
closed = 1;
nodes = (
(240,768,l),
(326,889,l),
(247,889,l),
(174,782,l),
(232,782,l),
(159,889,l),
(79,889,l),
(165,768,l)
);
}
);
};
layerId = "E1689EA5-A91E-47D2-BCA7-04A2C9D26D65";
shapes = (
{
alignment = -1;
ref = E;
},
{
alignment = -1;
pos = (79,0);
ref = caroncomb.case;
}
);
width = 396.5;
}
);
unicode = 282;
},
{
glyphname = Ecircumflex;
kernLeft = H;
kernRight = E;
lastChange = "2024-12-19 13:17:37 +0000";
layers = (
{
background = {
anchors = (
{
name = bottom;
pos = (202,0);
},
{
name = ogonek;
pos = (361,0);
},
{
name = top;
pos = (203,889);
},
{
name = topleft;
pos = (25,710);
}
);
shapes = (
{
closed = 1;
nodes = (
(371,0,l),
(371,96,l),
(138,96,l),
(159,67,l),
(159,644,l),
(138,614,l),
(367,614,l),
(367,710,l),
(45,710,l),
(45,0,l)
);
},
{
closed = 1;
nodes = (
(344,318,l),
(344,409,l),
(125,409,l),
(125,318,l)
);
},
{
closed = 1;
nodes = (
(159,768,l),
(232,875,l),
(174,875,l),
(247,768,l),
(326,768,l),
(240,889,l),
(165,889,l),
(79,768,l)
);
}
);
};
layerId = "E1689EA5-A91E-47D2-BCA7-04A2C9D26D65";
shapes = (
{
alignment = -1;
ref = E;
},
{
alignment = -1;
pos = (79,0);
ref = circumflexcomb.case;
}
);
width = 396.5;
}
);
unicode = 202;
},
{
glyphname = Edieresis;
kernLeft = H;
kernRight = E;
lastChange = "2024-12-19 13:17:37 +0000";
layers = (
{
background = {
anchors = (
{
name = bottom;
pos = (202,0);
},
{
name = ogonek;
pos = (361,0);
},
{
name = top;
pos = (203,886);
},
{
name = topleft;
pos = (25,710);
}
);
shapes = (
{
closed = 1;
nodes = (
(371,0,l),
(371,96,l),
(138,96,l),
(159,67,l),
(159,644,l),
(138,614,l),
(367,614,l),
(367,710,l),
(45,710,l),
(45,0,l)
);
},
{
closed = 1;
nodes = (
(344,318,l),
(344,409,l),
(125,409,l),
(125,318,l)
);
},
{
closed = 1;
nodes = (
(187,780,l),
(187,886,l),
(92,886,l),
(92,780,l)
);
},
{
closed = 1;
nodes = (
(319,780,l),
(319,886,l),
(224,886,l),
(224,780,l)
);
}
);
};
layerId = "E1689EA5-A91E-47D2-BCA7-04A2C9D26D65";
shapes = (
{
alignment = -1;
ref = E;
},
{
alignment = -1;
pos = (92,0);
ref = dieresiscomb.case;
}
);
width = 396.5;
}
);
unicode = 203;
},
{
glyphname = Edotaccent;
kernLeft = H;
kernRight = E;
lastChange = "2024-12-19 13:17:37 +0000";
layers = (
{
background = {
anchors = (
{
name = bottom;
pos = (202,0);
},
{
name = ogonek;
pos = (361,0);
},
{
name = top;
pos = (203,886);
},
{
name = topleft;
pos = (25,710);
}
);
shapes = (
{
closed = 1;
nodes = (
(371,0,l),
(371,96,l),
(138,96,l),
(159,67,l),
(159,644,l),
(138,614,l),
(367,614,l),
(367,710,l),
(45,710,l),
(45,0,l)
);
},
{
closed = 1;
nodes = (
(344,318,l),
(344,409,l),
(125,409,l),
(125,318,l)
);
},
{
closed = 1;
nodes = (
(258,780,l),
(258,886,l),
(146,886,l),
(146,780,l)
);
}
);
};
layerId = "E1689EA5-A91E-47D2-BCA7-04A2C9D26D65";
shapes = (
{
alignment = -1;
ref = E;
},
{
alignment = -1;
pos = (146,0);
ref = dotaccentcomb.case;
}
);
width = 396.5;
}
);
unicode = 278;
},
{
glyphname = Egrave;
kernLeft = H;
kernRight = E;
lastChange = "2024-12-19 13:17:37 +0000";
layers = (
{
background = {
anchors = (
{
name = bottom;
pos = (202,0);
},
{
name = ogonek;
pos = (361,0);
},
{
name = top;
pos = (171,927);
},
{
name = topleft;
pos = (25,710);
}
);
shapes = (
{
closed = 1;
nodes = (
(371,0,l),
(371,96,l),
(138,96,l),
(159,67,l),
(159,644,l),
(138,614,l),
(367,614,l),
(367,710,l),
(45,710,l),
(45,0,l)
);
},
{
closed = 1;
nodes = (
(344,318,l),
(344,409,l),
(125,409,l),
(125,318,l)
);
},
{
closed = 1;
nodes = (
(246,781,l),
(174,927,l),
(96,897,l),
(181,763,l)
);
}
);
};
layerId = "E1689EA5-A91E-47D2-BCA7-04A2C9D26D65";
shapes = (
{
alignment = -1;
ref = E;
},
{
alignment = -1;
pos = (96,0);
ref = gravecomb.case;
}
);
width = 396.5;
}
);
unicode = 200;
},
{
glyphname = Emacron;
kernLeft = H;
kernRight = E;
lastChange = "2024-12-19 13:17:37 +0000";
layers = (
{
background = {
anchors = (
{
name = bottom;
pos = (202,0);
},
{
name = ogonek;
pos = (361,0);
},
{
name = top;
pos = (202,863);
},
{
name = topleft;
pos = (25,710);
}
);
shapes = (
{
closed = 1;
nodes = (
(371,0,l),
(371,96,l),
(138,96,l),
(159,67,l),
(159,644,l),
(138,614,l),
(367,614,l),
(367,710,l),
(45,710,l),
(45,0,l)
);
},
{
closed = 1;
nodes = (
(344,318,l),
(344,409,l),
(125,409,l),
(125,318,l)
);
},
{
closed = 1;
nodes = (
(338,792,l),
(338,863,l),
(66,863,l),
(66,792,l)
);
}
);
};
layerId = "E1689EA5-A91E-47D2-BCA7-04A2C9D26D65";
shapes = (
{
alignment = -1;
ref = E;
},
{
alignment = -1;
pos = (66,0);
ref = macroncomb.case;
}
);
width = 396.5;
}
);
unicode = 274;
},
{
glyphname = Eogonek;
kernLeft = H;
kernRight = E;
lastChange = "2024-12-19 13:17:37 +0000";
layers = (
{
anchors = (
{
name = top;
pos = (382,710);
}
);
background = {
anchors = (
{
name = bottom;
pos = (202,0);
},
{
name = ogonek;
pos = (361,0);
},
{
name = top;
pos = (382,710);
},
{
name = topleft;
pos = (25,710);
}
);
shapes = (
{
closed = 1;
nodes = (
(371,0,l),
(371,96,l),
(138,96,l),
(159,67,l),
(159,644,l),
(138,614,l),
(367,614,l),
(367,710,l),
(45,710,l),
(45,0,l)
);
},
{
closed = 1;
nodes = (
(344,318,l),
(344,409,l),
(125,409,l),
(125,318,l)
);
},
{
closed = 1;
nodes = (
(370,-98,l),
(344,-101,o),
(315,-90,o),
(315,-61,cs),
(316,-36,o),
(331,-14,o),
(349,0,c),
(286,12,l),
(286,2,l),
(260,-21,o),
(241,-50,o),
(241,-84,cs),
(241,-151,o),
(311,-170,o),
(370,-161,c)
);
}
);
};
layerId = "E1689EA5-A91E-47D2-BCA7-04A2C9D26D65";
shapes = (
{
alignment = -1;
ref = E;
},
{
alignment = -1;
pos = (241,0);
ref = ogonekcomb;
}
);
width = 396.5;
}
);
unicode = 280;
},
{
glyphname = F;
kernLeft = H;
lastChange = "2024-12-19 13:17:24 +0000";
layers = (
{
anchors = (
{
name = bottom;
pos = (191,0);
},
{
name = top;
pos = (191,710);
}
);
background = {
anchors = (
{
name = bottom;
pos = (191,0);
},
{
name = top;
pos = (191,710);
}
);
shapes = (
{
closed = 1;
nodes = (
(159,0,l),
(159,644,l),
(138,614,l),
(364,614,l),
(364,710,l),
(45,710,l),
(45,0,l)
);
},
{
closed = 1;
nodes = (
(351,303,l),
(351,394,l),
(125,394,l),
(125,303,l)
);
}
);
};
layerId = "E1689EA5-A91E-47D2-BCA7-04A2C9D26D65";
shapes = (
{
closed = 1;
nodes = (
(159,0,l),
(159,644,l),
(138,614,l),
(364,614,l),
(364,710,l),
(45,710,l),
(45,0,l)
);
},
{
closed = 1;
nodes = (
(351,303,l),
(351,394,l),
(125,394,l),
(125,303,l)
);
}
);
width = 382;
}
);
note = F;
unicode = 70;
},
{
glyphname = G;
kernLeft = O;
kernRight = G;
lastChange = "2024-12-19 13:17:24 +0000";
layers = (
{
anchors = (
{
name = bottom;
pos = (238,0);
},
{
name = top;
pos = (231,710);
}
);
background = {
anchors = (
{
name = bottom;
pos = (238,0);
},
{
name = top;
pos = (231,710);
}
);
shapes = (
{
closed = 1;
nodes = (
(263,-12,o),
(313,12,o),
(344,124,c),
(319,130,l),
(334,0,l),
(417,0,l),
(417,376,l),
(221,376,l),
(221,283,l),
(312,283,l),
(312,234,ls),
(312,126,o),
(281,81,o),
(232,81,cs),
(180,81,o),
(147,133,o),
(147,312,cs),
(147,398,ls),
(147,578,o),
(180,629,o),
(232,629,cs),
(282,629,o),
(305,580,o),
(310,453,c),
(415,456,l),
(412,651,o),
(338,722,o),
(231,722,cs),
(109,722,o),
(31,637,o),
(31,355,cs),
(31,77,o),
(100,-12,o),
(203,-12,cs)
);
}
);
};
layerId = "E1689EA5-A91E-47D2-BCA7-04A2C9D26D65";
shapes = (
{
closed = 1;
nodes = (
(263,-12,o),
(313,12,o),
(344,124,c),
(319,130,l),
(334,0,l),
(417,0,l),
(417,376,l),
(221,376,l),
(221,283,l),
(312,283,l),
(312,234,ls),
(312,126,o),
(281,81,o),
(232,81,cs),
(180,81,o),
(147,133,o),
(147,312,cs),
(147,398,ls),
(147,578,o),
(180,629,o),
(232,629,cs),
(282,629,o),
(305,580,o),
(310,453,c),
(415,456,l),
(412,651,o),
(338,722,o),
(231,722,cs),
(109,722,o),
(31,637,o),
(31,355,cs),
(31,77,o),
(100,-12,o),
(203,-12,cs)
);
}
);
width = 455;
}
);
note = G;
unicode = 71;
},
{
glyphname = Gbreve;
kernLeft = O;
kernRight = G;
lastChange = "2024-12-19 13:17:37 +0000";
layers = (
{
background = {
anchors = (
{
name = bottom;
pos = (238,0);
},
{
name = top;
pos = (231,899);
}
);
shapes = (
{
closed = 1;
nodes = (
(263,-12,o),
(313,12,o),
(344,124,c),
(319,130,l),
(334,0,l),
(417,0,l),
(417,376,l),
(221,376,l),
(221,283,l),
(312,283,l),
(312,234,ls),
(312,126,o),
(281,81,o),
(232,81,cs),
(180,81,o),
(147,133,o),
(147,312,cs),
(147,398,ls),
(147,578,o),
(180,629,o),
(232,629,cs),
(282,629,o),
(305,580,o),
(310,453,c),
(415,456,l),
(412,651,o),
(338,722,o),
(231,722,cs),
(109,722,o),
(31,637,o),
(31,355,cs),
(31,77,o),
(100,-12,o),
(203,-12,cs)
);
},
{
closed = 1;
nodes = (
(290,772,o),
(331,815,o),
(335,899,c),
(269,899,l),
(266,851,o),
(252,835,o),
(231,835,cs),
(210,835,o),
(196,851,o),
(194,899,c),
(127,899,l),
(131,815,o),
(172,772,o),
(231,772,cs)
);
}
);
};
layerId = "E1689EA5-A91E-47D2-BCA7-04A2C9D26D65";
shapes = (
{
alignment = -1;
ref = G;
},
{
alignment = -1;
pos = (127,0);
ref = brevecomb.case;
}
);
width = 455;
}
);
unicode = 286;
},
{
glyphname = Gcircumflex;
kernLeft = O;
kernRight = G;
lastChange = "2024-12-19 13:17:37 +0000";
layers = (
{
background = {
anchors = (
{
name = bottom;
pos = (238,0);
},
{
name = top;
pos = (231,889);
}
);
shapes = (
{
closed = 1;
nodes = (
(263,-12,o),
(313,12,o),
(344,124,c),
(319,130,l),
(334,0,l),
(417,0,l),
(417,376,l),
(221,376,l),
(221,283,l),
(312,283,l),
(312,234,ls),
(312,126,o),
(281,81,o),
(232,81,cs),
(180,81,o),
(147,133,o),
(147,312,cs),
(147,398,ls),
(147,578,o),
(180,629,o),
(232,629,cs),
(282,629,o),
(305,580,o),
(310,453,c),
(415,456,l),
(412,651,o),
(338,722,o),
(231,722,cs),
(109,722,o),
(31,637,o),
(31,355,cs),
(31,77,o),
(100,-12,o),
(203,-12,cs)
);
},
{
closed = 1;
nodes = (
(187,768,l),
(260,875,l),
(202,875,l),
(275,768,l),
(354,768,l),
(268,889,l),
(193,889,l),
(107,768,l)
);
}
);
};
layerId = "E1689EA5-A91E-47D2-BCA7-04A2C9D26D65";
shapes = (
{
alignment = -1;
ref = G;
},
{
alignment = -1;
pos = (107,0);
ref = circumflexcomb.case;
}
);
width = 455;
}
);
unicode = 284;
},
{
glyphname = Gcommaaccent;
kernLeft = O;
kernRight = G;
lastChange = "2024-12-19 13:17:37 +0000";
layers = (
{
background = {
anchors = (
{
name = bottom;
pos = (238,-254);
},
{
name = top;
pos = (231,710);
}
);
shapes = (
{
closed = 1;
nodes = (
(263,-12,o),
(313,12,o),
(344,124,c),
(319,130,l),
(334,0,l),
(417,0,l),
(417,376,l),
(221,376,l),
(221,283,l),
(312,283,l),
(312,234,ls),
(312,126,o),
(281,81,o),
(232,81,cs),
(180,81,o),
(147,133,o),
(147,312,cs),
(147,398,ls),
(147,578,o),
(180,629,o),
(232,629,cs),
(282,629,o),
(305,580,o),
(310,453,c),
(415,456,l),
(412,651,o),
(338,722,o),
(231,722,cs),
(109,722,o),
(31,637,o),
(31,355,cs),
(31,77,o),
(100,-12,o),
(203,-12,cs)
);
},
{
closed = 1;
nodes = (
(250,-254,l),
(292,-150,l),
(292,-72,l),
(184,-72,l),
(184,-167,l),
(228,-167,l),
(200,-254,l)
);
}
);
};
layerId = "E1689EA5-A91E-47D2-BCA7-04A2C9D26D65";
shapes = (
{
alignment = -1;
ref = G;
},
{
alignment = -1;
pos = (184,0);
ref = commaaccentcomb;
}
);
width = 455;
}
);
unicode = 290;
},
{
glyphname = Gdotaccent;
kernLeft = O;
kernRight = G;
lastChange = "2024-12-19 13:17:37 +0000";
layers = (
{
background = {
anchors = (
{
name = bottom;
pos = (238,0);
},
{
name = top;
pos = (231,886);
}
);
shapes = (
{
closed = 1;
nodes = (
(263,-12,o),
(313,12,o),
(344,124,c),
(319,130,l),
(334,0,l),
(417,0,l),
(417,376,l),
(221,376,l),
(221,283,l),
(312,283,l),
(312,234,ls),
(312,126,o),
(281,81,o),
(232,81,cs),
(180,81,o),
(147,133,o),
(147,312,cs),
(147,398,ls),
(147,578,o),
(180,629,o),
(232,629,cs),
(282,629,o),
(305,580,o),
(310,453,c),
(415,456,l),
(412,651,o),
(338,722,o),
(231,722,cs),
(109,722,o),
(31,637,o),
(31,355,cs),
(31,77,o),
(100,-12,o),
(203,-12,cs)
);
},
{
closed = 1;
nodes = (
(286,780,l),
(286,886,l),
(174,886,l),
(174,780,l)
);
}
);
};
layerId = "E1689EA5-A91E-47D2-BCA7-04A2C9D26D65";
shapes = (
{
alignment = -1;
ref = G;
},
{
alignment = -1;
pos = (174,0);
ref = dotaccentcomb.case;
}
);
width = 455;
}
);
unicode = 288;
},
{
glyphname = H;
kernLeft = H;
kernRight = H;
lastChange = "2024-12-19 13:17:24 +0000";
layers = (
{
anchors = (
{
name = bottom;
pos = (228,0);
},
{
name = center;
pos = (228,355);
},
{
name = top;
pos = (228,710);
},
{
name = topleft;
pos = (13,710);
}
);
background = {
anchors = (
{
name = bottom;
pos = (228,0);
},
{
name = center;
pos = (228,355);
},
{
name = top;
pos = (228,710);
},
{
name = topleft;
pos = (13,710);
}
);
shapes = (
{
closed = 1;
nodes = (
(414,0,l),
(414,710,l),
(300,710,l),
(300,0,l)
);
},
{
closed = 1;
nodes = (
(159,0,l),
(159,710,l),
(45,710,l),
(45,0,l)
);
},
{
closed = 1;
nodes = (
(340,310,l),
(340,406,l),
(119,406,l),
(120,310,l)
);
}
);
};
layerId = "E1689EA5-A91E-47D2-BCA7-04A2C9D26D65";
shapes = (
{
closed = 1;
nodes = (
(414,0,l),
(414,710,l),
(300,710,l),
(300,0,l)
);
},
{
closed = 1;
nodes = (
(159,0,l),
(159,710,l),
(45,710,l),
(45,0,l)
);
},
{
closed = 1;
nodes = (
(340,310,l),
(340,406,l),
(119,406,l),
(120,310,l)
);
}
);
width = 458.5;
}
);
note = H;
unicode = 72;
},
{
glyphname = Hbar;
kernLeft = H;
kernRight = H;
lastChange = "2024-12-19 13:17:24 +0000";
layers = (
{
background = {
shapes = (
{
closed = 1;
nodes = (
(438,0,l),
(438,710,l),
(324,710,l),
(324,0,l)
);
},
{
closed = 1;
nodes = (
(179,0,l),
(179,710,l),
(65,710,l),
(65,0,l)
);
},
{
closed = 1;
nodes = (
(364,266,l),
(364,364,l),
(140,364,l),
(140,266,l)
);
},
{
closed = 1;
nodes = (
(491,480,l),
(491,563,l),
(12,563,l),
(12,480,l)
);
}
);
};
layerId = "E1689EA5-A91E-47D2-BCA7-04A2C9D26D65";
shapes = (
{
closed = 1;
nodes = (
(438,0,l),
(438,710,l),
(324,710,l),
(324,0,l)
);
},
{
closed = 1;
nodes = (
(179,0,l),
(179,710,l),
(65,710,l),
(65,0,l)
);
},
{
closed = 1;
nodes = (
(364,266,l),
(364,364,l),
(140,364,l),
(140,266,l)
);
},
{
closed = 1;
nodes = (
(491,480,l),
(491,563,l),
(12,563,l),
(12,480,l)
);
}
);
width = 503;
}
);
unicode = 294;
},
{
glyphname = Hcircumflex;
kernLeft = H;
kernRight = H;
lastChange = "2024-12-19 13:17:37 +0000";
layers = (
{
background = {
anchors = (
{
name = bottom;
pos = (228,0);
},
{
name = center;
pos = (228,355);
},
{
name = top;
pos = (228,889);
},
{
name = topleft;
pos = (13,710);
}
);
shapes = (
{
closed = 1;
nodes = (
(414,0,l),
(414,710,l),
(300,710,l),
(300,0,l)
);
},
{
closed = 1;
nodes = (
(159,0,l),
(159,710,l),
(45,710,l),
(45,0,l)
);
},
{
closed = 1;
nodes = (
(340,310,l),
(340,406,l),
(119,406,l),
(120,310,l)
);
},
{
closed = 1;
nodes = (
(184,768,l),
(257,875,l),
(199,875,l),
(272,768,l),
(351,768,l),
(265,889,l),
(190,889,l),
(104,768,l)
);
}
);
};
layerId = "E1689EA5-A91E-47D2-BCA7-04A2C9D26D65";
shapes = (
{
alignment = -1;
ref = H;
},
{
alignment = -1;
pos = (104,0);
ref = circumflexcomb.case;
}
);
width = 458.5;
}
);
unicode = 292;
},
{
glyphname = I;
kernLeft = H;
kernRight = H;
lastChange = "2024-12-19 13:17:24 +0000";
layers = (
{
anchors = (
{
name = bottom;
pos = (102,0);
},
{
name = ogonek;
pos = (147,0);
},
{
name = top;
pos = (102,710);
},
{
name = topleft;
pos = (25,710);
}
);
background = {
anchors = (
{
name = bottom;
pos = (102,0);
},
{
name = ogonek;
pos = (147,0);
},
{
name = top;
pos = (102,710);
},
{
name = topleft;
pos = (25,710);
}
);
shapes = (
{
closed = 1;
nodes = (
(159,0,l),
(159,710,l),
(45,710,l),
(45,0,l)
);
}
);
};
layerId = "E1689EA5-A91E-47D2-BCA7-04A2C9D26D65";
shapes = (
{
closed = 1;
nodes = (
(159,0,l),
(159,710,l),
(45,710,l),
(45,0,l)
);
}
);
width = 203;
}
);
note = I;
unicode = 73;
},
{
glyphname = IJ;
kernLeft = H;
kernRight = J;
lastChange = "2024-12-19 13:17:24 +0000";
layers = (
{
background = {
shapes = (
{
closed = 1;
nodes = (
(306,-12,o),
(384,31,o),
(384,158,cs),
(384,710,l),
(270,710,l),
(270,149,ls),
(270,96,o),
(234,83,o),
(185,83,cs),
(151,83,o),
(126,87,o),
(97,92,c),
(97,0,l),
(143,-8,o),
(174,-12,o),
(206,-12,cs)
);
},
{
closed = 1;
nodes = (
(159,212,l),
(159,710,l),
(45,710,l),
(45,212,l)
);
}
);
};
layerId = "E1689EA5-A91E-47D2-BCA7-04A2C9D26D65";
shapes = (
{
closed = 1;
nodes = (
(306,-12,o),
(384,31,o),
(384,158,cs),
(384,710,l),
(270,710,l),
(270,149,ls),
(270,96,o),
(234,83,o),
(185,83,cs),
(151,83,o),
(126,87,o),
(97,92,c),
(97,0,l),
(143,-8,o),
(174,-12,o),
(206,-12,cs)
);
},
{
closed = 1;
nodes = (
(159,212,l),
(159,710,l),
(45,710,l),
(45,212,l)
);
}
);
width = 425;
}
);
metricLeft = H;
metricRight = J;
unicode = 306;
},
{
glyphname = Iacute;
kernLeft = H;
kernRight = H;
lastChange = "2024-12-19 13:17:37 +0000";
layers = (
{
background = {
anchors = (
{
name = bottom;
pos = (102,0);
},
{
name = ogonek;
pos = (147,0);
},
{
name = top;
pos = (134,927);
},
{
name = topleft;
pos = (25,710);
}
);
shapes = (
{
closed = 1;
nodes = (
(159,0,l),
(159,710,l),
(45,710,l),
(45,0,l)
);
},
{
closed = 1;
nodes = (
(209,897,l),
(131,927,l),
(59,781,l),
(124,763,l)
);
}
);
};
layerId = "E1689EA5-A91E-47D2-BCA7-04A2C9D26D65";
shapes = (
{
alignment = -1;
ref = I;
},
{
alignment = -1;
pos = (59,0);
ref = acutecomb.case;
}
);
width = 203;
}
);
unicode = 205;
},
{
glyphname = Ibreve;
kernLeft = H;
kernRight = H;
lastChange = "2024-12-19 13:17:37 +0000";
layers = (
{
background = {
anchors = (
{
name = bottom;
pos = (102,0);
},
{
name = ogonek;
pos = (147,0);
},
{
name = top;
pos = (102,899);
},
{
name = topleft;
pos = (25,710);
}
);
shapes = (
{
closed = 1;
nodes = (
(159,0,l),
(159,710,l),
(45,710,l),
(45,0,l)
);
},
{
closed = 1;
nodes = (
(161,772,o),
(202,815,o),
(206,899,c),
(140,899,l),
(137,851,o),
(123,835,o),
(102,835,cs),
(81,835,o),
(67,851,o),
(65,899,c),
(-2,899,l),
(2,815,o),
(43,772,o),
(102,772,cs)
);
}
);
};
layerId = "E1689EA5-A91E-47D2-BCA7-04A2C9D26D65";
shapes = (
{
alignment = -1;
ref = I;
},
{
alignment = -1;
pos = (-2,0);
ref = brevecomb.case;
}
);
width = 203;
}
);
unicode = 300;
},
{
glyphname = Icircumflex;
kernLeft = H;
kernRight = H;
lastChange = "2024-12-19 13:17:37 +0000";
layers = (
{
background = {
anchors = (
{
name = bottom;
pos = (102,0);
},
{
name = ogonek;
pos = (147,0);
},
{
name = top;
pos = (103,889);
},
{
name = topleft;
pos = (25,710);
}
);
shapes = (
{
closed = 1;
nodes = (
(159,0,l),
(159,710,l),
(45,710,l),
(45,0,l)
);
},
{
closed = 1;
nodes = (
(59,768,l),
(132,875,l),
(74,875,l),
(147,768,l),
(226,768,l),
(140,889,l),
(65,889,l),
(-21,768,l)
);
}
);
};
layerId = "E1689EA5-A91E-47D2-BCA7-04A2C9D26D65";
shapes = (
{
alignment = -1;
ref = I;
},
{
alignment = -1;
pos = (-21,0);
ref = circumflexcomb.case;
}
);
width = 203;
}
);
unicode = 206;
},
{
glyphname = Idieresis;
kernLeft = H;
kernRight = H;
lastChange = "2024-12-19 13:17:37 +0000";
layers = (
{
background = {
anchors = (
{
name = bottom;
pos = (102,0);
},
{
name = ogonek;
pos = (147,0);
},
{
name = top;
pos = (103,886);
},
{
name = topleft;
pos = (25,710);
}
);
shapes = (
{
closed = 1;
nodes = (
(159,0,l),
(159,710,l),
(45,710,l),
(45,0,l)
);
},
{
closed = 1;
nodes = (
(87,780,l),
(87,886,l),
(-8,886,l),
(-8,780,l)
);
},
{
closed = 1;
nodes = (
(219,780,l),
(219,886,l),
(124,886,l),
(124,780,l)
);
}
);
};
layerId = "E1689EA5-A91E-47D2-BCA7-04A2C9D26D65";
shapes = (
{
alignment = -1;
ref = I;
},
{
alignment = -1;
pos = (-8,0);
ref = dieresiscomb.case;
}
);
width = 203;
}
);
unicode = 207;
},
{
glyphname = Idotaccent;
kernLeft = H;
kernRight = H;
lastChange = "2024-12-19 13:17:37 +0000";
layers = (
{
background = {
anchors = (
{
name = bottom;
pos = (102,0);
},
{
name = ogonek;
pos = (147,0);
},
{
name = top;
pos = (103,886);
},
{
name = topleft;
pos = (25,710);
}
);
shapes = (
{
closed = 1;
nodes = (
(159,0,l),
(159,710,l),
(45,710,l),
(45,0,l)
);
},
{
closed = 1;
nodes = (
(158,780,l),
(158,886,l),
(46,886,l),
(46,780,l)
);
}
);
};
layerId = "E1689EA5-A91E-47D2-BCA7-04A2C9D26D65";
shapes = (
{
alignment = -1;
ref = I;
},
{
alignment = -1;
pos = (46,0);
ref = dotaccentcomb.case;
}
);
width = 203;
}
);
unicode = 304;
},
{
glyphname = Igrave;
kernLeft = H;
kernRight = H;
lastChange = "2024-12-19 13:17:37 +0000";
layers = (
{
background = {
anchors = (
{
name = bottom;
pos = (102,0);
},
{
name = ogonek;
pos = (147,0);
},
{
name = top;
pos = (71,927);
},
{
name = topleft;
pos = (25,710);
}
);
shapes = (
{
closed = 1;
nodes = (
(159,0,l),
(159,710,l),
(45,710,l),
(45,0,l)
);
},
{
closed = 1;
nodes = (
(146,781,l),
(74,927,l),
(-4,897,l),
(81,763,l)
);
}
);
};
layerId = "E1689EA5-A91E-47D2-BCA7-04A2C9D26D65";
shapes = (
{
alignment = -1;
ref = I;
},
{
alignment = -1;
pos = (-4,0);
ref = gravecomb.case;
}
);
width = 203;
}
);
unicode = 204;
},
{
glyphname = Imacron;
kernLeft = H;
kernRight = H;
lastChange = "2024-12-19 13:17:37 +0000";
layers = (
{
background = {
anchors = (
{
name = bottom;
pos = (102,0);
},
{
name = ogonek;
pos = (147,0);
},
{
name = top;
pos = (102,863);
},
{
name = topleft;
pos = (25,710);
}
);
shapes = (
{
closed = 1;
nodes = (
(159,0,l),
(159,710,l),
(45,710,l),
(45,0,l)
);
},
{
closed = 1;
nodes = (
(238,792,l),
(238,863,l),
(-34,863,l),
(-34,792,l)
);
}
);
};
layerId = "E1689EA5-A91E-47D2-BCA7-04A2C9D26D65";
shapes = (
{
alignment = -1;
ref = I;
},
{
alignment = -1;
pos = (-34,0);
ref = macroncomb.case;
}
);
width = 203;
}
);
unicode = 298;
},
{
glyphname = Iogonek;
kernLeft = H;
kernRight = H;
lastChange = "2024-12-19 13:17:37 +0000";
layers = (
{
background = {
anchors = (
{
name = bottom;
pos = (102,0);
},
{
name = ogonek;
pos = (147,0);
},
{
name = top;
pos = (102,710);
},
{
name = topleft;
pos = (25,710);
}
);
shapes = (
{
closed = 1;
nodes = (
(159,0,l),
(159,710,l),
(45,710,l),
(45,0,l)
);
},
{
closed = 1;
nodes = (
(156,-98,l),
(130,-101,o),
(101,-90,o),
(101,-61,cs),
(102,-36,o),
(117,-14,o),
(135,0,c),
(72,12,l),
(72,2,l),
(46,-21,o),
(27,-50,o),
(27,-84,cs),
(27,-151,o),
(97,-170,o),
(156,-161,c)
);
}
);
};
layerId = "E1689EA5-A91E-47D2-BCA7-04A2C9D26D65";
shapes = (
{
alignment = -1;
ref = I;
},
{
alignment = -1;
pos = (27,0);
ref = ogonekcomb;
}
);
width = 203;
}
);
unicode = 302;
},
{
glyphname = Itilde;
kernLeft = H;
kernRight = H;
lastChange = "2024-12-19 13:17:37 +0000";
layers = (
{
background = {
anchors = (
{
name = bottom;
pos = (102,0);
},
{
name = ogonek;
pos = (147,0);
},
{
name = top;
pos = (102,878);
},
{
name = topleft;
pos = (25,710);
}
);
shapes = (
{
closed = 1;
nodes = (
(159,0,l),
(159,710,l),
(45,710,l),
(45,0,l)
);
},
{
closed = 1;
nodes = (
(188,775,o),
(219,801,o),
(221,878,c),
(164,878,l),
(163,855,o),
(157,841,o),
(141,841,cs),
(121,841,o),
(97,878,o),
(52,878,cs),
(16,878,o),
(-15,852,o),
(-17,777,c),
(40,777,l),
(42,800,o),
(47,813,o),
(64,813,cs),
(83,813,o),
(107,775,o),
(151,775,cs)
);
}
);
};
layerId = "E1689EA5-A91E-47D2-BCA7-04A2C9D26D65";
shapes = (
{
alignment = -1;
ref = I;
},
{
alignment = -1;
pos = (-17,0);
ref = tildecomb.case;
}
);
width = 203;
}
);
unicode = 296;
},
{
glyphname = J;
kernLeft = J;
kernRight = J;
lastChange = "2024-12-19 13:17:24 +0000";
layers = (
{
anchors = (
{
name = bottom;
pos = (99,0);
},
{
name = top;
pos = (199,710);
}
);
background = {
anchors = (
{
name = bottom;
pos = (99,0);
},
{
name = top;
pos = (199,710);
}
);
shapes = (
{
closed = 1;
nodes = (
(187,-12,o),
(259,31,o),
(259,157,cs),
(259,710,l),
(145,710,l),
(145,153,ls),
(145,100,o),
(118,83,o),
(78,83,cs),
(52,83,o),
(35,87,o),
(13,92,c),
(13,0,l),
(48,-8,o),
(73,-12,o),
(100,-12,cs)
);
}
);
};
layerId = "E1689EA5-A91E-47D2-BCA7-04A2C9D26D65";
shapes = (
{
closed = 1;
nodes = (
(187,-12,o),
(259,31,o),
(259,157,cs),
(259,710,l),
(145,710,l),
(145,153,ls),
(145,100,o),
(118,83,o),
(78,83,cs),
(52,83,o),
(35,87,o),
(13,92,c),
(13,0,l),
(48,-8,o),
(73,-12,o),
(100,-12,cs)
);
}
);
width = 300;
}
);
note = J;
unicode = 74;
},
{
glyphname = Jcircumflex;
kernLeft = J;
kernRight = J;
lastChange = "2024-12-19 13:17:37 +0000";
layers = (
{
background = {
anchors = (
{
name = bottom;
pos = (99,0);
},
{
name = top;
pos = (199,889);
}
);
shapes = (
{
closed = 1;
nodes = (
(187,-12,o),
(259,31,o),
(259,157,cs),
(259,710,l),
(145,710,l),
(145,153,ls),
(145,100,o),
(118,83,o),
(78,83,cs),
(52,83,o),
(35,87,o),
(13,92,c),
(13,0,l),
(48,-8,o),
(73,-12,o),
(100,-12,cs)
);
},
{
closed = 1;
nodes = (
(155,768,l),
(228,875,l),
(170,875,l),
(243,768,l),
(322,768,l),
(236,889,l),
(161,889,l),
(75,768,l)
);
}
);
};
layerId = "E1689EA5-A91E-47D2-BCA7-04A2C9D26D65";
shapes = (
{
alignment = -1;
ref = J;
},
{
alignment = -1;
pos = (75,0);
ref = circumflexcomb.case;
}
);
width = 301;
}
);
unicode = 308;
},
{
glyphname = K;
kernLeft = H;
kernRight = K;
lastChange = "2024-12-19 13:17:24 +0000";
layers = (
{
anchors = (
{
name = bottom;
pos = (229,0);
},
{
name = top;
pos = (221,710);
}
);
background = {
anchors = (
{
name = bottom;
pos = (229,0);
},
{
name = top;
pos = (221,710);
}
);
shapes = (
{
closed = 1;
nodes = (
(224,358,l),
(253,349,l),
(408,710,l),
(298,710,l),
(108,214,l),
(150,164,l)
);
},
{
closed = 1;
nodes = (
(158,0,l),
(158,710,l),
(45,710,l),
(45,0,l)
);
},
{
closed = 1;
nodes = (
(417,0,l),
(279,457,l),
(188,403,l),
(300,0,l)
);
}
);
};
layerId = "E1689EA5-A91E-47D2-BCA7-04A2C9D26D65";
shapes = (
{
closed = 1;
nodes = (
(224,358,l),
(253,349,l),
(408,710,l),
(298,710,l),
(108,214,l),
(150,164,l)
);
},
{
closed = 1;
nodes = (
(158,0,l),
(158,710,l),
(45,710,l),
(45,0,l)
);
},
{
closed = 1;
nodes = (
(417,0,l),
(279,457,l),
(188,403,l),
(300,0,l)
);
}
);
width = 419;
}
);
note = K;
unicode = 75;
},
{
glyphname = Kcommaaccent;
kernLeft = H;
kernRight = K;
lastChange = "2024-12-19 13:17:37 +0000";
layers = (
{
background = {
anchors = (
{
name = bottom;
pos = (229,-254);
},
{
name = top;
pos = (221,710);
}
);
shapes = (
{
closed = 1;
nodes = (
(224,358,l),
(253,349,l),
(408,710,l),
(298,710,l),
(108,214,l),
(150,164,l)
);
},
{
closed = 1;
nodes = (
(158,0,l),
(158,710,l),
(45,710,l),
(45,0,l)
);
},
{
closed = 1;
nodes = (
(417,0,l),
(279,457,l),
(188,403,l),
(300,0,l)
);
},
{
closed = 1;
nodes = (
(241,-254,l),
(283,-150,l),
(283,-72,l),
(175,-72,l),
(175,-167,l),
(219,-167,l),
(191,-254,l)
);
}
);
};
layerId = "E1689EA5-A91E-47D2-BCA7-04A2C9D26D65";
shapes = (
{
alignment = -1;
ref = K;
},
{
alignment = -1;
pos = (175,0);
ref = commaaccentcomb;
}
);
width = 419;
}
);
unicode = 310;
},
{
glyphname = L;
kernLeft = H;
kernRight = L;
lastChange = "2024-12-19 13:17:24 +0000";
layers = (
{
anchors = (
{
name = bottom;
pos = (182,0);
},
{
name = center;
pos = (243,374);
},
{
name = top;
pos = (109,710);
},
{
name = topright;
pos = (351,710);
}
);
background = {
anchors = (
{
name = bottom;
pos = (182,0);
},
{
name = center;
pos = (243,374);
},
{
name = top;
pos = (109,710);
},
{
name = topright;
pos = (351,710);
}
);
shapes = (
{
closed = 1;
nodes = (
(361,0,l),
(361,96,l),
(139,96,l),
(159,68,l),
(159,710,l),
(45,710,l),
(45,0,l)
);
}
);
};
layerId = "E1689EA5-A91E-47D2-BCA7-04A2C9D26D65";
shapes = (
{
closed = 1;
nodes = (
(361,0,l),
(361,96,l),
(139,96,l),
(159,68,l),
(159,710,l),
(45,710,l),
(45,0,l)
);
}
);
width = 373.5;
}
);
note = L;
unicode = 76;
},
{
glyphname = Lacute;
kernLeft = H;
kernRight = L;
lastChange = "2024-12-19 13:17:37 +0000";
layers = (
{
background = {
anchors = (
{
name = bottom;
pos = (182,0);
},
{
name = center;
pos = (243,374);
},
{
name = top;
pos = (141,927);
},
{
name = topright;
pos = (351,710);
}
);
shapes = (
{
closed = 1;
nodes = (
(361,0,l),
(361,96,l),
(139,96,l),
(159,68,l),
(159,710,l),
(45,710,l),
(45,0,l)
);
},
{
closed = 1;
nodes = (
(216,897,l),
(138,927,l),
(66,781,l),
(131,763,l)
);
}
);
};
layerId = "E1689EA5-A91E-47D2-BCA7-04A2C9D26D65";
shapes = (
{
alignment = -1;
ref = L;
},
{
alignment = -1;
pos = (66,0);
ref = acutecomb.case;
}
);
width = 373.5;
}
);
unicode = 313;
},
{
glyphname = Lcaron;
kernLeft = H;
kernRight = L;
lastChange = "2024-12-19 13:17:37 +0000";
layers = (
{
background = {
anchors = (
{
name = bottom;
pos = (182,0);
},
{
name = center;
pos = (243,374);
},
{
name = top;
pos = (109,710);
},
{
name = topright;
pos = (351,710);
}
);
shapes = (
{
closed = 1;
nodes = (
(268,503,l),
(294,710,l),
(212,710,l),
(202,503,l)
);
},
{
closed = 1;
nodes = (
(361,0,l),
(361,96,l),
(139,96,l),
(159,68,l),
(159,710,l),
(45,710,l),
(45,0,l)
);
}
);
};
layerId = "E1689EA5-A91E-47D2-BCA7-04A2C9D26D65";
shapes = (
{
closed = 1;
nodes = (
(268,503,l),
(294,710,l),
(212,710,l),
(202,503,l)
);
},
{
alignment = -1;
ref = L;
}
);
width = 374;
}
);
unicode = 317;
},
{
glyphname = Lcommaaccent;
kernLeft = H;
kernRight = L;
lastChange = "2024-12-19 13:17:37 +0000";
layers = (
{
background = {
anchors = (
{
name = bottom;
pos = (182,-254);
},
{
name = center;
pos = (243,374);
},
{
name = top;
pos = (109,710);
},
{
name = topright;
pos = (351,710);
}
);
shapes = (
{
closed = 1;
nodes = (
(361,0,l),
(361,96,l),
(139,96,l),
(159,68,l),
(159,710,l),
(45,710,l),
(45,0,l)
);
},
{
closed = 1;
nodes = (
(194,-254,l),
(236,-150,l),
(236,-72,l),
(128,-72,l),
(128,-167,l),
(172,-167,l),
(144,-254,l)
);
}
);
};
layerId = "E1689EA5-A91E-47D2-BCA7-04A2C9D26D65";
shapes = (
{
alignment = -1;
ref = L;
},
{
alignment = -1;
pos = (128,0);
ref = commaaccentcomb;
}
);
width = 373.5;
}
);
unicode = 315;
},
{
glyphname = Ldot;
kernLeft = H;
kernRight = L;
lastChange = "2024-12-19 13:17:51 +0000";
layers = (
{
background = {
anchors = (
{
name = bottom;
pos = (182,0);
},
{
name = center;
pos = (243,374);
},
{
name = top;
pos = (109,710);
},
{
name = topright;
pos = (351,710);
}
);
shapes = (
{
closed = 1;
nodes = (
(361,0,l),
(361,96,l),
(139,96,l),
(159,68,l),
(159,710,l),
(45,710,l),
(45,0,l)
);
},
{
closed = 1;
nodes = (
(351,332,l),
(351,441,l),
(240,441,l),
(240,332,l)
);
}
);
};
layerId = "E1689EA5-A91E-47D2-BCA7-04A2C9D26D65";
shapes = (
{
alignment = -1;
ref = L;
},
{
alignment = -1;
pos = (203,40);
ref = periodcentered.case;
}
);
width = 378;
}
);
unicode = 319;
},
{
glyphname = Lslash;
kernRight = L;
lastChange = "2024-12-19 13:17:37 +0000";
layers = (
{
background = {
anchors = (
{
name = bottom;
pos = (213,0);
},
{
name = center;
pos = (274,374);
},
{
name = top;
pos = (140,710);
},
{
name = topright;
pos = (382,710);
}
);
shapes = (
{
closed = 1;
nodes = (
(285,386,l),
(285,486,l),
(16,338,l),
(16,238,l)
);
},
{
closed = 1;
nodes = (
(392,0,l),
(392,96,l),
(170,96,l),
(190,68,l),
(190,710,l),
(76,710,l),
(76,0,l)
);
}
);
};
layerId = "E1689EA5-A91E-47D2-BCA7-04A2C9D26D65";
shapes = (
{
closed = 1;
nodes = (
(285,386,l),
(285,486,l),
(16,338,l),
(16,238,l)
);
},
{
alignment = -1;
pos = (31,0);
ref = L;
}
);
width = 404.5;
}
);
unicode = 321;
},
{
glyphname = M;
kernLeft = H;
kernRight = H;
lastChange = "2024-12-19 13:17:24 +0000";
layers = (
{
anchors = (
{
name = bottom;
pos = (301,0);
},
{
name = top;
pos = (301,710);
}
);
background = {
anchors = (
{
name = bottom;
pos = (301,0);
},
{
name = top;
pos = (301,710);
}
);
shapes = (
{
closed = 1;
nodes = (
(144,0,l),
(144,606,l),
(148,606,l),
(241,0,l),
(355,0,l),
(448,607,l),
(451,606,l),
(451,0,l),
(554,0,l),
(554,710,l),
(382,710,l),
(303,141,l),
(301,141,l),
(222,710,l),
(46,710,l),
(44,0,l)
);
}
);
};
layerId = "E1689EA5-A91E-47D2-BCA7-04A2C9D26D65";
shapes = (
{
closed = 1;
nodes = (
(144,0,l),
(144,606,l),
(148,606,l),
(241,0,l),
(355,0,l),
(448,607,l),
(451,606,l),
(451,0,l),
(554,0,l),
(554,710,l),
(382,710,l),
(303,141,l),
(301,141,l),
(222,710,l),
(46,710,l),
(44,0,l)
);
}
);
width = 598.5;
}
);
note = M;
unicode = 77;
},
{
glyphname = N;
kernLeft = H;
kernRight = H;
lastChange = "2024-12-19 13:17:24 +0000";
layers = (
{
anchors = (
{
name = bottom;
pos = (221,0);
},
{
name = top;
pos = (221,710);
}
);
background = {
anchors = (
{
name = bottom;
pos = (221,0);
},
{
name = top;
pos = (221,710);
}
);
shapes = (
{
closed = 1;
nodes = (
(143,0,l),
(143,469,l),
(144,469,l),
(298,0,l),
(397,0,l),
(397,710,l),
(299,710,l),
(299,278,l),
(298,278,l),
(158,710,l),
(45,710,l),
(45,0,l)
);
}
);
};
layerId = "E1689EA5-A91E-47D2-BCA7-04A2C9D26D65";
shapes = (
{
closed = 1;
nodes = (
(143,0,l),
(143,469,l),
(144,469,l),
(298,0,l),
(397,0,l),
(397,710,l),
(299,710,l),
(299,278,l),
(298,278,l),
(158,710,l),
(45,710,l),
(45,0,l)
);
}
);
width = 441.5;
}
);
note = N;
unicode = 78;
},
{
glyphname = Nacute;
kernLeft = H;
kernRight = H;
lastChange = "2024-12-19 13:17:37 +0000";
layers = (
{
background = {
anchors = (
{
name = bottom;
pos = (221,0);
},
{
name = top;
pos = (253,927);
}
);
shapes = (
{
closed = 1;
nodes = (
(143,0,l),
(143,469,l),
(144,469,l),
(298,0,l),
(397,0,l),
(397,710,l),
(299,710,l),
(299,278,l),
(298,278,l),
(158,710,l),
(45,710,l),
(45,0,l)
);
},
{
closed = 1;
nodes = (
(328,897,l),
(250,927,l),
(178,781,l),
(243,763,l)
);
}
);
};
layerId = "E1689EA5-A91E-47D2-BCA7-04A2C9D26D65";
shapes = (
{
alignment = -1;
ref = N;
},
{
alignment = -1;
pos = (178,0);
ref = acutecomb.case;
}
);
width = 441.5;
}
);
unicode = 323;
},
{
glyphname = Ncaron;
kernLeft = H;
kernRight = H;
lastChange = "2024-12-19 13:17:37 +0000";
layers = (
{
background = {
anchors = (
{
name = bottom;
pos = (221,0);
},
{
name = top;
pos = (222,889);
}
);
shapes = (
{
closed = 1;
nodes = (
(143,0,l),
(143,469,l),
(144,469,l),
(298,0,l),
(397,0,l),
(397,710,l),
(299,710,l),
(299,278,l),
(298,278,l),
(158,710,l),
(45,710,l),
(45,0,l)
);
},
{
closed = 1;
nodes = (
(259,768,l),
(345,889,l),
(266,889,l),
(193,782,l),
(251,782,l),
(178,889,l),
(98,889,l),
(184,768,l)
);
}
);
};
layerId = "E1689EA5-A91E-47D2-BCA7-04A2C9D26D65";
shapes = (
{
alignment = -1;
ref = N;
},
{
alignment = -1;
pos = (98,0);
ref = caroncomb.case;
}
);
width = 441.5;
}
);
unicode = 327;
},
{
glyphname = Ncommaaccent;
kernLeft = H;
kernRight = H;
lastChange = "2024-12-19 13:17:37 +0000";
layers = (
{
background = {
anchors = (
{
name = bottom;
pos = (221,-254);
},
{
name = top;
pos = (221,710);
}
);
shapes = (
{
closed = 1;
nodes = (
(143,0,l),
(143,469,l),
(144,469,l),
(298,0,l),
(397,0,l),
(397,710,l),
(299,710,l),
(299,278,l),
(298,278,l),
(158,710,l),
(45,710,l),
(45,0,l)
);
},
{
closed = 1;
nodes = (
(233,-254,l),
(275,-150,l),
(275,-72,l),
(167,-72,l),
(167,-167,l),
(211,-167,l),
(183,-254,l)
);
}
);
};
layerId = "E1689EA5-A91E-47D2-BCA7-04A2C9D26D65";
shapes = (
{
alignment = -1;
ref = N;
},
{
alignment = -1;
pos = (167,0);
ref = commaaccentcomb;
}
);
width = 441.5;
}
);
unicode = 325;
},
{
glyphname = Ntilde;
kernLeft = H;
kernRight = H;
lastChange = "2024-12-19 13:17:37 +0000";
layers = (
{
background = {
anchors = (
{
name = bottom;
pos = (221,0);
},
{
name = top;
pos = (221,878);
}
);
shapes = (
{
closed = 1;
nodes = (
(143,0,l),
(143,469,l),
(144,469,l),
(298,0,l),
(397,0,l),
(397,710,l),
(299,710,l),
(299,278,l),
(298,278,l),
(158,710,l),
(45,710,l),
(45,0,l)
);
},
{
closed = 1;
nodes = (
(307,775,o),
(338,801,o),
(340,878,c),
(283,878,l),
(282,855,o),
(276,841,o),
(260,841,cs),
(240,841,o),
(216,878,o),
(171,878,cs),
(135,878,o),
(104,852,o),
(102,777,c),
(159,777,l),
(161,800,o),
(166,813,o),
(183,813,cs),
(202,813,o),
(226,775,o),
(270,775,cs)
);
}
);
};
layerId = "E1689EA5-A91E-47D2-BCA7-04A2C9D26D65";
shapes = (
{
alignment = -1;
ref = N;
},
{
alignment = -1;
pos = (102,0);
ref = tildecomb.case;
}
);
width = 441.5;
}
);
unicode = 209;
},
{
glyphname = Eng;
kernLeft = H;
kernRight = H;
lastChange = "2024-12-19 13:17:24 +0000";
layers = (
{
background = {
shapes = (
{
closed = 1;
nodes = (
(339,-171,o),
(400,-129,o),
(400,-10,cs),
(400,710,l),
(301,710,l),
(301,283,l),
(300,283,l),
(159,710,l),
(45,710,l),
(45,0,l),
(144,0,l),
(144,464,l),
(145,464,l),
(300,0,l),
(291,88,l),
(291,-11,ls),
(291,-60,o),
(262,-75,o),
(220,-75,cs),
(211,-75,o),
(197,-74,o),
(182,-72,c),
(182,-165,l),
(203,-169,o),
(220,-171,o),
(245,-171,cs)
);
}
);
};
layerId = "E1689EA5-A91E-47D2-BCA7-04A2C9D26D65";
shapes = (
{
closed = 1;
nodes = (
(339,-171,o),
(400,-129,o),
(400,-10,cs),
(400,710,l),
(301,710,l),
(301,283,l),
(300,283,l),
(159,710,l),
(45,710,l),
(45,0,l),
(144,0,l),
(144,464,l),
(145,464,l),
(300,0,l),
(291,88,l),
(291,-11,ls),
(291,-60,o),
(262,-75,o),
(220,-75,cs),
(211,-75,o),
(197,-74,o),
(182,-72,c),
(182,-165,l),
(203,-169,o),
(220,-171,o),
(245,-171,cs)
);
}
);
width = 444.5;
}
);
unicode = 330;
},
{
glyphname = O;
kernLeft = O;
kernRight = O;
lastChange = "2024-12-19 13:17:24 +0000";
layers = (
{
anchors = (
{
name = bottom;
pos = (234,0);
},
{
name = center;
pos = (234,355);
},
{
name = ogonek;
pos = (421,10);
},
{
name = top;
pos = (234,710);
},
{
name = topleft;
pos = (20,710);
},
{
name = topright;
pos = (448,710);
}
);
background = {
anchors = (
{
name = bottom;
pos = (234,0);
},
{
name = center;
pos = (234,355);
},
{
name = ogonek;
pos = (421,10);
},
{
name = top;
pos = (234,710);
},
{
name = topleft;
pos = (20,710);
},
{
name = topright;
pos = (448,710);
}
);
shapes = (
{
closed = 1;
nodes = (
(363,-12,o),
(438,78,o),
(438,355,cs),
(438,634,o),
(363,722,o),
(234,722,cs),
(104,722,o),
(30,634,o),
(30,355,cs),
(30,78,o),
(104,-12,o),
(234,-12,cs)
);
},
{
closed = 1;
nodes = (
(178,81,o),
(147,134,o),
(147,314,cs),
(147,397,ls),
(147,576,o),
(178,629,o),
(234,629,cs),
(289,629,o),
(321,577,o),
(321,397,cs),
(321,314,ls),
(321,133,o),
(289,81,o),
(234,81,cs)
);
}
);
};
layerId = "E1689EA5-A91E-47D2-BCA7-04A2C9D26D65";
shapes = (
{
closed = 1;
nodes = (
(363,-12,o),
(438,78,o),
(438,355,cs),
(438,634,o),
(363,722,o),
(234,722,cs),
(104,722,o),
(30,634,o),
(30,355,cs),
(30,78,o),
(104,-12,o),
(234,-12,cs)
);
},
{
closed = 1;
nodes = (
(178,81,o),
(147,134,o),
(147,314,cs),
(147,397,ls),
(147,576,o),
(178,629,o),
(234,629,cs),
(289,629,o),
(321,577,o),
(321,397,cs),
(321,314,ls),
(321,133,o),
(289,81,o),
(234,81,cs)
);
}
);
width = 467.5;
}
);
note = O;
unicode = 79;
},
{
glyphname = Oacute;
kernLeft = O;
kernRight = O;
lastChange = "2024-12-19 13:17:37 +0000";
layers = (
{
background = {
anchors = (
{
name = bottom;
pos = (234,0);
},
{
name = center;
pos = (234,355);
},
{
name = ogonek;
pos = (421,10);
},
{
name = top;
pos = (266,927);
},
{
name = topleft;
pos = (20,710);
},
{
name = topright;
pos = (448,710);
}
);
shapes = (
{
closed = 1;
nodes = (
(363,-12,o),
(438,78,o),
(438,355,cs),
(438,634,o),
(363,722,o),
(234,722,cs),
(104,722,o),
(30,634,o),
(30,355,cs),
(30,78,o),
(104,-12,o),
(234,-12,cs)
);
},
{
closed = 1;
nodes = (
(178,81,o),
(147,134,o),
(147,314,cs),
(147,397,ls),
(147,576,o),
(178,629,o),
(234,629,cs),
(289,629,o),
(321,577,o),
(321,397,cs),
(321,314,ls),
(321,133,o),
(289,81,o),
(234,81,cs)
);
},
{
closed = 1;
nodes = (
(341,897,l),
(263,927,l),
(191,781,l),
(256,763,l)
);
}
);
};
layerId = "E1689EA5-A91E-47D2-BCA7-04A2C9D26D65";
shapes = (
{
alignment = -1;
ref = O;
},
{
alignment = -1;
pos = (191,0);
ref = acutecomb.case;
}
);
width = 467.5;
}
);
unicode = 211;
},
{
glyphname = Obreve;
kernLeft = O;
kernRight = O;
lastChange = "2024-12-19 13:17:37 +0000";
layers = (
{
background = {
anchors = (
{
name = bottom;
pos = (234,0);
},
{
name = center;
pos = (234,355);
},
{
name = ogonek;
pos = (421,10);
},
{
name = top;
pos = (234,899);
},
{
name = topleft;
pos = (20,710);
},
{
name = topright;
pos = (448,710);
}
);
shapes = (
{
closed = 1;
nodes = (
(363,-12,o),
(438,78,o),
(438,355,cs),
(438,634,o),
(363,722,o),
(234,722,cs),
(104,722,o),
(30,634,o),
(30,355,cs),
(30,78,o),
(104,-12,o),
(234,-12,cs)
);
},
{
closed = 1;
nodes = (
(178,81,o),
(147,134,o),
(147,314,cs),
(147,397,ls),
(147,576,o),
(178,629,o),
(234,629,cs),
(289,629,o),
(321,577,o),
(321,397,cs),
(321,314,ls),
(321,133,o),
(289,81,o),
(234,81,cs)
);
},
{
closed = 1;
nodes = (
(293,772,o),
(334,815,o),
(338,899,c),
(272,899,l),
(269,851,o),
(255,835,o),
(234,835,cs),
(213,835,o),
(199,851,o),
(197,899,c),
(130,899,l),
(134,815,o),
(175,772,o),
(234,772,cs)
);
}
);
};
layerId = "E1689EA5-A91E-47D2-BCA7-04A2C9D26D65";
shapes = (
{
alignment = -1;
ref = O;
},
{
alignment = -1;
pos = (130,0);
ref = brevecomb.case;
}
);
width = 467.5;
}
);
unicode = 334;
},
{
glyphname = Ocircumflex;
kernLeft = O;
kernRight = O;
lastChange = "2024-12-19 13:17:37 +0000";
layers = (
{
background = {
anchors = (
{
name = bottom;
pos = (234,0);
},
{
name = center;
pos = (234,355);
},
{
name = ogonek;
pos = (421,10);
},
{
name = top;
pos = (235,889);
},
{
name = topleft;
pos = (20,710);
},
{
name = topright;
pos = (448,710);
}
);
shapes = (
{
closed = 1;
nodes = (
(363,-12,o),
(438,78,o),
(438,355,cs),
(438,634,o),
(363,722,o),
(234,722,cs),
(104,722,o),
(30,634,o),
(30,355,cs),
(30,78,o),
(104,-12,o),
(234,-12,cs)
);
},
{
closed = 1;
nodes = (
(178,81,o),
(147,134,o),
(147,314,cs),
(147,397,ls),
(147,576,o),
(178,629,o),
(234,629,cs),
(289,629,o),
(321,577,o),
(321,397,cs),
(321,314,ls),
(321,133,o),
(289,81,o),
(234,81,cs)
);
},
{
closed = 1;
nodes = (
(191,768,l),
(264,875,l),
(206,875,l),
(279,768,l),
(358,768,l),
(272,889,l),
(197,889,l),
(111,768,l)
);
}
);
};
layerId = "E1689EA5-A91E-47D2-BCA7-04A2C9D26D65";
shapes = (
{
alignment = -1;
ref = O;
},
{
alignment = -1;
pos = (111,0);
ref = circumflexcomb.case;
}
);
width = 467.5;
}
);
unicode = 212;
},
{
glyphname = Odieresis;
kernLeft = O;
kernRight = O;
lastChange = "2024-12-19 13:17:37 +0000";
layers = (
{
background = {
anchors = (
{
name = bottom;
pos = (234,0);
},
{
name = center;
pos = (234,355);
},
{
name = ogonek;
pos = (421,10);
},
{
name = top;
pos = (235,886);
},
{
name = topleft;
pos = (20,710);
},
{
name = topright;
pos = (448,710);
}
);
shapes = (
{
closed = 1;
nodes = (
(363,-12,o),
(438,78,o),
(438,355,cs),
(438,634,o),
(363,722,o),
(234,722,cs),
(104,722,o),
(30,634,o),
(30,355,cs),
(30,78,o),
(104,-12,o),
(234,-12,cs)
);
},
{
closed = 1;
nodes = (
(178,81,o),
(147,134,o),
(147,314,cs),
(147,397,ls),
(147,576,o),
(178,629,o),
(234,629,cs),
(289,629,o),
(321,577,o),
(321,397,cs),
(321,314,ls),
(321,133,o),
(289,81,o),
(234,81,cs)
);
},
{
closed = 1;
nodes = (
(219,780,l),
(219,886,l),
(124,886,l),
(124,780,l)
);
},
{
closed = 1;
nodes = (
(351,780,l),
(351,886,l),
(256,886,l),
(256,780,l)
);
}
);
};
layerId = "E1689EA5-A91E-47D2-BCA7-04A2C9D26D65";
shapes = (
{
alignment = -1;
ref = O;
},
{
alignment = -1;
pos = (124,0);
ref = dieresiscomb.case;
}
);
width = 467.5;
}
);
unicode = 214;
},
{
glyphname = Ograve;
kernLeft = O;
kernRight = O;
lastChange = "2024-12-19 13:17:37 +0000";
layers = (
{
background = {
anchors = (
{
name = bottom;
pos = (234,0);
},
{
name = center;
pos = (234,355);
},
{
name = ogonek;
pos = (421,10);
},
{
name = top;
pos = (203,927);
},
{
name = topleft;
pos = (20,710);
},
{
name = topright;
pos = (448,710);
}
);
shapes = (
{
closed = 1;
nodes = (
(363,-12,o),
(438,78,o),
(438,355,cs),
(438,634,o),
(363,722,o),
(234,722,cs),
(104,722,o),
(30,634,o),
(30,355,cs),
(30,78,o),
(104,-12,o),
(234,-12,cs)
);
},
{
closed = 1;
nodes = (
(178,81,o),
(147,134,o),
(147,314,cs),
(147,397,ls),
(147,576,o),
(178,629,o),
(234,629,cs),
(289,629,o),
(321,577,o),
(321,397,cs),
(321,314,ls),
(321,133,o),
(289,81,o),
(234,81,cs)
);
},
{
closed = 1;
nodes = (
(278,781,l),
(206,927,l),
(128,897,l),
(213,763,l)
);
}
);
};
layerId = "E1689EA5-A91E-47D2-BCA7-04A2C9D26D65";
shapes = (
{
alignment = -1;
ref = O;
},
{
alignment = -1;
pos = (128,0);
ref = gravecomb.case;
}
);
width = 467.5;
}
);
unicode = 210;
},
{
glyphname = Ohungarumlaut;
kernLeft = O;
kernRight = O;
lastChange = "2024-12-19 13:17:37 +0000";
layers = (
{
background = {
anchors = (
{
name = bottom;
pos = (234,0);
},
{
name = center;
pos = (234,355);
},
{
name = ogonek;
pos = (421,10);
},
{
name = top;
pos = (266,927);
},
{
name = topleft;
pos = (20,710);
},
{
name = topright;
pos = (448,710);
}
);
shapes = (
{
closed = 1;
nodes = (
(363,-12,o),
(438,78,o),
(438,355,cs),
(438,634,o),
(363,722,o),
(234,722,cs),
(104,722,o),
(30,634,o),
(30,355,cs),
(30,78,o),
(104,-12,o),
(234,-12,cs)
);
},
{
closed = 1;
nodes = (
(178,81,o),
(147,134,o),
(147,314,cs),
(147,397,ls),
(147,576,o),
(178,629,o),
(234,629,cs),
(289,629,o),
(321,577,o),
(321,397,cs),
(321,314,ls),
(321,133,o),
(289,81,o),
(234,81,cs)
);
},
{
closed = 1;
nodes = (
(272,897,l),
(194,927,l),
(122,781,l),
(187,763,l)
);
},
{
closed = 1;
nodes = (
(409,897,l),
(332,927,l),
(250,781,l),
(314,763,l)
);
}
);
};
layerId = "E1689EA5-A91E-47D2-BCA7-04A2C9D26D65";
shapes = (
{
alignment = -1;
ref = O;
},
{
alignment = -1;
pos = (122,0);
ref = hungarumlautcomb.case;
}
);
width = 467.5;
}
);
unicode = 336;
},
{
glyphname = Omacron;
kernLeft = O;
kernRight = O;
lastChange = "2024-12-19 13:17:37 +0000";
layers = (
{
background = {
anchors = (
{
name = bottom;
pos = (234,0);
},
{
name = center;
pos = (234,355);
},
{
name = ogonek;
pos = (421,10);
},
{
name = top;
pos = (234,863);
},
{
name = topleft;
pos = (20,710);
},
{
name = topright;
pos = (448,710);
}
);
shapes = (
{
closed = 1;
nodes = (
(363,-12,o),
(438,78,o),
(438,355,cs),
(438,634,o),
(363,722,o),
(234,722,cs),
(104,722,o),
(30,634,o),
(30,355,cs),
(30,78,o),
(104,-12,o),
(234,-12,cs)
);
},
{
closed = 1;
nodes = (
(178,81,o),
(147,134,o),
(147,314,cs),
(147,397,ls),
(147,576,o),
(178,629,o),
(234,629,cs),
(289,629,o),
(321,577,o),
(321,397,cs),
(321,314,ls),
(321,133,o),
(289,81,o),
(234,81,cs)
);
},
{
closed = 1;
nodes = (
(370,792,l),
(370,863,l),
(98,863,l),
(98,792,l)
);
}
);
};
layerId = "E1689EA5-A91E-47D2-BCA7-04A2C9D26D65";
shapes = (
{
alignment = -1;
ref = O;
},
{
alignment = -1;
pos = (98,0);
ref = macroncomb.case;
}
);
width = 467.5;
}
);
unicode = 332;
},
{
glyphname = Oslash;
kernLeft = O;
kernRight = O;
lastChange = "2024-12-19 13:17:24 +0000";
layers = (
{
anchors = (
{
name = bottom;
pos = (236,0);
},
{
name = top;
pos = (236,710);
}
);
background = {
anchors = (
{
name = bottom;
pos = (236,0);
},
{
name = top;
pos = (236,710);
}
);
shapes = (
{
closed = 1;
nodes = (
(366,-12,o),
(443,77,o),
(443,355,cs),
(443,634,o),
(366,722,o),
(236,722,cs),
(106,722,o),
(30,634,o),
(30,355,cs),
(30,77,o),
(106,-12,o),
(236,-12,cs)
);
},
{
closed = 1;
nodes = (
(178,82,o),
(146,134,o),
(146,294,cs),
(146,397,ls),
(146,576,o),
(178,628,o),
(236,628,cs),
(294,628,o),
(327,577,o),
(327,417,cs),
(327,314,ls),
(327,134,o),
(294,82,o),
(236,82,cs)
);
},
{
closed = 1;
nodes = (
(429,690,l),
(353,722,l),
(43,21,l),
(119,-12,l)
);
}
);
};
layerId = "E1689EA5-A91E-47D2-BCA7-04A2C9D26D65";
shapes = (
{
closed = 1;
nodes = (
(366,-12,o),
(443,77,o),
(443,355,cs),
(443,634,o),
(366,722,o),
(236,722,cs),
(106,722,o),
(30,634,o),
(30,355,cs),
(30,77,o),
(106,-12,o),
(236,-12,cs)
);
},
{
closed = 1;
nodes = (
(178,82,o),
(146,134,o),
(146,294,cs),
(146,397,ls),
(146,576,o),
(178,628,o),
(236,628,cs),
(294,628,o),
(327,577,o),
(327,417,cs),
(327,314,ls),
(327,134,o),
(294,82,o),
(236,82,cs)
);
},
{
closed = 1;
nodes = (
(429,690,l),
(353,722,l),
(43,21,l),
(119,-12,l)
);
}
);
width = 472;
}
);
unicode = 216;
},
{
glyphname = Oslashacute;
kernLeft = O;
kernRight = O;
lastChange = "2024-12-19 13:17:37 +0000";
layers = (
{
background = {
anchors = (
{
name = bottom;
pos = (236,0);
},
{
name = top;
pos = (268,927);
}
);
shapes = (
{
closed = 1;
nodes = (
(366,-12,o),
(443,77,o),
(443,355,cs),
(443,634,o),
(366,722,o),
(236,722,cs),
(106,722,o),
(30,634,o),
(30,355,cs),
(30,77,o),
(106,-12,o),
(236,-12,cs)
);
},
{
closed = 1;
nodes = (
(178,82,o),
(146,134,o),
(146,294,cs),
(146,397,ls),
(146,576,o),
(178,628,o),
(236,628,cs),
(294,628,o),
(327,577,o),
(327,417,cs),
(327,314,ls),
(327,134,o),
(294,82,o),
(236,82,cs)
);
},
{
closed = 1;
nodes = (
(429,690,l),
(353,722,l),
(43,21,l),
(119,-12,l)
);
},
{
closed = 1;
nodes = (
(343,897,l),
(265,927,l),
(193,781,l),
(258,763,l)
);
}
);
};
layerId = "E1689EA5-A91E-47D2-BCA7-04A2C9D26D65";
shapes = (
{
alignment = -1;
ref = Oslash;
},
{
alignment = -1;
pos = (193,0);
ref = acutecomb.case;
}
);
width = 472;
}
);
unicode = 510;
},
{
glyphname = Otilde;
kernLeft = O;
kernRight = O;
lastChange = "2024-12-19 13:17:37 +0000";
layers = (
{
background = {
anchors = (
{
name = bottom;
pos = (234,0);
},
{
name = center;
pos = (234,355);
},
{
name = ogonek;
pos = (421,10);
},
{
name = top;
pos = (234,878);
},
{
name = topleft;
pos = (20,710);
},
{
name = topright;
pos = (448,710);
}
);
shapes = (
{
closed = 1;
nodes = (
(363,-12,o),
(438,78,o),
(438,355,cs),
(438,634,o),
(363,722,o),
(234,722,cs),
(104,722,o),
(30,634,o),
(30,355,cs),
(30,78,o),
(104,-12,o),
(234,-12,cs)
);
},
{
closed = 1;
nodes = (
(178,81,o),
(147,134,o),
(147,314,cs),
(147,397,ls),
(147,576,o),
(178,629,o),
(234,629,cs),
(289,629,o),
(321,577,o),
(321,397,cs),
(321,314,ls),
(321,133,o),
(289,81,o),
(234,81,cs)
);
},
{
closed = 1;
nodes = (
(320,775,o),
(351,801,o),
(353,878,c),
(296,878,l),
(295,855,o),
(289,841,o),
(273,841,cs),
(253,841,o),
(229,878,o),
(184,878,cs),
(148,878,o),
(117,852,o),
(115,777,c),
(172,777,l),
(174,800,o),
(179,813,o),
(196,813,cs),
(215,813,o),
(239,775,o),
(283,775,cs)
);
}
);
};
layerId = "E1689EA5-A91E-47D2-BCA7-04A2C9D26D65";
shapes = (
{
alignment = -1;
ref = O;
},
{
alignment = -1;
pos = (115,0);
ref = tildecomb.case;
}
);
width = 467.5;
}
);
unicode = 213;
},
{
glyphname = OE;
kernRight = E;
lastChange = "2024-12-19 13:17:24 +0000";
layers = (
{
anchors = (
{
name = bottom;
pos = (323,0);
},
{
name = top;
pos = (323,710);
}
);
background = {
anchors = (
{
name = bottom;
pos = (323,0);
},
{
name = top;
pos = (323,710);
}
);
shapes = (
{
closed = 1;
nodes = (
(625,0,l),
(625,96,l),
(391,96,l),
(413,67,l),
(413,644,l),
(391,614,l),
(621,614,l),
(621,710,l),
(247,710,ls),
(116,710,o),
(30,620,o),
(30,355,cs),
(30,90,o),
(116,0,o),
(247,0,cs)
);
},
{
closed = 1;
nodes = (
(189,96,o),
(147,143,o),
(147,286,cs),
(147,425,ls),
(147,568,o),
(189,614,o),
(259,614,cs),
(299,614,l),
(299,96,l),
(259,96,ls)
);
},
{
closed = 1;
nodes = (
(598,318,l),
(598,409,l),
(379,409,l),
(379,318,l)
);
}
);
};
layerId = "E1689EA5-A91E-47D2-BCA7-04A2C9D26D65";
shapes = (
{
closed = 1;
nodes = (
(625,0,l),
(625,96,l),
(391,96,l),
(413,67,l),
(413,644,l),
(391,614,l),
(621,614,l),
(621,710,l),
(247,710,ls),
(116,710,o),
(30,620,o),
(30,355,cs),
(30,90,o),
(116,0,o),
(247,0,cs)
);
},
{
closed = 1;
nodes = (
(189,96,o),
(147,143,o),
(147,286,cs),
(147,425,ls),
(147,568,o),
(189,614,o),
(259,614,cs),
(299,614,l),
(299,96,l),
(259,96,ls)
);
},
{
closed = 1;
nodes = (
(598,318,l),
(598,409,l),
(379,409,l),
(379,318,l)
);
}
);
width = 650.5;
}
);
unicode = 338;
},
{
glyphname = P;
kernLeft = H;
lastChange = "2024-12-19 13:17:24 +0000";
layers = (
{
anchors = (
{
name = bottom;
pos = (209,0);
},
{
name = top;
pos = (209,710);
}
);
background = {
anchors = (
{
name = bottom;
pos = (209,0);
},
{
name = top;
pos = (209,710);
}
);
shapes = (
{
closed = 1;
nodes = (
(159,0,l),
(159,655,l),
(122,618,l),
(219,618,ls),
(272,618,o),
(299,584,o),
(299,520,cs),
(299,467,ls),
(299,402,o),
(272,369,o),
(219,369,cs),
(146,369,l),
(146,278,l),
(225,278,ls),
(354,278,o),
(413,364,o),
(413,495,cs),
(413,625,o),
(354,710,o),
(225,710,cs),
(45,710,l),
(45,0,l)
);
}
);
};
layerId = "E1689EA5-A91E-47D2-BCA7-04A2C9D26D65";
shapes = (
{
closed = 1;
nodes = (
(159,0,l),
(159,655,l),
(122,618,l),
(219,618,ls),
(272,618,o),
(299,584,o),
(299,520,cs),
(299,467,ls),
(299,402,o),
(272,369,o),
(219,369,cs),
(146,369,l),
(146,278,l),
(225,278,ls),
(354,278,o),
(413,364,o),
(413,495,cs),
(413,625,o),
(354,710,o),
(225,710,cs),
(45,710,l),
(45,0,l)
);
}
);
width = 428;
}
);
note = P;
unicode = 80;
},
{
glyphname = Thorn;
kernLeft = H;
lastChange = "2024-12-19 13:17:24 +0000";
layers = (
{
anchors = (
{
name = bottom;
pos = (210,0);
},
{
name = top;
pos = (210,710);
}
);
background = {
anchors = (
{
name = bottom;
pos = (210,0);
},
{
name = top;
pos = (210,710);
}
);
shapes = (
{
closed = 1;
nodes = (
(226,147,ls),
(347,147,o),
(413,224,o),
(413,364,cs),
(413,504,o),
(347,581,o),
(226,580,cs),
(121,580,l),
(121,487,l),
(219,488,ls),
(280,488,o),
(299,443,o),
(299,389,cs),
(299,337,ls),
(299,268,o),
(269,239,o),
(219,239,cs),
(121,238,l),
(121,146,l)
);
},
{
closed = 1;
nodes = (
(159,0,l),
(159,710,l),
(45,710,l),
(45,0,l)
);
}
);
};
layerId = "E1689EA5-A91E-47D2-BCA7-04A2C9D26D65";
shapes = (
{
closed = 1;
nodes = (
(226,147,ls),
(347,147,o),
(413,224,o),
(413,364,cs),
(413,504,o),
(347,581,o),
(226,580,cs),
(121,580,l),
(121,487,l),
(219,488,ls),
(280,488,o),
(299,443,o),
(299,389,cs),
(299,337,ls),
(299,268,o),
(269,239,o),
(219,239,cs),
(121,238,l),
(121,146,l)
);
},
{
closed = 1;
nodes = (
(159,0,l),
(159,710,l),
(45,710,l),
(45,0,l)
);
}
);
width = 436;
}
);
unicode = 222;
},
{
glyphname = Q;
kernLeft = O;
kernRight = O;
lastChange = "2024-12-19 13:17:24 +0000";
layers = (
{
anchors = (
{
name = bottom;
pos = (236,0);
},
{
name = top;
pos = (236,710);
}
);
background = {
anchors = (
{
name = bottom;
pos = (236,0);
},
{
name = top;
pos = (236,710);
}
);
shapes = (
{
closed = 1;
nodes = (
(365,-12,o),
(441,78,o),
(441,355,cs),
(441,634,o),
(365,722,o),
(235,722,cs),
(106,722,o),
(30,634,o),
(30,355,cs),
(30,78,o),
(106,-12,o),
(235,-12,cs)
);
},
{
closed = 1;
nodes = (
(180,81,o),
(148,134,o),
(148,314,cs),
(148,397,ls),
(148,576,o),
(180,629,o),
(235,629,cs),
(291,629,o),
(323,577,o),
(323,397,cs),
(323,314,ls),
(323,133,o),
(291,81,o),
(235,81,cs)
);
},
{
closed = 1;
nodes = (
(430,-58,l),
(327,81,l),
(247,37,l),
(341,-118,l)
);
}
);
};
layerId = "E1689EA5-A91E-47D2-BCA7-04A2C9D26D65";
shapes = (
{
closed = 1;
nodes = (
(365,-12,o),
(441,78,o),
(441,355,cs),
(441,634,o),
(365,722,o),
(235,722,cs),
(106,722,o),
(30,634,o),
(30,355,cs),
(30,78,o),
(106,-12,o),
(235,-12,cs)
);
},
{
closed = 1;
nodes = (
(180,81,o),
(148,134,o),
(148,314,cs),
(148,397,ls),
(148,576,o),
(180,629,o),
(235,629,cs),
(291,629,o),
(323,577,o),
(323,397,cs),
(323,314,ls),
(323,133,o),
(291,81,o),
(235,81,cs)
);
},
{
closed = 1;
nodes = (
(430,-58,l),
(327,81,l),
(247,37,l),
(341,-118,l)
);
}
);
width = 470.5;
}
);
note = Q;
unicode = 81;
},
{
glyphname = R;
kernLeft = H;
kernRight = R;
lastChange = "2024-12-19 13:17:24 +0000";
layers = (
{
anchors = (
{
name = bottom;
pos = (243,0);
},
{
name = top;
pos = (243,710);
}
);
background = {
anchors = (
{
name = bottom;
pos = (243,0);
},
{
name = top;
pos = (243,710);
}
);
shapes = (
{
closed = 1;
nodes = (
(159,0,l),
(159,657,l),
(121,618,l),
(219,618,ls),
(280,618,o),
(304,584,o),
(304,529,cs),
(304,494,ls),
(304,434,o),
(281,400,o),
(219,400,cs),
(147,400,l),
(147,309,l),
(204,309,l),
(304,0,l),
(429,0,l),
(305,356,l),
(280,317,l),
(381,336,o),
(418,418,o),
(418,515,cs),
(418,627,o),
(363,710,o),
(225,710,cs),
(45,710,l),
(45,0,l)
);
}
);
};
layerId = "E1689EA5-A91E-47D2-BCA7-04A2C9D26D65";
shapes = (
{
closed = 1;
nodes = (
(159,0,l),
(159,657,l),
(121,618,l),
(219,618,ls),
(280,618,o),
(304,584,o),
(304,529,cs),
(304,494,ls),
(304,434,o),
(281,400,o),
(219,400,cs),
(147,400,l),
(147,309,l),
(204,309,l),
(304,0,l),
(429,0,l),
(305,356,l),
(280,317,l),
(381,336,o),
(418,418,o),
(418,515,cs),
(418,627,o),
(363,710,o),
(225,710,cs),
(45,710,l),
(45,0,l)
);
}
);
width = 441;
}
);
note = R;
unicode = 82;
},
{
glyphname = Racute;
kernLeft = H;
kernRight = R;
lastChange = "2024-12-19 13:17:37 +0000";
layers = (
{
background = {
anchors = (
{
name = bottom;
pos = (243,0);
},
{
name = top;
pos = (275,927);
}
);
shapes = (
{
closed = 1;
nodes = (
(159,0,l),
(159,657,l),
(121,618,l),
(219,618,ls),
(280,618,o),
(304,584,o),
(304,529,cs),
(304,494,ls),
(304,434,o),
(281,400,o),
(219,400,cs),
(147,400,l),
(147,309,l),
(204,309,l),
(304,0,l),
(429,0,l),
(305,356,l),
(280,317,l),
(381,336,o),
(418,418,o),
(418,515,cs),
(418,627,o),
(363,710,o),
(225,710,cs),
(45,710,l),
(45,0,l)
);
},
{
closed = 1;
nodes = (
(350,897,l),
(272,927,l),
(200,781,l),
(265,763,l)
);
}
);
};
layerId = "E1689EA5-A91E-47D2-BCA7-04A2C9D26D65";
shapes = (
{
alignment = -1;
ref = R;
},
{
alignment = -1;
pos = (200,0);
ref = acutecomb.case;
}
);
width = 441;
}
);
unicode = 340;
},
{
glyphname = Rcaron;
kernLeft = H;
kernRight = R;
lastChange = "2024-12-19 13:17:37 +0000";
layers = (
{
background = {
anchors = (
{
name = bottom;
pos = (243,0);
},
{
name = top;
pos = (243,889);
}
);
shapes = (
{
closed = 1;
nodes = (
(159,0,l),
(159,657,l),
(121,618,l),
(219,618,ls),
(280,618,o),
(304,584,o),
(304,529,cs),
(304,494,ls),
(304,434,o),
(281,400,o),
(219,400,cs),
(147,400,l),
(147,309,l),
(204,309,l),
(304,0,l),
(429,0,l),
(305,356,l),
(280,317,l),
(381,336,o),
(418,418,o),
(418,515,cs),
(418,627,o),
(363,710,o),
(225,710,cs),
(45,710,l),
(45,0,l)
);
},
{
closed = 1;
nodes = (
(280,768,l),
(366,889,l),
(287,889,l),
(214,782,l),
(272,782,l),
(199,889,l),
(119,889,l),
(205,768,l)
);
}
);
};
layerId = "E1689EA5-A91E-47D2-BCA7-04A2C9D26D65";
shapes = (
{
alignment = -1;
ref = R;
},
{
alignment = -1;
pos = (119,0);
ref = caroncomb.case;
}
);
width = 441;
}
);
unicode = 344;
},
{
glyphname = Rcommaaccent;
kernLeft = H;
kernRight = R;
lastChange = "2024-12-19 13:17:37 +0000";
layers = (
{
background = {
anchors = (
{
name = bottom;
pos = (243,-254);
},
{
name = top;
pos = (243,710);
}
);
shapes = (
{
closed = 1;
nodes = (
(159,0,l),
(159,657,l),
(121,618,l),
(219,618,ls),
(280,618,o),
(304,584,o),
(304,529,cs),
(304,494,ls),
(304,434,o),
(281,400,o),
(219,400,cs),
(147,400,l),
(147,309,l),
(204,309,l),
(304,0,l),
(429,0,l),
(305,356,l),
(280,317,l),
(381,336,o),
(418,418,o),
(418,515,cs),
(418,627,o),
(363,710,o),
(225,710,cs),
(45,710,l),
(45,0,l)
);
},
{
closed = 1;
nodes = (
(255,-254,l),
(297,-150,l),
(297,-72,l),
(189,-72,l),
(189,-167,l),
(233,-167,l),
(205,-254,l)
);
}
);
};
layerId = "E1689EA5-A91E-47D2-BCA7-04A2C9D26D65";
shapes = (
{
alignment = -1;
ref = R;
},
{
alignment = -1;
pos = (189,0);
ref = commaaccentcomb;
}
);
width = 441;
}
);
unicode = 342;
},
{
glyphname = S;
kernLeft = S;
kernRight = S;
lastChange = "2024-12-19 13:17:24 +0000";
layers = (
{
anchors = (
{
name = bottom;
pos = (211,0);
},
{
name = top;
pos = (204,710);
}
);
background = {
anchors = (
{
name = bottom;
pos = (211,0);
},
{
name = top;
pos = (204,710);
}
);
shapes = (
{
closed = 1;
nodes = (
(317,-12,o),
(392,48,o),
(392,180,cs),
(392,275,o),
(348,331,o),
(283,380,cs),
(215,430,ls),
(166,467,o),
(142,497,o),
(142,549,cs),
(142,601,o),
(165,631,o),
(207,631,cs),
(258,631,o),
(281,593,o),
(279,502,c),
(383,507,l),
(386,659,o),
(322,722,o),
(208,722,cs),
(107,722,o),
(32,657,o),
(32,541,cs),
(32,446,o),
(81,389,o),
(148,340,cs),
(210,295,ls),
(257,259,o),
(282,230,o),
(282,172,cs),
(282,130,o),
(267,79,o),
(209,80,cs),
(147,81,o),
(125,136,o),
(128,229,c),
(24,224,l),
(15,69,o),
(82,-12,o),
(211,-12,cs)
);
}
);
};
layerId = "E1689EA5-A91E-47D2-BCA7-04A2C9D26D65";
shapes = (
{
closed = 1;
nodes = (
(317,-12,o),
(392,48,o),
(392,180,cs),
(392,275,o),
(348,331,o),
(283,380,cs),
(215,430,ls),
(166,467,o),
(142,497,o),
(142,549,cs),
(142,601,o),
(165,631,o),
(207,631,cs),
(258,631,o),
(281,593,o),
(279,502,c),
(383,507,l),
(386,659,o),
(322,722,o),
(208,722,cs),
(107,722,o),
(32,657,o),
(32,541,cs),
(32,446,o),
(81,389,o),
(148,340,cs),
(210,295,ls),
(257,259,o),
(282,230,o),
(282,172,cs),
(282,130,o),
(267,79,o),
(209,80,cs),
(147,81,o),
(125,136,o),
(128,229,c),
(24,224,l),
(15,69,o),
(82,-12,o),
(211,-12,cs)
);
}
);
width = 415.5;
}
);
note = S;
unicode = 83;
},
{
glyphname = Sacute;
kernLeft = S;
kernRight = S;
lastChange = "2024-12-19 13:17:37 +0000";
layers = (
{
background = {
anchors = (
{
name = bottom;
pos = (211,0);
},
{
name = top;
pos = (236,927);
}
);
shapes = (
{
closed = 1;
nodes = (
(317,-12,o),
(392,48,o),
(392,180,cs),
(392,275,o),
(348,331,o),
(283,380,cs),
(215,430,ls),
(166,467,o),
(142,497,o),
(142,549,cs),
(142,601,o),
(165,631,o),
(207,631,cs),
(258,631,o),
(281,593,o),
(279,502,c),
(383,507,l),
(386,659,o),
(322,722,o),
(208,722,cs),
(107,722,o),
(32,657,o),
(32,541,cs),
(32,446,o),
(81,389,o),
(148,340,cs),
(210,295,ls),
(257,259,o),
(282,230,o),
(282,172,cs),
(282,130,o),
(267,79,o),
(209,80,cs),
(147,81,o),
(125,136,o),
(128,229,c),
(24,224,l),
(15,69,o),
(82,-12,o),
(211,-12,cs)
);
},
{
closed = 1;
nodes = (
(311,897,l),
(233,927,l),
(161,781,l),
(226,763,l)
);
}
);
};
layerId = "E1689EA5-A91E-47D2-BCA7-04A2C9D26D65";
shapes = (
{
alignment = -1;
ref = S;
},
{
alignment = -1;
pos = (161,0);
ref = acutecomb.case;
}
);
width = 415.5;
}
);
unicode = 346;
},
{
glyphname = Scaron;
kernLeft = S;
kernRight = S;
lastChange = "2024-12-19 13:17:37 +0000";
layers = (
{
background = {
anchors = (
{
name = bottom;
pos = (211,0);
},
{
name = top;
pos = (204,889);
}
);
shapes = (
{
closed = 1;
nodes = (
(317,-12,o),
(392,48,o),
(392,180,cs),
(392,275,o),
(348,331,o),
(283,380,cs),
(215,430,ls),
(166,467,o),
(142,497,o),
(142,549,cs),
(142,601,o),
(165,631,o),
(207,631,cs),
(258,631,o),
(281,593,o),
(279,502,c),
(383,507,l),
(386,659,o),
(322,722,o),
(208,722,cs),
(107,722,o),
(32,657,o),
(32,541,cs),
(32,446,o),
(81,389,o),
(148,340,cs),
(210,295,ls),
(257,259,o),
(282,230,o),
(282,172,cs),
(282,130,o),
(267,79,o),
(209,80,cs),
(147,81,o),
(125,136,o),
(128,229,c),
(24,224,l),
(15,69,o),
(82,-12,o),
(211,-12,cs)
);
},
{
closed = 1;
nodes = (
(241,768,l),
(327,889,l),
(248,889,l),
(175,782,l),
(233,782,l),
(160,889,l),
(80,889,l),
(166,768,l)
);
}
);
};
layerId = "E1689EA5-A91E-47D2-BCA7-04A2C9D26D65";
shapes = (
{
alignment = -1;
ref = S;
},
{
alignment = -1;
pos = (80,0);
ref = caroncomb.case;
}
);
width = 415.5;
}
);
unicode = 352;
},
{
glyphname = Scedilla;
kernLeft = S;
kernRight = S;
lastChange = "2024-12-19 13:17:37 +0000";
layers = (
{
background = {
anchors = (
{
name = bottom;
pos = (221,-162);
},
{
name = top;
pos = (204,710);
}
);
shapes = (
{
closed = 1;
nodes = (
(317,-12,o),
(392,48,o),
(392,180,cs),
(392,275,o),
(348,331,o),
(283,380,cs),
(215,430,ls),
(166,467,o),
(142,497,o),
(142,549,cs),
(142,601,o),
(165,631,o),
(207,631,cs),
(258,631,o),
(281,593,o),
(279,502,c),
(383,507,l),
(386,659,o),
(322,722,o),
(208,722,cs),
(107,722,o),
(32,657,o),
(32,541,cs),
(32,446,o),
(81,389,o),
(148,340,cs),
(210,295,ls),
(257,259,o),
(282,230,o),
(282,172,cs),
(282,130,o),
(267,79,o),
(209,80,cs),
(147,81,o),
(125,136,o),
(128,229,c),
(24,224,l),
(15,69,o),
(82,-12,o),
(211,-12,cs)
);
},
{
closed = 1;
nodes = (
(254,-167,o),
(294,-143,o),
(294,-94,cs),
(294,-46,o),
(251,-26,o),
(207,-21,c),
(234,-39,l),
(234,2,l),
(178,2,l),
(174,-56,l),
(211,-63,o),
(225,-70,o),
(225,-86,cs),
(225,-112,o),
(182,-110,o),
(147,-102,c),
(147,-161,l),
(169,-165,o),
(183,-167,o),
(201,-167,cs)
);
}
);
};
layerId = "E1689EA5-A91E-47D2-BCA7-04A2C9D26D65";
shapes = (
{
alignment = -1;
ref = S;
},
{
alignment = -1;
pos = (147,0);
ref = cedillacomb;
}
);
width = 415.5;
}
);
unicode = 350;
},
{
glyphname = Scircumflex;
kernLeft = S;
kernRight = S;
lastChange = "2024-12-19 13:17:37 +0000";
layers = (
{
background = {
anchors = (
{
name = bottom;
pos = (211,0);
},
{
name = top;
pos = (204,889);
}
);
shapes = (
{
closed = 1;
nodes = (
(317,-12,o),
(392,48,o),
(392,180,cs),
(392,275,o),
(348,331,o),
(283,380,cs),
(215,430,ls),
(166,467,o),
(142,497,o),
(142,549,cs),
(142,601,o),
(165,631,o),
(207,631,cs),
(258,631,o),
(281,593,o),
(279,502,c),
(383,507,l),
(386,659,o),
(322,722,o),
(208,722,cs),
(107,722,o),
(32,657,o),
(32,541,cs),
(32,446,o),
(81,389,o),
(148,340,cs),
(210,295,ls),
(257,259,o),
(282,230,o),
(282,172,cs),
(282,130,o),
(267,79,o),
(209,80,cs),
(147,81,o),
(125,136,o),
(128,229,c),
(24,224,l),
(15,69,o),
(82,-12,o),
(211,-12,cs)
);
},
{
closed = 1;
nodes = (
(160,768,l),
(233,875,l),
(175,875,l),
(248,768,l),
(327,768,l),
(241,889,l),
(166,889,l),
(80,768,l)
);
}
);
};
layerId = "E1689EA5-A91E-47D2-BCA7-04A2C9D26D65";
shapes = (
{
alignment = -1;
ref = S;
},
{
alignment = -1;
pos = (80,0);
ref = circumflexcomb.case;
}
);
width = 415.5;
}
);
unicode = 348;
},
{
glyphname = Scommaaccent;
kernLeft = S;
kernRight = S;
lastChange = "2024-12-19 13:17:37 +0000";
layers = (
{
background = {
anchors = (
{
name = bottom;
pos = (211,-254);
},
{
name = top;
pos = (204,710);
}
);
shapes = (
{
closed = 1;
nodes = (
(317,-12,o),
(392,48,o),
(392,180,cs),
(392,275,o),
(348,331,o),
(283,380,cs),
(215,430,ls),
(166,467,o),
(142,497,o),
(142,549,cs),
(142,601,o),
(165,631,o),
(207,631,cs),
(258,631,o),
(281,593,o),
(279,502,c),
(383,507,l),
(386,659,o),
(322,722,o),
(208,722,cs),
(107,722,o),
(32,657,o),
(32,541,cs),
(32,446,o),
(81,389,o),
(148,340,cs),
(210,295,ls),
(257,259,o),
(282,230,o),
(282,172,cs),
(282,130,o),
(267,79,o),
(209,80,cs),
(147,81,o),
(125,136,o),
(128,229,c),
(24,224,l),
(15,69,o),
(82,-12,o),
(211,-12,cs)
);
},
{
closed = 1;
nodes = (
(223,-254,l),
(265,-150,l),
(265,-72,l),
(157,-72,l),
(157,-167,l),
(201,-167,l),
(173,-254,l)
);
}
);
};
layerId = "E1689EA5-A91E-47D2-BCA7-04A2C9D26D65";
shapes = (
{
alignment = -1;
ref = S;
},
{
alignment = -1;
pos = (157,0);
ref = commaaccentcomb;
}
);
width = 415.5;
}
);
unicode = 536;
},
{
glyphname = Germandbls;
kernLeft = H;
lastChange = "2024-12-19 13:17:24 +0000";
layers = (
{
background = {
shapes = (
{
closed = 1;
nodes = (
(370,-9,o),
(442,73,o),
(442,214,cs),
(442,325,o),
(392,400,o),
(310,426,c),
(321,380,l),
(429,707,l),
(429,710,l),
(45,710,l),
(45,0,l),
(159,0,l),
(159,652,l),
(122,614,l),
(333,614,l),
(310,650,l),
(216,365,l),
(216,361,l),
(285,348,o),
(327,306,o),
(327,214,cs),
(327,104,o),
(274,80,o),
(204,92,c),
(204,-1,l),
(225,-7,o),
(246,-9,o),
(263,-9,cs)
);
}
);
};
layerId = "E1689EA5-A91E-47D2-BCA7-04A2C9D26D65";
shapes = (
{
closed = 1;
nodes = (
(370,-9,o),
(442,73,o),
(442,214,cs),
(442,325,o),
(392,400,o),
(310,426,c),
(321,380,l),
(429,707,l),
(429,710,l),
(45,710,l),
(45,0,l),
(159,0,l),
(159,652,l),
(122,614,l),
(333,614,l),
(310,650,l),
(216,365,l),
(216,361,l),
(285,348,o),
(327,306,o),
(327,214,cs),
(327,104,o),
(274,80,o),
(204,92,c),
(204,-1,l),
(225,-7,o),
(246,-9,o),
(263,-9,cs)
);
}
);
width = 464;
}
);
unicode = 7838;
},
{
glyphname = T;
kernLeft = T;
kernRight = T;
lastChange = "2024-12-19 13:17:24 +0000";
layers = (
{
anchors = (
{
name = bottom;
pos = (197,0);
},
{
name = center;
pos = (197,355);
},
{
name = top;
pos = (197,710);
}
);
background = {
anchors = (
{
name = bottom;
pos = (197,0);
},
{
name = center;
pos = (197,355);
},
{
name = top;
pos = (197,710);
}
);
shapes = (
{
closed = 1;
nodes = (
(253,0,l),
(253,614,l),
(379,614,l),
(379,710,l),
(13,710,l),
(13,614,l),
(139,614,l),
(139,0,l)
);
}
);
};
layerId = "E1689EA5-A91E-47D2-BCA7-04A2C9D26D65";
shapes = (
{
closed = 1;
nodes = (
(253,0,l),
(253,614,l),
(379,614,l),
(379,710,l),
(13,710,l),
(13,614,l),
(139,614,l),
(139,0,l)
);
}
);
width = 392;
}
);
note = T;
unicode = 84;
},
{
glyphname = Tbar;
kernLeft = T;
kernRight = T;
lastChange = "2024-12-19 13:17:37 +0000";
layers = (
{
background = {
anchors = (
{
name = bottom;
pos = (201,0);
},
{
name = center;
pos = (201,355);
},
{
name = top;
pos = (201,710);
}
);
shapes = (
{
closed = 1;
nodes = (
(337,317,l),
(337,405,l),
(62,405,l),
(62,317,l)
);
},
{
closed = 1;
nodes = (
(257,0,l),
(257,614,l),
(383,614,l),
(383,710,l),
(17,710,l),
(17,614,l),
(143,614,l),
(143,0,l)
);
}
);
};
layerId = "E1689EA5-A91E-47D2-BCA7-04A2C9D26D65";
shapes = (
{
closed = 1;
nodes = (
(337,317,l),
(337,405,l),
(62,405,l),
(62,317,l)
);
},
{
alignment = -1;
pos = (4,0);
ref = T;
}
);
width = 399;
}
);
unicode = 358;
},
{
glyphname = Tcaron;
kernLeft = T;
kernRight = T;
lastChange = "2024-12-19 13:17:37 +0000";
layers = (
{
background = {
anchors = (
{
name = bottom;
pos = (197,0);
},
{
name = center;
pos = (197,355);
},
{
name = top;
pos = (197,889);
}
);
shapes = (
{
closed = 1;
nodes = (
(253,0,l),
(253,614,l),
(379,614,l),
(379,710,l),
(13,710,l),
(13,614,l),
(139,614,l),
(139,0,l)
);
},
{
closed = 1;
nodes = (
(234,768,l),
(320,889,l),
(241,889,l),
(168,782,l),
(226,782,l),
(153,889,l),
(73,889,l),
(159,768,l)
);
}
);
};
layerId = "E1689EA5-A91E-47D2-BCA7-04A2C9D26D65";
shapes = (
{
alignment = -1;
ref = T;
},
{
alignment = -1;
pos = (73,0);
ref = caroncomb.case;
}
);
width = 392;
}
);
unicode = 356;
},
{
glyphname = Tcommaaccent;
kernLeft = T;
kernRight = T;
lastChange = "2024-12-19 13:17:37 +0000";
layers = (
{
background = {
anchors = (
{
name = bottom;
pos = (197,-254);
},
{
name = center;
pos = (197,355);
},
{
name = top;
pos = (197,710);
}
);
shapes = (
{
closed = 1;
nodes = (
(253,0,l),
(253,614,l),
(379,614,l),
(379,710,l),
(13,710,l),
(13,614,l),
(139,614,l),
(139,0,l)
);
},
{
closed = 1;
nodes = (
(209,-254,l),
(251,-150,l),
(251,-72,l),
(143,-72,l),
(143,-167,l),
(187,-167,l),
(159,-254,l)
);
}
);
};
layerId = "E1689EA5-A91E-47D2-BCA7-04A2C9D26D65";
shapes = (
{
alignment = -1;
ref = T;
},
{
alignment = -1;
pos = (143,0);
ref = commaaccentcomb;
}
);
width = 392;
}
);
unicode = 538;
},
{
glyphname = U;
kernLeft = U;
kernRight = U;
lastChange = "2024-12-19 13:17:24 +0000";
layers = (
{
anchors = (
{
name = bottom;
pos = (230,0);
},
{
name = ogonek;
pos = (356,0);
},
{
name = top;
pos = (230,710);
},
{
name = topright;
pos = (437,710);
}
);
background = {
anchors = (
{
name = bottom;
pos = (230,0);
},
{
name = ogonek;
pos = (356,0);
},
{
name = top;
pos = (230,710);
},
{
name = topright;
pos = (437,710);
}
);
shapes = (
{
closed = 1;
nodes = (
(351,-12,o),
(417,50,o),
(417,180,cs),
(417,710,l),
(308,710,l),
(308,180,ls),
(308,116,o),
(282,87,o),
(232,87,cs),
(181,87,o),
(157,116,o),
(157,180,cs),
(157,710,l),
(43,710,l),
(43,180,ls),
(43,50,o),
(107,-12,o),
(229,-12,cs)
);
}
);
};
layerId = "E1689EA5-A91E-47D2-BCA7-04A2C9D26D65";
shapes = (
{
closed = 1;
nodes = (
(351,-12,o),
(417,50,o),
(417,180,cs),
(417,710,l),
(308,710,l),
(308,180,ls),
(308,116,o),
(282,87,o),
(232,87,cs),
(181,87,o),
(157,116,o),
(157,180,cs),
(157,710,l),
(43,710,l),
(43,180,ls),
(43,50,o),
(107,-12,o),
(229,-12,cs)
);
}
);
width = 459.5;
}
);
note = U;
unicode = 85;
},
{
glyphname = Uacute;
kernLeft = U;
kernRight = U;
lastChange = "2024-12-19 13:17:37 +0000";
layers = (
{
background = {
anchors = (
{
name = bottom;
pos = (230,0);
},
{
name = ogonek;
pos = (356,0);
},
{
name = top;
pos = (262,927);
},
{
name = topright;
pos = (437,710);
}
);
shapes = (
{
closed = 1;
nodes = (
(351,-12,o),
(417,50,o),
(417,180,cs),
(417,710,l),
(308,710,l),
(308,180,ls),
(308,116,o),
(282,87,o),
(232,87,cs),
(181,87,o),
(157,116,o),
(157,180,cs),
(157,710,l),
(43,710,l),
(43,180,ls),
(43,50,o),
(107,-12,o),
(229,-12,cs)
);
},
{
closed = 1;
nodes = (
(337,897,l),
(259,927,l),
(187,781,l),
(252,763,l)
);
}
);
};
layerId = "E1689EA5-A91E-47D2-BCA7-04A2C9D26D65";
shapes = (
{
alignment = -1;
ref = U;
},
{
alignment = -1;
pos = (187,0);
ref = acutecomb.case;
}
);
width = 459.5;
}
);
unicode = 218;
},
{
glyphname = Ubreve;
kernLeft = U;
kernRight = U;
lastChange = "2024-12-19 13:17:37 +0000";
layers = (
{
background = {
anchors = (
{
name = bottom;
pos = (230,0);
},
{
name = ogonek;
pos = (356,0);
},
{
name = top;
pos = (230,899);
},
{
name = topright;
pos = (437,710);
}
);
shapes = (
{
closed = 1;
nodes = (
(351,-12,o),
(417,50,o),
(417,180,cs),
(417,710,l),
(308,710,l),
(308,180,ls),
(308,116,o),
(282,87,o),
(232,87,cs),
(181,87,o),
(157,116,o),
(157,180,cs),
(157,710,l),
(43,710,l),
(43,180,ls),
(43,50,o),
(107,-12,o),
(229,-12,cs)
);
},
{
closed = 1;
nodes = (
(289,772,o),
(330,815,o),
(334,899,c),
(268,899,l),
(265,851,o),
(251,835,o),
(230,835,cs),
(209,835,o),
(195,851,o),
(193,899,c),
(126,899,l),
(130,815,o),
(171,772,o),
(230,772,cs)
);
}
);
};
layerId = "E1689EA5-A91E-47D2-BCA7-04A2C9D26D65";
shapes = (
{
alignment = -1;
ref = U;
},
{
alignment = -1;
pos = (126,0);
ref = brevecomb.case;
}
);
width = 459.5;
}
);
unicode = 364;
},
{
glyphname = Ucircumflex;
kernLeft = U;
kernRight = U;
lastChange = "2024-12-19 13:17:37 +0000";
layers = (
{
background = {
anchors = (
{
name = bottom;
pos = (230,0);
},
{
name = ogonek;
pos = (356,0);
},
{
name = top;
pos = (231,889);
},
{
name = topright;
pos = (437,710);
}
);
shapes = (
{
closed = 1;
nodes = (
(351,-12,o),
(417,50,o),
(417,180,cs),
(417,710,l),
(308,710,l),
(308,180,ls),
(308,116,o),
(282,87,o),
(232,87,cs),
(181,87,o),
(157,116,o),
(157,180,cs),
(157,710,l),
(43,710,l),
(43,180,ls),
(43,50,o),
(107,-12,o),
(229,-12,cs)
);
},
{
closed = 1;
nodes = (
(187,768,l),
(260,875,l),
(202,875,l),
(275,768,l),
(354,768,l),
(268,889,l),
(193,889,l),
(107,768,l)
);
}
);
};
layerId = "E1689EA5-A91E-47D2-BCA7-04A2C9D26D65";
shapes = (
{
alignment = -1;
ref = U;
},
{
alignment = -1;
pos = (107,0);
ref = circumflexcomb.case;
}
);
width = 459.5;
}
);
unicode = 219;
},
{
glyphname = Udieresis;
kernLeft = U;
kernRight = U;
lastChange = "2024-12-19 13:17:37 +0000";
layers = (
{
background = {
anchors = (
{
name = bottom;
pos = (230,0);
},
{
name = ogonek;
pos = (356,0);
},
{
name = top;
pos = (231,886);
},
{
name = topright;
pos = (437,710);
}
);
shapes = (
{
closed = 1;
nodes = (
(351,-12,o),
(417,50,o),
(417,180,cs),
(417,710,l),
(308,710,l),
(308,180,ls),
(308,116,o),
(282,87,o),
(232,87,cs),
(181,87,o),
(157,116,o),
(157,180,cs),
(157,710,l),
(43,710,l),
(43,180,ls),
(43,50,o),
(107,-12,o),
(229,-12,cs)
);
},
{
closed = 1;
nodes = (
(215,780,l),
(215,886,l),
(120,886,l),
(120,780,l)
);
},
{
closed = 1;
nodes = (
(347,780,l),
(347,886,l),
(252,886,l),
(252,780,l)
);
}
);
};
layerId = "E1689EA5-A91E-47D2-BCA7-04A2C9D26D65";
shapes = (
{
alignment = -1;
ref = U;
},
{
alignment = -1;
pos = (120,0);
ref = dieresiscomb.case;
}
);
width = 459.5;
}
);
unicode = 220;
},
{
glyphname = Ugrave;
kernLeft = U;
kernRight = U;
lastChange = "2024-12-19 13:17:37 +0000";
layers = (
{
background = {
anchors = (
{
name = bottom;
pos = (230,0);
},
{
name = ogonek;
pos = (356,0);
},
{
name = top;
pos = (199,927);
},
{
name = topright;
pos = (437,710);
}
);
shapes = (
{
closed = 1;
nodes = (
(351,-12,o),
(417,50,o),
(417,180,cs),
(417,710,l),
(308,710,l),
(308,180,ls),
(308,116,o),
(282,87,o),
(232,87,cs),
(181,87,o),
(157,116,o),
(157,180,cs),
(157,710,l),
(43,710,l),
(43,180,ls),
(43,50,o),
(107,-12,o),
(229,-12,cs)
);
},
{
closed = 1;
nodes = (
(274,781,l),
(202,927,l),
(124,897,l),
(209,763,l)
);
}
);
};
layerId = "E1689EA5-A91E-47D2-BCA7-04A2C9D26D65";
shapes = (
{
alignment = -1;
ref = U;
},
{
alignment = -1;
pos = (124,0);
ref = gravecomb.case;
}
);
width = 459.5;
}
);
unicode = 217;
},
{
glyphname = Uhungarumlaut;
kernLeft = U;
kernRight = U;
lastChange = "2024-12-19 13:17:37 +0000";
layers = (
{
background = {
anchors = (
{
name = bottom;
pos = (230,0);
},
{
name = ogonek;
pos = (356,0);
},
{
name = top;
pos = (262,927);
},
{
name = topright;
pos = (437,710);
}
);
shapes = (
{
closed = 1;
nodes = (
(351,-12,o),
(417,50,o),
(417,180,cs),
(417,710,l),
(308,710,l),
(308,180,ls),
(308,116,o),
(282,87,o),
(232,87,cs),
(181,87,o),
(157,116,o),
(157,180,cs),
(157,710,l),
(43,710,l),
(43,180,ls),
(43,50,o),
(107,-12,o),
(229,-12,cs)
);
},
{
closed = 1;
nodes = (
(268,897,l),
(190,927,l),
(118,781,l),
(183,763,l)
);
},
{
closed = 1;
nodes = (
(405,897,l),
(328,927,l),
(246,781,l),
(310,763,l)
);
}
);
};
layerId = "E1689EA5-A91E-47D2-BCA7-04A2C9D26D65";
shapes = (
{
alignment = -1;
ref = U;
},
{
alignment = -1;
pos = (118,0);
ref = hungarumlautcomb.case;
}
);
width = 459.5;
}
);
unicode = 368;
},
{
glyphname = Umacron;
kernLeft = U;
kernRight = U;
lastChange = "2024-12-19 13:17:37 +0000";
layers = (
{
background = {
anchors = (
{
name = bottom;
pos = (230,0);
},
{
name = ogonek;
pos = (356,0);
},
{
name = top;
pos = (230,863);
},
{
name = topright;
pos = (437,710);
}
);
shapes = (
{
closed = 1;
nodes = (
(351,-12,o),
(417,50,o),
(417,180,cs),
(417,710,l),
(308,710,l),
(308,180,ls),
(308,116,o),
(282,87,o),
(232,87,cs),
(181,87,o),
(157,116,o),
(157,180,cs),
(157,710,l),
(43,710,l),
(43,180,ls),
(43,50,o),
(107,-12,o),
(229,-12,cs)
);
},
{
closed = 1;
nodes = (
(366,792,l),
(366,863,l),
(94,863,l),
(94,792,l)
);
}
);
};
layerId = "E1689EA5-A91E-47D2-BCA7-04A2C9D26D65";
shapes = (
{
alignment = -1;
ref = U;
},
{
alignment = -1;
pos = (94,0);
ref = macroncomb.case;
}
);
width = 459.5;
}
);
unicode = 362;
},
{
glyphname = Uogonek;
kernLeft = U;
kernRight = U;
lastChange = "2024-12-19 13:17:24 +0000";
layers = (
{
background = {
shapes = (
{
closed = 1;
nodes = (
(375,-99,l),
(345,-101,o),
(320,-92,o),
(320,-54,cs),
(320,-35,o),
(326,-3,o),
(357,27,cs),
(393,63,o),
(417,110,o),
(417,180,cs),
(417,710,l),
(308,710,l),
(308,180,ls),
(308,116,o),
(282,87,o),
(232,87,cs),
(181,87,o),
(157,116,o),
(157,180,cs),
(157,710,l),
(43,710,l),
(43,180,ls),
(43,50,o),
(107,-12,o),
(229,-12,cs),
(247,-12,o),
(263,-11,o),
(278,-8,c),
(262,-26,o),
(247,-54,o),
(247,-85,cs),
(247,-150,o),
(312,-170,o),
(375,-161,c)
);
}
);
};
layerId = "E1689EA5-A91E-47D2-BCA7-04A2C9D26D65";
shapes = (
{
closed = 1;
nodes = (
(375,-99,l),
(345,-101,o),
(320,-92,o),
(320,-54,cs),
(320,-35,o),
(326,-3,o),
(357,27,cs),
(393,63,o),
(417,110,o),
(417,180,cs),
(417,710,l),
(308,710,l),
(308,180,ls),
(308,116,o),
(282,87,o),
(232,87,cs),
(181,87,o),
(157,116,o),
(157,180,cs),
(157,710,l),
(43,710,l),
(43,180,ls),
(43,50,o),
(107,-12,o),
(229,-12,cs),
(247,-12,o),
(263,-11,o),
(278,-8,c),
(262,-26,o),
(247,-54,o),
(247,-85,cs),
(247,-150,o),
(312,-170,o),
(375,-161,c)
);
}
);
width = 459.5;
}
);
unicode = 370;
},
{
glyphname = Uring;
kernLeft = U;
kernRight = U;
lastChange = "2024-12-19 13:17:37 +0000";
layers = (
{
background = {
anchors = (
{
name = bottom;
pos = (230,0);
},
{
name = ogonek;
pos = (356,0);
},
{
name = top;
pos = (231,861);
},
{
name = topright;
pos = (437,710);
}
);
shapes = (
{
closed = 1;
nodes = (
(351,-12,o),
(417,50,o),
(417,180,cs),
(417,710,l),
(308,710,l),
(308,180,ls),
(308,116,o),
(282,87,o),
(232,87,cs),
(181,87,o),
(157,116,o),
(157,180,cs),
(157,710,l),
(43,710,l),
(43,180,ls),
(43,50,o),
(107,-12,o),
(229,-12,cs)
);
},
{
closed = 1;
nodes = (
(296,653,o),
(343,698,o),
(343,757,cs),
(343,816,o),
(296,861,o),
(231,861,cs),
(166,861,o),
(118,816,o),
(118,757,cs),
(118,698,o),
(166,653,o),
(231,653,cs)
);
},
{
closed = 1;
nodes = (
(203,710,o),
(184,728,o),
(184,757,cs),
(184,786,o),
(203,804,o),
(231,804,cs),
(258,804,o),
(278,786,o),
(278,757,cs),
(278,728,o),
(258,710,o),
(231,710,cs)
);
}
);
};
layerId = "E1689EA5-A91E-47D2-BCA7-04A2C9D26D65";
shapes = (
{
alignment = -1;
ref = U;
},
{
alignment = -1;
pos = (118,0);
ref = ringcomb.case;
}
);
width = 459.5;
}
);
unicode = 366;
},
{
glyphname = Utilde;
kernLeft = U;
kernRight = U;
lastChange = "2024-12-19 13:17:37 +0000";
layers = (
{
background = {
anchors = (
{
name = bottom;
pos = (230,0);
},
{
name = ogonek;
pos = (356,0);
},
{
name = top;
pos = (230,878);
},
{
name = topright;
pos = (437,710);
}
);
shapes = (
{
closed = 1;
nodes = (
(351,-12,o),
(417,50,o),
(417,180,cs),
(417,710,l),
(308,710,l),
(308,180,ls),
(308,116,o),
(282,87,o),
(232,87,cs),
(181,87,o),
(157,116,o),
(157,180,cs),
(157,710,l),
(43,710,l),
(43,180,ls),
(43,50,o),
(107,-12,o),
(229,-12,cs)
);
},
{
closed = 1;
nodes = (
(316,775,o),
(347,801,o),
(349,878,c),
(292,878,l),
(291,855,o),
(285,841,o),
(269,841,cs),
(249,841,o),
(225,878,o),
(180,878,cs),
(144,878,o),
(113,852,o),
(111,777,c),
(168,777,l),
(170,800,o),
(175,813,o),
(192,813,cs),
(211,813,o),
(235,775,o),
(279,775,cs)
);
}
);
};
layerId = "E1689EA5-A91E-47D2-BCA7-04A2C9D26D65";
shapes = (
{
alignment = -1;
ref = U;
},
{
alignment = -1;
pos = (111,0);
ref = tildecomb.case;
}
);
width = 459.5;
}
);
unicode = 360;
},
{
glyphname = V;
lastChange = "2024-12-19 13:17:24 +0000";
layers = (
{
anchors = (
{
name = bottom;
pos = (220,0);
},
{
name = top;
pos = (220,710);
}
);
background = {
anchors = (
{
name = bottom;
pos = (220,0);
},
{
name = top;
pos = (220,710);
}
);
shapes = (
{
closed = 1;
nodes = (
(295,0,l),
(430,710,l),
(321,710,l),
(216,81,l),
(230,81,l),
(126,710,l),
(10,710,l),
(145,0,l)
);
}
);
};
layerId = "E1689EA5-A91E-47D2-BCA7-04A2C9D26D65";
shapes = (
{
closed = 1;
nodes = (
(295,0,l),
(430,710,l),
(321,710,l),
(216,81,l),
(230,81,l),
(126,710,l),
(10,710,l),
(145,0,l)
);
}
);
width = 439.5;
}
);
note = V;
unicode = 86;
},
{
glyphname = W;
kernLeft = W;
kernRight = W;
lastChange = "2024-12-19 13:17:24 +0000";
layers = (
{
anchors = (
{
name = bottom;
pos = (333,0);
},
{
name = top;
pos = (333,710);
}
);
background = {
anchors = (
{
name = bottom;
pos = (333,0);
},
{
name = top;
pos = (333,710);
}
);
shapes = (
{
closed = 1;
nodes = (
(253,0,l),
(343,616,l),
(325,616,l),
(413,0,l),
(554,0,l),
(651,710,l),
(544,710,l),
(482,109,l),
(493,109,l),
(406,710,l),
(266,710,l),
(179,109,l),
(190,109,l),
(127,710,l),
(15,710,l),
(112,0,l)
);
}
);
};
layerId = "E1689EA5-A91E-47D2-BCA7-04A2C9D26D65";
shapes = (
{
closed = 1;
nodes = (
(253,0,l),
(343,616,l),
(325,616,l),
(413,0,l),
(554,0,l),
(651,710,l),
(544,710,l),
(482,109,l),
(493,109,l),
(406,710,l),
(266,710,l),
(179,109,l),
(190,109,l),
(127,710,l),
(15,710,l),
(112,0,l)
);
}
);
width = 665.5;
}
);
note = W;
unicode = 87;
},
{
glyphname = Wacute;
kernLeft = W;
kernRight = W;
lastChange = "2024-12-19 13:17:37 +0000";
layers = (
{
background = {
anchors = (
{
name = bottom;
pos = (333,0);
},
{
name = top;
pos = (365,927);
}
);
shapes = (
{
closed = 1;
nodes = (
(253,0,l),
(343,616,l),
(325,616,l),
(413,0,l),
(554,0,l),
(651,710,l),
(544,710,l),
(482,109,l),
(493,109,l),
(406,710,l),
(266,710,l),
(179,109,l),
(190,109,l),
(127,710,l),
(15,710,l),
(112,0,l)
);
},
{
closed = 1;
nodes = (
(440,897,l),
(362,927,l),
(290,781,l),
(355,763,l)
);
}
);
};
layerId = "E1689EA5-A91E-47D2-BCA7-04A2C9D26D65";
shapes = (
{
alignment = -1;
ref = W;
},
{
alignment = -1;
pos = (290,0);
ref = acutecomb.case;
}
);
width = 665.5;
}
);
unicode = 7810;
},
{
glyphname = Wcircumflex;
kernLeft = W;
kernRight = W;
lastChange = "2024-12-19 13:17:37 +0000";
layers = (
{
background = {
anchors = (
{
name = bottom;
pos = (333,0);
},
{
name = top;
pos = (334,889);
}
);
shapes = (
{
closed = 1;
nodes = (
(253,0,l),
(343,616,l),
(325,616,l),
(413,0,l),
(554,0,l),
(651,710,l),
(544,710,l),
(482,109,l),
(493,109,l),
(406,710,l),
(266,710,l),
(179,109,l),
(190,109,l),
(127,710,l),
(15,710,l),
(112,0,l)
);
},
{
closed = 1;
nodes = (
(290,768,l),
(363,875,l),
(305,875,l),
(378,768,l),
(457,768,l),
(371,889,l),
(296,889,l),
(210,768,l)
);
}
);
};
layerId = "E1689EA5-A91E-47D2-BCA7-04A2C9D26D65";
shapes = (
{
alignment = -1;
ref = W;
},
{
alignment = -1;
pos = (210,0);
ref = circumflexcomb.case;
}
);
width = 665.5;
}
);
unicode = 372;
},
{
glyphname = Wdieresis;
kernLeft = W;
kernRight = W;
lastChange = "2024-12-19 13:17:37 +0000";
layers = (
{
background = {
anchors = (
{
name = bottom;
pos = (333,0);
},
{
name = top;
pos = (334,886);
}
);
shapes = (
{
closed = 1;
nodes = (
(253,0,l),
(343,616,l),
(325,616,l),
(413,0,l),
(554,0,l),
(651,710,l),
(544,710,l),
(482,109,l),
(493,109,l),
(406,710,l),
(266,710,l),
(179,109,l),
(190,109,l),
(127,710,l),
(15,710,l),
(112,0,l)
);
},
{
closed = 1;
nodes = (
(318,780,l),
(318,886,l),
(223,886,l),
(223,780,l)
);
},
{
closed = 1;
nodes = (
(450,780,l),
(450,886,l),
(355,886,l),
(355,780,l)
);
}
);
};
layerId = "E1689EA5-A91E-47D2-BCA7-04A2C9D26D65";
shapes = (
{
alignment = -1;
ref = W;
},
{
alignment = -1;
pos = (223,0);
ref = dieresiscomb.case;
}
);
width = 665.5;
}
);
unicode = 7812;
},
{
glyphname = Wgrave;
kernLeft = W;
kernRight = W;
lastChange = "2024-12-19 13:17:37 +0000";
layers = (
{
background = {
anchors = (
{
name = bottom;
pos = (333,0);
},
{
name = top;
pos = (302,927);
}
);
shapes = (
{
closed = 1;
nodes = (
(253,0,l),
(343,616,l),
(325,616,l),
(413,0,l),
(554,0,l),
(651,710,l),
(544,710,l),
(482,109,l),
(493,109,l),
(406,710,l),
(266,710,l),
(179,109,l),
(190,109,l),
(127,710,l),
(15,710,l),
(112,0,l)
);
},
{
closed = 1;
nodes = (
(377,781,l),
(305,927,l),
(227,897,l),
(312,763,l)
);
}
);
};
layerId = "E1689EA5-A91E-47D2-BCA7-04A2C9D26D65";
shapes = (
{
alignment = -1;
ref = W;
},
{
alignment = -1;
pos = (227,0);
ref = gravecomb.case;
}
);
width = 665.5;
}
);
unicode = 7808;
},
{
glyphname = X;
lastChange = "2024-12-19 13:17:24 +0000";
layers = (
{
anchors = (
{
name = bottom;
pos = (217,0);
},
{
name = top;
pos = (217,710);
}
);
background = {
anchors = (
{
name = bottom;
pos = (217,0);
},
{
name = top;
pos = (217,710);
}
);
shapes = (
{
closed = 1;
nodes = (
(121,0,l),
(215,259,l),
(310,0,l),
(429,0,l),
(285,359,l),
(428,710,l),
(310,710,l),
(218,459,l),
(126,710,l),
(6,710,l),
(149,359,l),
(5,0,l)
);
}
);
};
layerId = "E1689EA5-A91E-47D2-BCA7-04A2C9D26D65";
shapes = (
{
closed = 1;
nodes = (
(121,0,l),
(215,259,l),
(310,0,l),
(429,0,l),
(285,359,l),
(428,710,l),
(310,710,l),
(218,459,l),
(126,710,l),
(6,710,l),
(149,359,l),
(5,0,l)
);
}
);
width = 433;
}
);
note = X;
unicode = 88;
},
{
glyphname = Y;
kernLeft = Y;
kernRight = Y;
lastChange = "2024-12-19 13:17:24 +0000";
layers = (
{
anchors = (
{
name = bottom;
pos = (209,0);
},
{
name = top;
pos = (209,710);
},
{
name = topleft;
pos = (3,710);
}
);
background = {
anchors = (
{
name = bottom;
pos = (209,0);
},
{
name = top;
pos = (209,710);
},
{
name = topleft;
pos = (3,710);
}
);
shapes = (
{
closed = 1;
nodes = (
(266,0,l),
(266,243,l),
(420,710,l),
(302,710,l),
(200,348,l),
(221,348,l),
(119,710,l),
(-1,710,l),
(152,243,l),
(152,0,l)
);
}
);
};
layerId = "E1689EA5-A91E-47D2-BCA7-04A2C9D26D65";
shapes = (
{
closed = 1;
nodes = (
(266,0,l),
(266,243,l),
(420,710,l),
(302,710,l),
(200,348,l),
(221,348,l),
(119,710,l),
(-1,710,l),
(152,243,l),
(152,0,l)
);
}
);
width = 418;
}
);
note = Y;
unicode = 89;
},
{
glyphname = Yacute;
kernLeft = Y;
kernRight = Y;
lastChange = "2024-12-19 13:17:37 +0000";
layers = (
{
background = {
anchors = (
{
name = bottom;
pos = (209,0);
},
{
name = top;
pos = (241,927);
},
{
name = topleft;
pos = (3,710);
}
);
shapes = (
{
closed = 1;
nodes = (
(266,0,l),
(266,243,l),
(420,710,l),
(302,710,l),
(200,348,l),
(221,348,l),
(119,710,l),
(-1,710,l),
(152,243,l),
(152,0,l)
);
},
{
closed = 1;
nodes = (
(316,897,l),
(238,927,l),
(166,781,l),
(231,763,l)
);
}
);
};
layerId = "E1689EA5-A91E-47D2-BCA7-04A2C9D26D65";
shapes = (
{
alignment = -1;
ref = Y;
},
{
alignment = -1;
pos = (166,0);
ref = acutecomb.case;
}
);
width = 418;
}
);
unicode = 221;
},
{
glyphname = Ycircumflex;
kernLeft = Y;
kernRight = Y;
lastChange = "2024-12-19 13:17:37 +0000";
layers = (
{
background = {
anchors = (
{
name = bottom;
pos = (209,0);
},
{
name = top;
pos = (210,889);
},
{
name = topleft;
pos = (3,710);
}
);
shapes = (
{
closed = 1;
nodes = (
(266,0,l),
(266,243,l),
(420,710,l),
(302,710,l),
(200,348,l),
(221,348,l),
(119,710,l),
(-1,710,l),
(152,243,l),
(152,0,l)
);
},
{
closed = 1;
nodes = (
(166,768,l),
(239,875,l),
(181,875,l),
(254,768,l),
(333,768,l),
(247,889,l),
(172,889,l),
(86,768,l)
);
}
);
};
layerId = "E1689EA5-A91E-47D2-BCA7-04A2C9D26D65";
shapes = (
{
alignment = -1;
ref = Y;
},
{
alignment = -1;
pos = (86,0);
ref = circumflexcomb.case;
}
);
width = 418;
}
);
unicode = 374;
},
{
glyphname = Ydieresis;
kernLeft = Y;
kernRight = Y;
lastChange = "2024-12-19 13:17:37 +0000";
layers = (
{
background = {
anchors = (
{
name = bottom;
pos = (209,0);
},
{
name = top;
pos = (210,886);
},
{
name = topleft;
pos = (3,710);
}
);
shapes = (
{
closed = 1;
nodes = (
(266,0,l),
(266,243,l),
(420,710,l),
(302,710,l),
(200,348,l),
(221,348,l),
(119,710,l),
(-1,710,l),
(152,243,l),
(152,0,l)
);
},
{
closed = 1;
nodes = (
(194,780,l),
(194,886,l),
(99,886,l),
(99,780,l)
);
},
{
closed = 1;
nodes = (
(326,780,l),
(326,886,l),
(231,886,l),
(231,780,l)
);
}
);
};
layerId = "E1689EA5-A91E-47D2-BCA7-04A2C9D26D65";
shapes = (
{
alignment = -1;
ref = Y;
},
{
alignment = -1;
pos = (99,0);
ref = dieresiscomb.case;
}
);
width = 418;
}
);
unicode = 376;
},
{
glyphname = Ygrave;
kernLeft = Y;
kernRight = Y;
lastChange = "2024-12-19 13:17:37 +0000";
layers = (
{
background = {
anchors = (
{
name = bottom;
pos = (209,0);
},
{
name = top;
pos = (178,927);
},
{
name = topleft;
pos = (3,710);
}
);
shapes = (
{
closed = 1;
nodes = (
(266,0,l),
(266,243,l),
(420,710,l),
(302,710,l),
(200,348,l),
(221,348,l),
(119,710,l),
(-1,710,l),
(152,243,l),
(152,0,l)
);
},
{
closed = 1;
nodes = (
(253,781,l),
(181,927,l),
(103,897,l),
(188,763,l)
);
}
);
};
layerId = "E1689EA5-A91E-47D2-BCA7-04A2C9D26D65";
shapes = (
{
alignment = -1;
ref = Y;
},
{
alignment = -1;
pos = (103,0);
ref = gravecomb.case;
}
);
width = 418;
}
);
unicode = 7922;
},
{
glyphname = Z;
kernLeft = Z;
kernRight = Z;
lastChange = "2024-12-19 13:17:24 +0000";
layers = (
{
anchors = (
{
name = bottom;
pos = (185,0);
},
{
name = center;
pos = (185,355);
},
{
name = top;
pos = (185,710);
}
);
background = {
anchors = (
{
name = bottom;
pos = (185,0);
},
{
name = center;
pos = (185,355);
},
{
name = top;
pos = (185,710);
}
);
shapes = (
{
closed = 1;
nodes = (
(351,0,l),
(351,96,l),
(142,96,l),
(348,631,l),
(348,710,l),
(24,710,l),
(24,614,l),
(226,614,l),
(20,80,l),
(20,0,l)
);
}
);
};
layerId = "E1689EA5-A91E-47D2-BCA7-04A2C9D26D65";
shapes = (
{
closed = 1;
nodes = (
(351,0,l),
(351,96,l),
(142,96,l),
(348,631,l),
(348,710,l),
(24,710,l),
(24,614,l),
(226,614,l),
(20,80,l),
(20,0,l)
);
}
);
width = 370.5;
}
);
note = Z;
unicode = 90;
},
{
glyphname = Zacute;
kernLeft = Z;
kernRight = Z;
lastChange = "2024-12-19 13:17:37 +0000";
layers = (
{
background = {
anchors = (
{
name = bottom;
pos = (185,0);
},
{
name = center;
pos = (185,355);
},
{
name = top;
pos = (217,927);
}
);
shapes = (
{
closed = 1;
nodes = (
(351,0,l),
(351,96,l),
(142,96,l),
(348,631,l),
(348,710,l),
(24,710,l),
(24,614,l),
(226,614,l),
(20,80,l),
(20,0,l)
);
},
{
closed = 1;
nodes = (
(292,897,l),
(214,927,l),
(142,781,l),
(207,763,l)
);
}
);
};
layerId = "E1689EA5-A91E-47D2-BCA7-04A2C9D26D65";
shapes = (
{
alignment = -1;
ref = Z;
},
{
alignment = -1;
pos = (142,0);
ref = acutecomb.case;
}
);
width = 370.5;
}
);
unicode = 377;
},
{
glyphname = Zcaron;
kernLeft = Z;
kernRight = Z;
lastChange = "2024-12-19 13:17:37 +0000";
layers = (
{
background = {
anchors = (
{
name = bottom;
pos = (185,0);
},
{
name = center;
pos = (185,355);
},
{
name = top;
pos = (186,889);
}
);
shapes = (
{
closed = 1;
nodes = (
(351,0,l),
(351,96,l),
(142,96,l),
(348,631,l),
(348,710,l),
(24,710,l),
(24,614,l),
(226,614,l),
(20,80,l),
(20,0,l)
);
},
{
closed = 1;
nodes = (
(223,768,l),
(309,889,l),
(230,889,l),
(157,782,l),
(215,782,l),
(142,889,l),
(62,889,l),
(148,768,l)
);
}
);
};
layerId = "E1689EA5-A91E-47D2-BCA7-04A2C9D26D65";
shapes = (
{
alignment = -1;
ref = Z;
},
{
alignment = -1;
pos = (62,0);
ref = caroncomb.case;
}
);
width = 370.5;
}
);
unicode = 381;
},
{
glyphname = Zdotaccent;
kernLeft = Z;
kernRight = Z;
lastChange = "2024-12-19 13:17:37 +0000";
layers = (
{
background = {
anchors = (
{
name = bottom;
pos = (185,0);
},
{
name = center;
pos = (185,355);
},
{
name = top;
pos = (186,886);
}
);
shapes = (
{
closed = 1;
nodes = (
(351,0,l),
(351,96,l),
(142,96,l),
(348,631,l),
(348,710,l),
(24,710,l),
(24,614,l),
(226,614,l),
(20,80,l),
(20,0,l)
);
},
{
closed = 1;
nodes = (
(241,780,l),
(241,886,l),
(129,886,l),
(129,780,l)
);
}
);
};
layerId = "E1689EA5-A91E-47D2-BCA7-04A2C9D26D65";
shapes = (
{
alignment = -1;
ref = Z;
},
{
alignment = -1;
pos = (129,0);
ref = dotaccentcomb.case;
}
);
width = 370.5;
}
);
unicode = 379;
},
{
glyphname = a;
kernLeft = a;
kernRight = a;
lastChange = "2024-12-19 13:17:24 +0000";
layers = (
{
anchors = (
{
name = bottom;
pos = (191,0);
},
{
name = ogonek;
pos = (347,0);
},
{
name = top;
pos = (192,509);
}
);
background = {
anchors = (
{
name = bottom;
pos = (191,0);
},
{
name = ogonek;
pos = (347,0);
},
{
name = top;
pos = (192,509);
}
);
shapes = (
{
closed = 1;
nodes = (
(361,0,l),
(357,70,o),
(357,97,o),
(357,130,cs),
(357,355,ls),
(357,466,o),
(303,521,o),
(197,521,cs),
(94,521,o),
(38,465,o),
(27,363,c),
(130,350,l),
(137,414,o),
(157,434,o),
(192,434,cs),
(224,434,o),
(245,418,o),
(245,368,cs),
(245,87,l),
(247,87,l),
(257,0,l)
);
},
{
closed = 1;
nodes = (
(212,-8,o),
(260,32,o),
(267,121,c),
(245,138,l),
(245,99,o),
(221,72,o),
(184,72,cs),
(151,72,o),
(132,89,o),
(132,140,cs),
(132,192,o),
(156,213,o),
(195,230,cs),
(258,257,l),
(258,332,l),
(153,293,ls),
(70,263,o),
(22,219,o),
(22,131,cs),
(22,43,o),
(67,-8,o),
(145,-8,cs)
);
}
);
};
layerId = "E1689EA5-A91E-47D2-BCA7-04A2C9D26D65";
shapes = (
{
closed = 1;
nodes = (
(361,0,l),
(357,70,o),
(357,97,o),
(357,130,cs),
(357,355,ls),
(357,466,o),
(303,521,o),
(197,521,cs),
(94,521,o),
(38,465,o),
(27,363,c),
(130,350,l),
(137,414,o),
(157,434,o),
(192,434,cs),
(224,434,o),
(245,418,o),
(245,368,cs),
(245,87,l),
(247,87,l),
(257,0,l)
);
},
{
closed = 1;
nodes = (
(212,-8,o),
(260,32,o),
(267,121,c),
(245,138,l),
(245,99,o),
(221,72,o),
(184,72,cs),
(151,72,o),
(132,89,o),
(132,140,cs),
(132,192,o),
(156,213,o),
(195,230,cs),
(258,257,l),
(258,332,l),
(153,293,ls),
(70,263,o),
(22,219,o),
(22,131,cs),
(22,43,o),
(67,-8,o),
(145,-8,cs)
);
}
);
width = 395.5;
}
);
note = a;
unicode = 97;
},
{
glyphname = aacute;
kernLeft = a;
kernRight = a;
lastChange = "2024-12-19 13:17:37 +0000";
layers = (
{
anchors = (
{
name = bottom;
pos = (191,0);
},
{
name = ogonek;
pos = (351,10);
},
{
name = top;
pos = (192,509);
}
);
background = {
anchors = (
{
name = bottom;
pos = (191,0);
},
{
name = ogonek;
pos = (351,10);
},
{
name = top;
pos = (192,509);
}
);
shapes = (
{
closed = 1;
nodes = (
(361,0,l),
(357,70,o),
(357,97,o),
(357,130,cs),
(357,355,ls),
(357,466,o),
(303,521,o),
(197,521,cs),
(94,521,o),
(38,465,o),
(27,363,c),
(130,350,l),
(137,414,o),
(157,434,o),
(192,434,cs),
(224,434,o),
(245,418,o),
(245,368,cs),
(245,87,l),
(247,87,l),
(257,0,l)
);
},
{
closed = 1;
nodes = (
(212,-8,o),
(260,32,o),
(267,121,c),
(245,138,l),
(245,99,o),
(221,72,o),
(184,72,cs),
(151,72,o),
(132,89,o),
(132,140,cs),
(132,192,o),
(156,213,o),
(195,230,cs),
(258,257,l),
(258,332,l),
(153,293,ls),
(70,263,o),
(22,219,o),
(22,131,cs),
(22,43,o),
(67,-8,o),
(145,-8,cs)
);
},
{
closed = 1;
nodes = (
(317,731,l),
(239,761,l),
(158,590,l),
(223,572,l)
);
}
);
};
layerId = "E1689EA5-A91E-47D2-BCA7-04A2C9D26D65";
shapes = (
{
alignment = -1;
ref = a;
},
{
alignment = -1;
pos = (158,0);
ref = acutecomb;
}
);
width = 395.5;
}
);
unicode = 225;
},
{
glyphname = abreve;
kernLeft = a;
kernRight = a;
lastChange = "2024-12-19 13:17:37 +0000";
layers = (
{
anchors = (
{
name = bottom;
pos = (191,0);
},
{
name = ogonek;
pos = (351,10);
},
{
name = top;
pos = (192,509);
}
);
background = {
anchors = (
{
name = bottom;
pos = (191,0);
},
{
name = ogonek;
pos = (351,10);
},
{
name = top;
pos = (192,509);
}
);
shapes = (
{
closed = 1;
nodes = (
(361,0,l),
(357,70,o),
(357,97,o),
(357,130,cs),
(357,355,ls),
(357,466,o),
(303,521,o),
(197,521,cs),
(94,521,o),
(38,465,o),
(27,363,c),
(130,350,l),
(137,414,o),
(157,434,o),
(192,434,cs),
(224,434,o),
(245,418,o),
(245,368,cs),
(245,87,l),
(247,87,l),
(257,0,l)
);
},
{
closed = 1;
nodes = (
(212,-8,o),
(260,32,o),
(267,121,c),
(245,138,l),
(245,99,o),
(221,72,o),
(184,72,cs),
(151,72,o),
(132,89,o),
(132,140,cs),
(132,192,o),
(156,213,o),
(195,230,cs),
(258,257,l),
(258,332,l),
(153,293,ls),
(70,263,o),
(22,219,o),
(22,131,cs),
(22,43,o),
(67,-8,o),
(145,-8,cs)
);
},
{
closed = 1;
nodes = (
(251,576,o),
(290,614,o),
(294,704,c),
(228,704,l),
(225,650,o),
(213,639,o),
(192,639,cs),
(171,639,o),
(159,650,o),
(157,704,c),
(90,704,l),
(94,614,o),
(133,576,o),
(192,576,cs)
);
}
);
};
layerId = "E1689EA5-A91E-47D2-BCA7-04A2C9D26D65";
shapes = (
{
alignment = -1;
ref = a;
},
{
alignment = -1;
pos = (90,0);
ref = brevecomb;
}
);
width = 395.5;
}
);
unicode = 259;
},
{
glyphname = acircumflex;
kernLeft = a;
kernRight = a;
lastChange = "2024-12-19 13:17:37 +0000";
layers = (
{
anchors = (
{
name = bottom;
pos = (191,0);
},
{
name = ogonek;
pos = (351,10);
},
{
name = top;
pos = (192,509);
}
);
background = {
anchors = (
{
name = bottom;
pos = (191,0);
},
{
name = ogonek;
pos = (351,10);
},
{
name = top;
pos = (192,509);
}
);
shapes = (
{
closed = 1;
nodes = (
(361,0,l),
(357,70,o),
(357,97,o),
(357,130,cs),
(357,355,ls),
(357,466,o),
(303,521,o),
(197,521,cs),
(94,521,o),
(38,465,o),
(27,363,c),
(130,350,l),
(137,414,o),
(157,434,o),
(192,434,cs),
(224,434,o),
(245,418,o),
(245,368,cs),
(245,87,l),
(247,87,l),
(257,0,l)
);
},
{
closed = 1;
nodes = (
(212,-8,o),
(260,32,o),
(267,121,c),
(245,138,l),
(245,99,o),
(221,72,o),
(184,72,cs),
(151,72,o),
(132,89,o),
(132,140,cs),
(132,192,o),
(156,213,o),
(195,230,cs),
(258,257,l),
(258,332,l),
(153,293,ls),
(70,263,o),
(22,219,o),
(22,131,cs),
(22,43,o),
(67,-8,o),
(145,-8,cs)
);
},
{
closed = 1;
nodes = (
(149,582,l),
(222,689,l),
(164,689,l),
(237,582,l),
(316,582,l),
(230,703,l),
(155,703,l),
(69,582,l)
);
}
);
};
layerId = "E1689EA5-A91E-47D2-BCA7-04A2C9D26D65";
shapes = (
{
alignment = -1;
ref = a;
},
{
alignment = -1;
pos = (69,0);
ref = circumflexcomb;
}
);
width = 395.5;
}
);
unicode = 226;
},
{
glyphname = adieresis;
kernLeft = a;
kernRight = a;
lastChange = "2024-12-19 13:17:37 +0000";
layers = (
{
anchors = (
{
name = bottom;
pos = (191,0);
},
{
name = ogonek;
pos = (351,10);
},
{
name = top;
pos = (192,509);
}
);
background = {
anchors = (
{
name = bottom;
pos = (191,0);
},
{
name = ogonek;
pos = (351,10);
},
{
name = top;
pos = (192,509);
}
);
shapes = (
{
closed = 1;
nodes = (
(361,0,l),
(357,70,o),
(357,97,o),
(357,130,cs),
(357,355,ls),
(357,466,o),
(303,521,o),
(197,521,cs),
(94,521,o),
(38,465,o),
(27,363,c),
(130,350,l),
(137,414,o),
(157,434,o),
(192,434,cs),
(224,434,o),
(245,418,o),
(245,368,cs),
(245,87,l),
(247,87,l),
(257,0,l)
);
},
{
closed = 1;
nodes = (
(212,-8,o),
(260,32,o),
(267,121,c),
(245,138,l),
(245,99,o),
(221,72,o),
(184,72,cs),
(151,72,o),
(132,89,o),
(132,140,cs),
(132,192,o),
(156,213,o),
(195,230,cs),
(258,257,l),
(258,332,l),
(153,293,ls),
(70,263,o),
(22,219,o),
(22,131,cs),
(22,43,o),
(67,-8,o),
(145,-8,cs)
);
},
{
closed = 1;
nodes = (
(177,584,l),
(177,690,l),
(82,690,l),
(82,584,l)
);
},
{
closed = 1;
nodes = (
(309,584,l),
(309,690,l),
(214,690,l),
(214,584,l)
);
}
);
};
layerId = "E1689EA5-A91E-47D2-BCA7-04A2C9D26D65";
shapes = (
{
alignment = -1;
ref = a;
},
{
alignment = -1;
pos = (82,0);
ref = dieresiscomb;
}
);
width = 395.5;
}
);
unicode = 228;
},
{
glyphname = agrave;
kernLeft = a;
kernRight = a;
lastChange = "2024-12-19 13:17:51 +0000";
layers = (
{
anchors = (
{
name = bottom;
pos = (191,0);
},
{
name = ogonek;
pos = (351,10);
},
{
name = top;
pos = (192,509);
}
);
background = {
anchors = (
{
name = bottom;
pos = (191,0);
},
{
name = ogonek;
pos = (351,10);
},
{
name = top;
pos = (192,509);
}
);
shapes = (
{
closed = 1;
nodes = (
(361,0,l),
(357,70,o),
(357,97,o),
(357,130,cs),
(357,355,ls),
(357,466,o),
(303,521,o),
(197,521,cs),
(94,521,o),
(38,465,o),
(27,363,c),
(130,350,l),
(137,414,o),
(157,434,o),
(192,434,cs),
(224,434,o),
(245,418,o),
(245,368,cs),
(245,87,l),
(247,87,l),
(257,0,l)
);
},
{
closed = 1;
nodes = (
(212,-8,o),
(260,32,o),
(267,121,c),
(245,138,l),
(245,99,o),
(221,72,o),
(184,72,cs),
(151,72,o),
(132,89,o),
(132,140,cs),
(132,192,o),
(156,213,o),
(195,230,cs),
(258,257,l),
(258,332,l),
(153,293,ls),
(70,263,o),
(22,219,o),
(22,131,cs),
(22,43,o),
(67,-8,o),
(145,-8,cs)
);
},
{
closed = 1;
nodes = (
(220,590,l),
(139,761,l),
(61,731,l),
(155,572,l)
);
}
);
};
layerId = "E1689EA5-A91E-47D2-BCA7-04A2C9D26D65";
shapes = (
{
alignment = -1;
ref = a;
},
{
alignment = -1;
pos = (61,0);
ref = gravecomb;
}
);
width = 395.5;
}
);
unicode = 224;
},
{
glyphname = amacron;
kernLeft = a;
kernRight = a;
lastChange = "2024-12-19 13:17:37 +0000";
layers = (
{
background = {
anchors = (
{
name = bottom;
pos = (191,0);
},
{
name = ogonek;
pos = (347,0);
},
{
name = top;
pos = (193,667);
}
);
shapes = (
{
closed = 1;
nodes = (
(361,0,l),
(357,70,o),
(357,97,o),
(357,130,cs),
(357,355,ls),
(357,466,o),
(303,521,o),
(197,521,cs),
(94,521,o),
(38,465,o),
(27,363,c),
(130,350,l),
(137,414,o),
(157,434,o),
(192,434,cs),
(224,434,o),
(245,418,o),
(245,368,cs),
(245,87,l),
(247,87,l),
(257,0,l)
);
},
{
closed = 1;
nodes = (
(212,-8,o),
(260,32,o),
(267,121,c),
(245,138,l),
(245,99,o),
(221,72,o),
(184,72,cs),
(151,72,o),
(132,89,o),
(132,140,cs),
(132,192,o),
(156,213,o),
(195,230,cs),
(258,257,l),
(258,332,l),
(153,293,ls),
(70,263,o),
(22,219,o),
(22,131,cs),
(22,43,o),
(67,-8,o),
(145,-8,cs)
);
},
{
closed = 1;
nodes = (
(319,596,l),
(319,667,l),
(66,667,l),
(66,596,l)
);
}
);
};
layerId = "E1689EA5-A91E-47D2-BCA7-04A2C9D26D65";
shapes = (
{
alignment = -1;
ref = a;
},
{
alignment = -1;
pos = (66,0);
ref = macroncomb;
}
);
width = 395.5;
}
);
unicode = 257;
},
{
glyphname = aogonek;
kernLeft = a;
kernRight = a;
lastChange = "2024-12-19 13:17:24 +0000";
layers = (
{
background = {
shapes = (
{
closed = 1;
nodes = (
(364,-98,l),
(338,-101,o),
(309,-90,o),
(309,-58,cs),
(309,-35,o),
(317,-17,o),
(328,0,c),
(361,0,l),
(357,70,o),
(357,97,o),
(357,130,cs),
(357,355,ls),
(357,466,o),
(304,521,o),
(199,521,cs),
(95,521,o),
(38,461,o),
(27,363,c),
(130,350,l),
(137,410,o),
(157,434,o),
(193,434,cs),
(224,434,o),
(245,418,o),
(245,368,cs),
(245,87,l),
(247,87,l),
(257,0,l),
(311,0,l),
(282,20,l),
(265,3,o),
(235,-37,o),
(235,-82,cs),
(235,-156,o),
(305,-170,o),
(364,-161,c)
);
},
{
closed = 1;
nodes = (
(212,-8,o),
(260,32,o),
(267,121,c),
(245,138,l),
(245,99,o),
(221,72,o),
(184,72,cs),
(151,72,o),
(132,89,o),
(132,140,cs),
(132,192,o),
(156,213,o),
(195,230,cs),
(258,257,l),
(258,332,l),
(153,293,ls),
(70,263,o),
(22,219,o),
(22,131,cs),
(22,43,o),
(67,-8,o),
(145,-8,cs)
);
}
);
};
layerId = "E1689EA5-A91E-47D2-BCA7-04A2C9D26D65";
shapes = (
{
closed = 1;
nodes = (
(364,-98,l),
(338,-101,o),
(309,-90,o),
(309,-58,cs),
(309,-35,o),
(317,-17,o),
(328,0,c),
(361,0,l),
(357,70,o),
(357,97,o),
(357,130,cs),
(357,355,ls),
(357,466,o),
(304,521,o),
(199,521,cs),
(95,521,o),
(38,461,o),
(27,363,c),
(130,350,l),
(137,410,o),
(157,434,o),
(193,434,cs),
(224,434,o),
(245,418,o),
(245,368,cs),
(245,87,l),
(247,87,l),
(257,0,l),
(311,0,l),
(282,20,l),
(265,3,o),
(235,-37,o),
(235,-82,cs),
(235,-156,o),
(305,-170,o),
(364,-161,c)
);
},
{
closed = 1;
nodes = (
(212,-8,o),
(260,32,o),
(267,121,c),
(245,138,l),
(245,99,o),
(221,72,o),
(184,72,cs),
(151,72,o),
(132,89,o),
(132,140,cs),
(132,192,o),
(156,213,o),
(195,230,cs),
(258,257,l),
(258,332,l),
(153,293,ls),
(70,263,o),
(22,219,o),
(22,131,cs),
(22,43,o),
(67,-8,o),
(145,-8,cs)
);
}
);
width = 395.5;
}
);
unicode = 261;
},
{
glyphname = aring;
kernLeft = a;
kernRight = a;
lastChange = "2024-12-19 13:17:37 +0000";
layers = (
{
anchors = (
{
name = bottom;
pos = (191,0);
},
{
name = ogonek;
pos = (351,10);
},
{
name = top;
pos = (192,509);
}
);
background = {
anchors = (
{
name = bottom;
pos = (191,0);
},
{
name = ogonek;
pos = (351,10);
},
{
name = top;
pos = (192,509);
}
);
shapes = (
{
closed = 1;
nodes = (
(361,0,l),
(357,70,o),
(357,97,o),
(357,130,cs),
(357,355,ls),
(357,466,o),
(303,521,o),
(197,521,cs),
(94,521,o),
(38,465,o),
(27,363,c),
(130,350,l),
(137,414,o),
(157,434,o),
(192,434,cs),
(224,434,o),
(245,418,o),
(245,368,cs),
(245,87,l),
(247,87,l),
(257,0,l)
);
},
{
closed = 1;
nodes = (
(212,-8,o),
(260,32,o),
(267,121,c),
(245,138,l),
(245,99,o),
(221,72,o),
(184,72,cs),
(151,72,o),
(132,89,o),
(132,140,cs),
(132,192,o),
(156,213,o),
(195,230,cs),
(258,257,l),
(258,332,l),
(153,293,ls),
(70,263,o),
(22,219,o),
(22,131,cs),
(22,43,o),
(67,-8,o),
(145,-8,cs)
);
},
{
closed = 1;
nodes = (
(247,572,o),
(286,611,o),
(286,662,cs),
(286,714,o),
(247,752,o),
(192,752,cs),
(138,752,o),
(98,714,o),
(98,662,cs),
(98,611,o),
(138,572,o),
(192,572,cs)
);
},
{
closed = 1;
nodes = (
(170,621,o),
(155,636,o),
(155,662,cs),
(155,689,o),
(170,704,o),
(192,704,cs),
(214,704,o),
(230,689,o),
(230,662,cs),
(230,636,o),
(214,621,o),
(192,621,cs)
);
}
);
};
layerId = "E1689EA5-A91E-47D2-BCA7-04A2C9D26D65";
shapes = (
{
alignment = -1;
ref = a;
},
{
alignment = -1;
pos = (98,0);
ref = ringcomb;
}
);
width = 395.5;
}
);
unicode = 229;
},
{
glyphname = atilde;
kernLeft = a;
kernRight = a;
lastChange = "2024-12-19 13:17:37 +0000";
layers = (
{
anchors = (
{
name = bottom;
pos = (191,0);
},
{
name = ogonek;
pos = (351,10);
},
{
name = top;
pos = (192,509);
}
);
background = {
anchors = (
{
name = bottom;
pos = (191,0);
},
{
name = ogonek;
pos = (351,10);
},
{
name = top;
pos = (192,509);
}
);
shapes = (
{
closed = 1;
nodes = (
(361,0,l),
(357,70,o),
(357,97,o),
(357,130,cs),
(357,355,ls),
(357,466,o),
(303,521,o),
(197,521,cs),
(94,521,o),
(38,465,o),
(27,363,c),
(130,350,l),
(137,414,o),
(157,434,o),
(192,434,cs),
(224,434,o),
(245,418,o),
(245,368,cs),
(245,87,l),
(247,87,l),
(257,0,l)
);
},
{
closed = 1;
nodes = (
(212,-8,o),
(260,32,o),
(267,121,c),
(245,138,l),
(245,99,o),
(221,72,o),
(184,72,cs),
(151,72,o),
(132,89,o),
(132,140,cs),
(132,192,o),
(156,213,o),
(195,230,cs),
(258,257,l),
(258,332,l),
(153,293,ls),
(70,263,o),
(22,219,o),
(22,131,cs),
(22,43,o),
(67,-8,o),
(145,-8,cs)
);
},
{
closed = 1;
nodes = (
(278,595,o),
(309,621,o),
(311,698,c),
(254,698,l),
(253,675,o),
(247,661,o),
(231,661,cs),
(211,661,o),
(187,698,o),
(142,698,cs),
(106,698,o),
(75,672,o),
(73,597,c),
(130,597,l),
(132,620,o),
(137,633,o),
(154,633,cs),
(173,633,o),
(197,595,o),
(241,595,cs)
);
}
);
};
layerId = "E1689EA5-A91E-47D2-BCA7-04A2C9D26D65";
shapes = (
{
alignment = -1;
ref = a;
},
{
alignment = -1;
pos = (73,0);
ref = tildecomb;
}
);
width = 395.5;
}
);
unicode = 227;
},
{
glyphname = ae;
kernLeft = a;
kernRight = e;
lastChange = "2024-12-19 13:17:24 +0000";
layers = (
{
anchors = (
{
name = bottom;
pos = (306,0);
},
{
name = top;
pos = (313,509);
}
);
background = {
anchors = (
{
name = bottom;
pos = (306,0);
},
{
name = top;
pos = (313,509);
}
);
shapes = (
{
closed = 1;
nodes = (
(513,-12,o),
(578,40,o),
(584,174,c),
(485,182,l),
(479,103,o),
(464,73,o),
(423,73,cs),
(379,73,o),
(356,105,o),
(356,202,cs),
(356,312,ls),
(356,407,o),
(381,438,o),
(424,438,cs),
(464,438,o),
(485,407,o),
(485,323,cs),
(485,267,l),
(524,309,l),
(325,309,l),
(325,238,l),
(581,238,l),
(593,363,o),
(574,521,o),
(427,521,cs),
(372,521,o),
(325,500,o),
(293,433,c),
(323,436,l),
(301,495,o),
(253,521,o),
(191,521,cs),
(94,521,o),
(37,461,o),
(27,363,c),
(130,350,l),
(137,410,o),
(157,434,o),
(193,434,cs),
(224,434,o),
(245,418,o),
(245,368,cs),
(245,103,l),
(278,103,l),
(294,24,o),
(352,-12,o),
(425,-12,cs)
);
},
{
closed = 1;
nodes = (
(246,-12,o),
(310,28,o),
(318,124,c),
(245,137,l),
(245,94,o),
(222,69,o),
(186,69,cs),
(152,69,o),
(132,87,o),
(132,140,cs),
(132,192,o),
(156,213,o),
(195,230,cs),
(258,257,l),
(258,332,l),
(153,293,ls),
(70,263,o),
(22,219,o),
(22,131,cs),
(22,40,o),
(76,-12,o),
(167,-12,cs)
);
}
);
};
layerId = "E1689EA5-A91E-47D2-BCA7-04A2C9D26D65";
shapes = (
{
closed = 1;
nodes = (
(513,-12,o),
(578,40,o),
(584,174,c),
(485,182,l),
(479,103,o),
(464,73,o),
(423,73,cs),
(379,73,o),
(356,105,o),
(356,202,cs),
(356,312,ls),
(356,407,o),
(381,438,o),
(424,438,cs),
(464,438,o),
(485,407,o),
(485,323,cs),
(485,267,l),
(524,309,l),
(325,309,l),
(325,238,l),
(581,238,l),
(593,363,o),
(574,521,o),
(427,521,cs),
(372,521,o),
(325,500,o),
(293,433,c),
(323,436,l),
(301,495,o),
(253,521,o),
(191,521,cs),
(94,521,o),
(37,461,o),
(27,363,c),
(130,350,l),
(137,410,o),
(157,434,o),
(193,434,cs),
(224,434,o),
(245,418,o),
(245,368,cs),
(245,103,l),
(278,103,l),
(294,24,o),
(352,-12,o),
(425,-12,cs)
);
},
{
closed = 1;
nodes = (
(246,-12,o),
(310,28,o),
(318,124,c),
(245,137,l),
(245,94,o),
(222,69,o),
(186,69,cs),
(152,69,o),
(132,87,o),
(132,140,cs),
(132,192,o),
(156,213,o),
(195,230,cs),
(258,257,l),
(258,332,l),
(153,293,ls),
(70,263,o),
(22,219,o),
(22,131,cs),
(22,40,o),
(76,-12,o),
(167,-12,cs)
);
}
);
width = 612;
}
);
unicode = 230;
},
{
glyphname = aeacute;
kernLeft = a;
kernRight = e;
lastChange = "2024-12-19 13:17:37 +0000";
layers = (
{
background = {
anchors = (
{
name = bottom;
pos = (306,0);
},
{
name = top;
pos = (354,751);
}
);
shapes = (
{
closed = 1;
nodes = (
(513,-12,o),
(578,40,o),
(584,174,c),
(485,182,l),
(479,103,o),
(464,73,o),
(423,73,cs),
(379,73,o),
(356,105,o),
(356,202,cs),
(356,312,ls),
(356,407,o),
(381,438,o),
(424,438,cs),
(464,438,o),
(485,407,o),
(485,323,cs),
(485,267,l),
(524,309,l),
(325,309,l),
(325,238,l),
(581,238,l),
(593,363,o),
(574,521,o),
(427,521,cs),
(372,521,o),
(325,500,o),
(293,433,c),
(323,436,l),
(301,495,o),
(253,521,o),
(191,521,cs),
(94,521,o),
(37,461,o),
(27,363,c),
(130,350,l),
(137,410,o),
(157,434,o),
(193,434,cs),
(224,434,o),
(245,418,o),
(245,368,cs),
(245,103,l),
(278,103,l),
(294,24,o),
(352,-12,o),
(425,-12,cs)
);
},
{
closed = 1;
nodes = (
(246,-12,o),
(310,28,o),
(318,124,c),
(245,137,l),
(245,94,o),
(222,69,o),
(186,69,cs),
(152,69,o),
(132,87,o),
(132,140,cs),
(132,192,o),
(156,213,o),
(195,230,cs),
(258,257,l),
(258,332,l),
(153,293,ls),
(70,263,o),
(22,219,o),
(22,131,cs),
(22,40,o),
(76,-12,o),
(167,-12,cs)
);
},
{
closed = 1;
nodes = (
(438,731,l),
(360,761,l),
(279,590,l),
(344,572,l)
);
}
);
};
layerId = "E1689EA5-A91E-47D2-BCA7-04A2C9D26D65";
shapes = (
{
alignment = -1;
ref = ae;
},
{
alignment = -1;
pos = (279,0);
ref = acutecomb;
}
);
width = 612;
}
);
unicode = 509;
},
{
glyphname = b;
kernLeft = h;
kernRight = b;
lastChange = "2024-12-19 13:17:24 +0000";
layers = (
{
anchors = (
{
name = bottom;
pos = (215,0);
},
{
name = center;
pos = (215,254);
},
{
name = top;
pos = (215,508);
}
);
background = {
anchors = (
{
name = bottom;
pos = (215,0);
},
{
name = center;
pos = (215,254);
},
{
name = top;
pos = (215,508);
}
);
shapes = (
{
closed = 1;
nodes = (
(331,-12,o),
(398,58,o),
(398,254,cs),
(398,453,o),
(332,521,o),
(249,521,cs),
(190,521,o),
(146,484,o),
(130,389,c),
(153,325,l),
(153,413,o),
(183,435,o),
(219,435,cs),
(262,435,o),
(284,398,o),
(284,314,cs),
(284,195,ls),
(284,112,o),
(262,75,o),
(219,75,cs),
(183,75,o),
(153,96,o),
(153,178,c),
(123,122,l),
(137,29,o),
(185,-12,o),
(251,-12,cs)
);
},
{
closed = 1;
nodes = (
(138,0,l),
(153,111,l),
(153,710,l),
(41,710,l),
(41,0,l)
);
}
);
};
layerId = "E1689EA5-A91E-47D2-BCA7-04A2C9D26D65";
shapes = (
{
closed = 1;
nodes = (
(331,-12,o),
(398,58,o),
(398,254,cs),
(398,453,o),
(332,521,o),
(249,521,cs),
(190,521,o),
(146,484,o),
(130,389,c),
(153,325,l),
(153,413,o),
(183,435,o),
(219,435,cs),
(262,435,o),
(284,398,o),
(284,314,cs),
(284,195,ls),
(284,112,o),
(262,75,o),
(219,75,cs),
(183,75,o),
(153,96,o),
(153,178,c),
(123,122,l),
(137,29,o),
(185,-12,o),
(251,-12,cs)
);
},
{
closed = 1;
nodes = (
(138,0,l),
(153,111,l),
(153,710,l),
(41,710,l),
(41,0,l)
);
}
);
width = 424.5;
}
);
note = b;
unicode = 98;
},
{
glyphname = c;
kernLeft = o;
kernRight = c;
lastChange = "2024-12-19 13:17:24 +0000";
layers = (
{
anchors = (
{
name = bottom;
pos = (213,0);
},
{
name = top;
pos = (197,508);
}
);
background = {
anchors = (
{
name = bottom;
pos = (213,0);
},
{
name = top;
pos = (197,508);
}
);
shapes = (
{
closed = 1;
nodes = (
(295,-12,o),
(363,39,o),
(368,197,c),
(269,203,l),
(264,111,o),
(251,76,o),
(207,76,cs),
(163,76,o),
(141,109,o),
(141,203,cs),
(141,306,ls),
(141,400,o),
(163,434,o),
(207,434,cs),
(250,434,o),
(264,399,o),
(269,307,c),
(367,313,l),
(362,471,o),
(294,521,o),
(205,521,cs),
(101,521,o),
(27,449,o),
(27,254,cs),
(27,59,o),
(101,-12,o),
(205,-12,cs)
);
}
);
};
layerId = "E1689EA5-A91E-47D2-BCA7-04A2C9D26D65";
shapes = (
{
closed = 1;
nodes = (
(295,-12,o),
(363,39,o),
(368,197,c),
(269,203,l),
(264,111,o),
(251,76,o),
(207,76,cs),
(163,76,o),
(141,109,o),
(141,203,cs),
(141,306,ls),
(141,400,o),
(163,434,o),
(207,434,cs),
(250,434,o),
(264,399,o),
(269,307,c),
(367,313,l),
(362,471,o),
(294,521,o),
(205,521,cs),
(101,521,o),
(27,449,o),
(27,254,cs),
(27,59,o),
(101,-12,o),
(205,-12,cs)
);
}
);
width = 390.5;
}
);
note = c;
unicode = 99;
},
{
glyphname = cacute;
kernLeft = o;
kernRight = c;
lastChange = "2024-12-19 13:17:37 +0000";
layers = (
{
anchors = (
{
name = bottom;
pos = (192,0);
},
{
name = top;
pos = (192,508);
}
);
background = {
anchors = (
{
name = bottom;
pos = (192,0);
},
{
name = top;
pos = (192,508);
}
);
shapes = (
{
closed = 1;
nodes = (
(295,-12,o),
(363,39,o),
(368,197,c),
(269,203,l),
(264,111,o),
(251,76,o),
(207,76,cs),
(163,76,o),
(141,109,o),
(141,203,cs),
(141,306,ls),
(141,400,o),
(163,434,o),
(207,434,cs),
(250,434,o),
(264,399,o),
(269,307,c),
(367,313,l),
(362,471,o),
(294,521,o),
(205,521,cs),
(101,521,o),
(27,449,o),
(27,254,cs),
(27,59,o),
(101,-12,o),
(205,-12,cs)
);
},
{
closed = 1;
nodes = (
(321,730,l),
(243,760,l),
(162,589,l),
(227,571,l)
);
}
);
};
layerId = "E1689EA5-A91E-47D2-BCA7-04A2C9D26D65";
shapes = (
{
alignment = -1;
ref = c;
},
{
alignment = -1;
pos = (162,-1);
ref = acutecomb;
}
);
width = 390.5;
}
);
unicode = 263;
},
{
glyphname = ccaron;
kernLeft = o;
kernRight = c;
lastChange = "2024-12-19 13:17:37 +0000";
layers = (
{
anchors = (
{
name = bottom;
pos = (192,0);
},
{
name = top;
pos = (192,508);
}
);
background = {
anchors = (
{
name = bottom;
pos = (192,0);
},
{
name = top;
pos = (192,508);
}
);
shapes = (
{
closed = 1;
nodes = (
(295,-12,o),
(363,39,o),
(368,197,c),
(269,203,l),
(264,111,o),
(251,76,o),
(207,76,cs),
(163,76,o),
(141,109,o),
(141,203,cs),
(141,306,ls),
(141,400,o),
(163,434,o),
(207,434,cs),
(250,434,o),
(264,399,o),
(269,307,c),
(367,313,l),
(362,471,o),
(294,521,o),
(205,521,cs),
(101,521,o),
(27,449,o),
(27,254,cs),
(27,59,o),
(101,-12,o),
(205,-12,cs)
);
},
{
closed = 1;
nodes = (
(232,581,l),
(318,702,l),
(241,702,l),
(168,595,l),
(226,595,l),
(153,702,l),
(75,702,l),
(161,581,l)
);
}
);
};
layerId = "E1689EA5-A91E-47D2-BCA7-04A2C9D26D65";
shapes = (
{
alignment = -1;
ref = c;
},
{
alignment = -1;
pos = (75,-1);
ref = caroncomb;
}
);
width = 390.5;
}
);
unicode = 269;
},
{
glyphname = ccedilla;
kernLeft = o;
kernRight = c;
lastChange = "2024-12-19 13:17:37 +0000";
layers = (
{
anchors = (
{
name = bottom;
pos = (192,0);
},
{
name = top;
pos = (192,508);
}
);
background = {
anchors = (
{
name = bottom;
pos = (192,0);
},
{
name = top;
pos = (192,508);
}
);
shapes = (
{
closed = 1;
nodes = (
(295,-12,o),
(363,39,o),
(368,197,c),
(269,203,l),
(264,111,o),
(251,76,o),
(207,76,cs),
(163,76,o),
(141,109,o),
(141,203,cs),
(141,306,ls),
(141,400,o),
(163,434,o),
(207,434,cs),
(250,434,o),
(264,399,o),
(269,307,c),
(367,313,l),
(362,471,o),
(294,521,o),
(205,521,cs),
(101,521,o),
(27,449,o),
(27,254,cs),
(27,59,o),
(101,-12,o),
(205,-12,cs)
);
},
{
closed = 1;
nodes = (
(254,-167,o),
(294,-143,o),
(294,-94,cs),
(294,-46,o),
(251,-26,o),
(207,-21,c),
(234,-39,l),
(234,2,l),
(178,2,l),
(174,-56,l),
(211,-63,o),
(225,-70,o),
(225,-86,cs),
(225,-112,o),
(182,-110,o),
(147,-102,c),
(147,-161,l),
(169,-165,o),
(183,-167,o),
(201,-167,cs)
);
}
);
};
layerId = "E1689EA5-A91E-47D2-BCA7-04A2C9D26D65";
shapes = (
{
alignment = -1;
ref = c;
},
{
alignment = -1;
pos = (147,0);
ref = cedillacomb;
}
);
width = 390;
}
);
unicode = 231;
},
{
glyphname = ccircumflex;
kernLeft = o;
kernRight = c;
lastChange = "2024-12-19 13:17:37 +0000";
layers = (
{
anchors = (
{
name = bottom;
pos = (192,0);
},
{
name = top;
pos = (192,508);
}
);
background = {
anchors = (
{
name = bottom;
pos = (192,0);
},
{
name = top;
pos = (192,508);
}
);
shapes = (
{
closed = 1;
nodes = (
(295,-12,o),
(363,39,o),
(368,197,c),
(269,203,l),
(264,111,o),
(251,76,o),
(207,76,cs),
(163,76,o),
(141,109,o),
(141,203,cs),
(141,306,ls),
(141,400,o),
(163,434,o),
(207,434,cs),
(250,434,o),
(264,399,o),
(269,307,c),
(367,313,l),
(362,471,o),
(294,521,o),
(205,521,cs),
(101,521,o),
(27,449,o),
(27,254,cs),
(27,59,o),
(101,-12,o),
(205,-12,cs)
);
},
{
closed = 1;
nodes = (
(153,581,l),
(226,688,l),
(168,688,l),
(241,581,l),
(320,581,l),
(234,702,l),
(159,702,l),
(73,581,l)
);
}
);
};
layerId = "E1689EA5-A91E-47D2-BCA7-04A2C9D26D65";
shapes = (
{
alignment = -1;
ref = c;
},
{
alignment = -1;
pos = (73,-1);
ref = circumflexcomb;
}
);
width = 390.5;
}
);
unicode = 265;
},
{
glyphname = cdotaccent;
kernLeft = o;
kernRight = c;
lastChange = "2024-12-19 13:17:37 +0000";
layers = (
{
anchors = (
{
name = bottom;
pos = (192,0);
},
{
name = top;
pos = (192,508);
}
);
background = {
anchors = (
{
name = bottom;
pos = (192,0);
},
{
name = top;
pos = (192,508);
}
);
shapes = (
{
closed = 1;
nodes = (
(295,-12,o),
(363,39,o),
(368,197,c),
(269,203,l),
(264,111,o),
(251,76,o),
(207,76,cs),
(163,76,o),
(141,109,o),
(141,203,cs),
(141,306,ls),
(141,400,o),
(163,434,o),
(207,434,cs),
(250,434,o),
(264,399,o),
(269,307,c),
(367,313,l),
(362,471,o),
(294,521,o),
(205,521,cs),
(101,521,o),
(27,449,o),
(27,254,cs),
(27,59,o),
(101,-12,o),
(205,-12,cs)
);
},
{
closed = 1;
nodes = (
(252,583,l),
(252,689,l),
(140,689,l),
(140,583,l)
);
}
);
};
layerId = "E1689EA5-A91E-47D2-BCA7-04A2C9D26D65";
shapes = (
{
alignment = -1;
ref = c;
},
{
alignment = -1;
pos = (140,-1);
ref = dotaccentcomb;
}
);
width = 390.5;
}
);
unicode = 267;
},
{
glyphname = d;
kernLeft = d;
kernRight = d;
lastChange = "2024-12-19 13:17:24 +0000";
layers = (
{
anchors = (
{
name = bottom;
pos = (211,0);
},
{
name = center;
pos = (211,254);
},
{
name = top;
pos = (211,758);
},
{
name = topright;
pos = (397,758);
}
);
background = {
anchors = (
{
name = bottom;
pos = (211,0);
},
{
name = center;
pos = (211,254);
},
{
name = top;
pos = (211,758);
},
{
name = topright;
pos = (397,758);
}
);
shapes = (
{
closed = 1;
nodes = (
(235,-12,o),
(281,29,o),
(294,123,c),
(272,178,l),
(272,96,o),
(242,75,o),
(205,75,cs),
(163,75,o),
(141,112,o),
(141,195,cs),
(141,314,ls),
(141,398,o),
(163,435,o),
(205,435,cs),
(242,435,o),
(272,413,o),
(272,325,c),
(295,389,l),
(279,484,o),
(235,521,o),
(176,521,cs),
(93,521,o),
(27,453,o),
(27,254,cs),
(27,58,o),
(94,-12,o),
(174,-12,cs)
);
},
{
closed = 1;
nodes = (
(384,0,l),
(384,710,l),
(272,710,l),
(272,121,l),
(273,113,l),
(273,0,l)
);
}
);
};
layerId = "E1689EA5-A91E-47D2-BCA7-04A2C9D26D65";
shapes = (
{
closed = 1;
nodes = (
(235,-12,o),
(281,29,o),
(294,123,c),
(272,178,l),
(272,96,o),
(242,75,o),
(205,75,cs),
(163,75,o),
(141,112,o),
(141,195,cs),
(141,314,ls),
(141,398,o),
(163,435,o),
(205,435,cs),
(242,435,o),
(272,413,o),
(272,325,c),
(295,389,l),
(279,484,o),
(235,521,o),
(176,521,cs),
(93,521,o),
(27,453,o),
(27,254,cs),
(27,58,o),
(94,-12,o),
(174,-12,cs)
);
},
{
closed = 1;
nodes = (
(384,0,l),
(384,710,l),
(272,710,l),
(272,121,l),
(273,113,l),
(273,0,l)
);
}
);
width = 424.5;
}
);
note = d;
unicode = 100;
},
{
glyphname = dcaron;
kernLeft = d;
kernRight = dcaron;
lastChange = "2024-12-19 13:17:37 +0000";
layers = (
{
background = {
anchors = (
{
name = bottom;
pos = (211,0);
},
{
name = center;
pos = (211,254);
},
{
name = top;
pos = (211,758);
},
{
name = topright;
pos = (397,758);
}
);
shapes = (
{
closed = 1;
nodes = (
(501,503,l),
(528,710,l),
(446,710,l),
(436,503,l)
);
},
{
closed = 1;
nodes = (
(235,-12,o),
(281,29,o),
(294,123,c),
(272,178,l),
(272,96,o),
(242,75,o),
(205,75,cs),
(163,75,o),
(141,112,o),
(141,195,cs),
(141,314,ls),
(141,398,o),
(163,435,o),
(205,435,cs),
(242,435,o),
(272,413,o),
(272,325,c),
(295,389,l),
(279,484,o),
(235,521,o),
(176,521,cs),
(93,521,o),
(27,453,o),
(27,254,cs),
(27,58,o),
(94,-12,o),
(174,-12,cs)
);
},
{
closed = 1;
nodes = (
(384,0,l),
(384,710,l),
(272,710,l),
(272,121,l),
(273,113,l),
(273,0,l)
);
}
);
};
layerId = "E1689EA5-A91E-47D2-BCA7-04A2C9D26D65";
shapes = (
{
closed = 1;
nodes = (
(501,503,l),
(528,710,l),
(446,710,l),
(436,503,l)
);
},
{
alignment = -1;
ref = d;
}
);
width = 490;
}
);
unicode = 271;
},
{
glyphname = dcroat;
kernLeft = d;
kernRight = d;
lastChange = "2024-12-19 13:17:38 +0000";
layers = (
{
background = {
anchors = (
{
name = bottom;
pos = (211,0);
},
{
name = center;
pos = (211,254);
},
{
name = top;
pos = (211,758);
},
{
name = topright;
pos = (397,758);
}
);
shapes = (
{
closed = 1;
nodes = (
(426,569,l),
(426,644,l),
(178,644,l),
(178,569,l)
);
},
{
closed = 1;
nodes = (
(235,-12,o),
(281,29,o),
(294,123,c),
(272,178,l),
(272,96,o),
(242,75,o),
(205,75,cs),
(163,75,o),
(141,112,o),
(141,195,cs),
(141,314,ls),
(141,398,o),
(163,435,o),
(205,435,cs),
(242,435,o),
(272,413,o),
(272,325,c),
(295,389,l),
(279,484,o),
(235,521,o),
(176,521,cs),
(93,521,o),
(27,453,o),
(27,254,cs),
(27,58,o),
(94,-12,o),
(174,-12,cs)
);
},
{
closed = 1;
nodes = (
(384,0,l),
(384,710,l),
(272,710,l),
(272,121,l),
(273,113,l),
(273,0,l)
);
}
);
};
layerId = "E1689EA5-A91E-47D2-BCA7-04A2C9D26D65";
shapes = (
{
closed = 1;
nodes = (
(426,569,l),
(426,644,l),
(178,644,l),
(178,569,l)
);
},
{
alignment = -1;
ref = d;
}
);
width = 424.5;
}
);
unicode = 273;
},
{
glyphname = eth;
lastChange = "2024-12-19 13:17:24 +0000";
layers = (
{
background = {
shapes = (
{
closed = 1;
nodes = (
(314,-12,o),
(389,58,o),
(389,270,cs),
(389,405,o),
(374,591,o),
(153,722,c),
(94,653,l),
(191,601,o),
(236,545,o),
(262,482,c),
(283,483,l),
(256,512,o),
(228,521,o),
(193,521,cs),
(102,521,o),
(27,450,o),
(27,255,cs),
(27,58,o),
(101,-12,o),
(208,-12,cs)
);
},
{
closed = 1;
nodes = (
(165,75,o),
(141,107,o),
(141,202,cs),
(141,307,ls),
(141,402,o),
(165,434,o),
(208,434,cs),
(251,434,o),
(275,402,o),
(275,307,cs),
(275,202,ls),
(275,107,o),
(251,75,o),
(208,75,cs)
);
},
{
closed = 1;
nodes = (
(318,664,l),
(318,722,l),
(94,592,l),
(94,534,l)
);
}
);
};
layerId = "E1689EA5-A91E-47D2-BCA7-04A2C9D26D65";
shapes = (
{
closed = 1;
nodes = (
(314,-12,o),
(389,58,o),
(389,270,cs),
(389,405,o),
(374,591,o),
(153,722,c),
(94,653,l),
(191,601,o),
(236,545,o),
(262,482,c),
(283,483,l),
(256,512,o),
(228,521,o),
(193,521,cs),
(102,521,o),
(27,450,o),
(27,255,cs),
(27,58,o),
(101,-12,o),
(208,-12,cs)
);
},
{
closed = 1;
nodes = (
(165,75,o),
(141,107,o),
(141,202,cs),
(141,307,ls),
(141,402,o),
(165,434,o),
(208,434,cs),
(251,434,o),
(275,402,o),
(275,307,cs),
(275,202,ls),
(275,107,o),
(251,75,o),
(208,75,cs)
);
},
{
closed = 1;
nodes = (
(318,664,l),
(318,722,l),
(94,592,l),
(94,534,l)
);
}
);
width = 417;
}
);
unicode = 240;
userData = {
RMXScaler = {
source = o;
};
};
},
{
glyphname = e;
kernLeft = o;
kernRight = e;
lastChange = "2024-12-19 13:17:24 +0000";
layers = (
{
anchors = (
{
name = bottom;
pos = (200,0);
},
{
name = ogonek;
pos = (322,0);
},
{
name = top;
pos = (205,509);
}
);
background = {
anchors = (
{
name = bottom;
pos = (200,0);
},
{
name = ogonek;
pos = (322,0);
},
{
name = top;
pos = (205,509);
}
);
shapes = (
{
closed = 1;
nodes = (
(294,-12,o),
(360,40,o),
(368,174,c),
(269,182,l),
(261,103,o),
(248,73,o),
(207,73,cs),
(163,73,o),
(139,105,o),
(139,202,cs),
(139,312,ls),
(139,407,o),
(164,438,o),
(207,438,cs),
(248,438,o),
(268,409,o),
(268,315,cs),
(268,285,l),
(286,309,l),
(109,309,l),
(109,238,l),
(365,238,l),
(376,363,o),
(358,521,o),
(205,521,cs),
(101,521,o),
(27,450,o),
(27,254,cs),
(27,58,o),
(100,-12,o),
(205,-12,cs)
);
}
);
};
layerId = "E1689EA5-A91E-47D2-BCA7-04A2C9D26D65";
shapes = (
{
closed = 1;
nodes = (
(294,-12,o),
(360,40,o),
(368,174,c),
(269,182,l),
(261,103,o),
(248,73,o),
(207,73,cs),
(163,73,o),
(139,105,o),
(139,202,cs),
(139,312,ls),
(139,407,o),
(164,438,o),
(207,438,cs),
(248,438,o),
(268,409,o),
(268,315,cs),
(268,285,l),
(286,309,l),
(109,309,l),
(109,238,l),
(365,238,l),
(376,363,o),
(358,521,o),
(205,521,cs),
(101,521,o),
(27,450,o),
(27,254,cs),
(27,58,o),
(100,-12,o),
(205,-12,cs)
);
}
);
width = 395;
}
);
note = e;
unicode = 101;
},
{
glyphname = eacute;
kernLeft = o;
kernRight = e;
lastChange = "2024-12-19 13:17:38 +0000";
layers = (
{
anchors = (
{
name = bottom;
pos = (194,0);
},
{
name = ogonek;
pos = (350,10);
},
{
name = top;
pos = (196,508);
}
);
background = {
anchors = (
{
name = bottom;
pos = (194,0);
},
{
name = ogonek;
pos = (350,10);
},
{
name = top;
pos = (196,508);
}
);
shapes = (
{
closed = 1;
nodes = (
(294,-12,o),
(360,40,o),
(368,174,c),
(269,182,l),
(261,103,o),
(248,73,o),
(207,73,cs),
(163,73,o),
(139,105,o),
(139,202,cs),
(139,312,ls),
(139,407,o),
(164,438,o),
(207,438,cs),
(248,438,o),
(268,409,o),
(268,315,cs),
(268,285,l),
(286,309,l),
(109,309,l),
(109,238,l),
(365,238,l),
(376,363,o),
(358,521,o),
(205,521,cs),
(101,521,o),
(27,450,o),
(27,254,cs),
(27,58,o),
(100,-12,o),
(205,-12,cs)
);
},
{
closed = 1;
nodes = (
(329,731,l),
(251,761,l),
(170,590,l),
(235,572,l)
);
}
);
};
layerId = "E1689EA5-A91E-47D2-BCA7-04A2C9D26D65";
shapes = (
{
alignment = -1;
ref = e;
},
{
alignment = -1;
pos = (170,0);
ref = acutecomb;
}
);
width = 395;
}
);
unicode = 233;
},
{
glyphname = ebreve;
kernLeft = o;
kernRight = e;
lastChange = "2024-12-19 13:17:38 +0000";
layers = (
{
anchors = (
{
name = bottom;
pos = (194,0);
},
{
name = ogonek;
pos = (350,10);
},
{
name = top;
pos = (196,508);
}
);
background = {
anchors = (
{
name = bottom;
pos = (194,0);
},
{
name = ogonek;
pos = (350,10);
},
{
name = top;
pos = (196,508);
}
);
shapes = (
{
closed = 1;
nodes = (
(294,-12,o),
(360,40,o),
(368,174,c),
(269,182,l),
(261,103,o),
(248,73,o),
(207,73,cs),
(163,73,o),
(139,105,o),
(139,202,cs),
(139,312,ls),
(139,407,o),
(164,438,o),
(207,438,cs),
(248,438,o),
(268,409,o),
(268,315,cs),
(268,285,l),
(286,309,l),
(109,309,l),
(109,238,l),
(365,238,l),
(376,363,o),
(358,521,o),
(205,521,cs),
(101,521,o),
(27,450,o),
(27,254,cs),
(27,58,o),
(100,-12,o),
(205,-12,cs)
);
},
{
closed = 1;
nodes = (
(264,576,o),
(303,614,o),
(307,704,c),
(241,704,l),
(238,650,o),
(226,639,o),
(205,639,cs),
(184,639,o),
(172,650,o),
(170,704,c),
(103,704,l),
(107,614,o),
(146,576,o),
(205,576,cs)
);
}
);
};
layerId = "E1689EA5-A91E-47D2-BCA7-04A2C9D26D65";
shapes = (
{
alignment = -1;
ref = e;
},
{
alignment = -1;
pos = (103,0);
ref = brevecomb;
}
);
width = 395;
}
);
unicode = 277;
},
{
glyphname = ecaron;
kernLeft = o;
kernRight = e;
lastChange = "2024-12-19 13:17:38 +0000";
layers = (
{
anchors = (
{
name = bottom;
pos = (194,0);
},
{
name = ogonek;
pos = (350,10);
},
{
name = top;
pos = (196,508);
}
);
background = {
anchors = (
{
name = bottom;
pos = (194,0);
},
{
name = ogonek;
pos = (350,10);
},
{
name = top;
pos = (196,508);
}
);
shapes = (
{
closed = 1;
nodes = (
(294,-12,o),
(360,40,o),
(368,174,c),
(269,182,l),
(261,103,o),
(248,73,o),
(207,73,cs),
(163,73,o),
(139,105,o),
(139,202,cs),
(139,312,ls),
(139,407,o),
(164,438,o),
(207,438,cs),
(248,438,o),
(268,409,o),
(268,315,cs),
(268,285,l),
(286,309,l),
(109,309,l),
(109,238,l),
(365,238,l),
(376,363,o),
(358,521,o),
(205,521,cs),
(101,521,o),
(27,450,o),
(27,254,cs),
(27,58,o),
(100,-12,o),
(205,-12,cs)
);
},
{
closed = 1;
nodes = (
(240,582,l),
(326,703,l),
(249,703,l),
(176,596,l),
(234,596,l),
(161,703,l),
(83,703,l),
(169,582,l)
);
}
);
};
layerId = "E1689EA5-A91E-47D2-BCA7-04A2C9D26D65";
shapes = (
{
alignment = -1;
ref = e;
},
{
alignment = -1;
pos = (83,0);
ref = caroncomb;
}
);
width = 395;
}
);
unicode = 283;
},
{
glyphname = ecircumflex;
kernLeft = o;
kernRight = e;
lastChange = "2024-12-19 13:17:38 +0000";
layers = (
{
anchors = (
{
name = bottom;
pos = (194,0);
},
{
name = ogonek;
pos = (350,10);
},
{
name = top;
pos = (196,508);
}
);
background = {
anchors = (
{
name = bottom;
pos = (194,0);
},
{
name = ogonek;
pos = (350,10);
},
{
name = top;
pos = (196,508);
}
);
shapes = (
{
closed = 1;
nodes = (
(294,-12,o),
(360,40,o),
(368,174,c),
(269,182,l),
(261,103,o),
(248,73,o),
(207,73,cs),
(163,73,o),
(139,105,o),
(139,202,cs),
(139,312,ls),
(139,407,o),
(164,438,o),
(207,438,cs),
(248,438,o),
(268,409,o),
(268,315,cs),
(268,285,l),
(286,309,l),
(109,309,l),
(109,238,l),
(365,238,l),
(376,363,o),
(358,521,o),
(205,521,cs),
(101,521,o),
(27,450,o),
(27,254,cs),
(27,58,o),
(100,-12,o),
(205,-12,cs)
);
},
{
closed = 1;
nodes = (
(161,582,l),
(234,689,l),
(176,689,l),
(249,582,l),
(328,582,l),
(242,703,l),
(167,703,l),
(81,582,l)
);
}
);
};
layerId = "E1689EA5-A91E-47D2-BCA7-04A2C9D26D65";
shapes = (
{
alignment = -1;
ref = e;
},
{
alignment = -1;
pos = (81,0);
ref = circumflexcomb;
}
);
width = 395;
}
);
unicode = 234;
},
{
glyphname = edieresis;
kernLeft = o;
kernRight = e;
lastChange = "2024-12-19 13:17:38 +0000";
layers = (
{
background = {
anchors = (
{
name = bottom;
pos = (200,0);
},
{
name = ogonek;
pos = (322,0);
},
{
name = top;
pos = (205,690);
}
);
shapes = (
{
closed = 1;
nodes = (
(294,-12,o),
(360,40,o),
(368,174,c),
(269,182,l),
(261,103,o),
(248,73,o),
(207,73,cs),
(163,73,o),
(139,105,o),
(139,202,cs),
(139,312,ls),
(139,407,o),
(164,438,o),
(207,438,cs),
(248,438,o),
(268,409,o),
(268,315,cs),
(268,285,l),
(286,309,l),
(109,309,l),
(109,238,l),
(365,238,l),
(376,363,o),
(358,521,o),
(205,521,cs),
(101,521,o),
(27,450,o),
(27,254,cs),
(27,58,o),
(100,-12,o),
(205,-12,cs)
);
},
{
closed = 1;
nodes = (
(189,584,l),
(189,690,l),
(94,690,l),
(94,584,l)
);
},
{
closed = 1;
nodes = (
(321,584,l),
(321,690,l),
(226,690,l),
(226,584,l)
);
}
);
};
layerId = "E1689EA5-A91E-47D2-BCA7-04A2C9D26D65";
shapes = (
{
alignment = -1;
ref = e;
},
{
alignment = -1;
pos = (94,0);
ref = dieresiscomb;
}
);
width = 395;
}
);
unicode = 235;
},
{
glyphname = edotaccent;
kernLeft = o;
kernRight = e;
lastChange = "2024-12-19 13:17:38 +0000";
layers = (
{
background = {
anchors = (
{
name = bottom;
pos = (200,0);
},
{
name = ogonek;
pos = (322,0);
},
{
name = top;
pos = (205,690);
}
);
shapes = (
{
closed = 1;
nodes = (
(294,-12,o),
(360,40,o),
(368,174,c),
(269,182,l),
(261,103,o),
(248,73,o),
(207,73,cs),
(163,73,o),
(139,105,o),
(139,202,cs),
(139,312,ls),
(139,407,o),
(164,438,o),
(207,438,cs),
(248,438,o),
(268,409,o),
(268,315,cs),
(268,285,l),
(286,309,l),
(109,309,l),
(109,238,l),
(365,238,l),
(376,363,o),
(358,521,o),
(205,521,cs),
(101,521,o),
(27,450,o),
(27,254,cs),
(27,58,o),
(100,-12,o),
(205,-12,cs)
);
},
{
closed = 1;
nodes = (
(260,584,l),
(260,690,l),
(148,690,l),
(148,584,l)
);
}
);
};
layerId = "E1689EA5-A91E-47D2-BCA7-04A2C9D26D65";
shapes = (
{
alignment = -1;
ref = e;
},
{
alignment = -1;
pos = (148,0);
ref = dotaccentcomb;
}
);
width = 395;
}
);
unicode = 279;
},
{
glyphname = egrave;
kernLeft = o;
kernRight = e;
lastChange = "2024-12-19 13:17:51 +0000";
layers = (
{
anchors = (
{
name = bottom;
pos = (194,0);
},
{
name = ogonek;
pos = (350,10);
},
{
name = top;
pos = (196,508);
}
);
background = {
anchors = (
{
name = bottom;
pos = (194,0);
},
{
name = ogonek;
pos = (350,10);
},
{
name = top;
pos = (196,508);
}
);
shapes = (
{
closed = 1;
nodes = (
(294,-12,o),
(360,40,o),
(368,174,c),
(269,182,l),
(261,103,o),
(248,73,o),
(207,73,cs),
(163,73,o),
(139,105,o),
(139,202,cs),
(139,312,ls),
(139,407,o),
(164,438,o),
(207,438,cs),
(248,438,o),
(268,409,o),
(268,315,cs),
(268,285,l),
(286,309,l),
(109,309,l),
(109,238,l),
(365,238,l),
(376,363,o),
(358,521,o),
(205,521,cs),
(101,521,o),
(27,450,o),
(27,254,cs),
(27,58,o),
(100,-12,o),
(205,-12,cs)
);
},
{
closed = 1;
nodes = (
(232,590,l),
(151,761,l),
(73,731,l),
(167,572,l)
);
}
);
};
layerId = "E1689EA5-A91E-47D2-BCA7-04A2C9D26D65";
shapes = (
{
alignment = -1;
ref = e;
},
{
alignment = -1;
pos = (73,0);
ref = gravecomb;
}
);
width = 395;
}
);
unicode = 232;
},
{
glyphname = emacron;
kernLeft = o;
kernRight = e;
lastChange = "2024-12-19 13:17:38 +0000";
layers = (
{
background = {
anchors = (
{
name = bottom;
pos = (200,0);
},
{
name = ogonek;
pos = (322,0);
},
{
name = top;
pos = (205,667);
}
);
shapes = (
{
closed = 1;
nodes = (
(294,-12,o),
(360,40,o),
(368,174,c),
(269,182,l),
(261,103,o),
(248,73,o),
(207,73,cs),
(163,73,o),
(139,105,o),
(139,202,cs),
(139,312,ls),
(139,407,o),
(164,438,o),
(207,438,cs),
(248,438,o),
(268,409,o),
(268,315,cs),
(268,285,l),
(286,309,l),
(109,309,l),
(109,238,l),
(365,238,l),
(376,363,o),
(358,521,o),
(205,521,cs),
(101,521,o),
(27,450,o),
(27,254,cs),
(27,58,o),
(100,-12,o),
(205,-12,cs)
);
},
{
closed = 1;
nodes = (
(331,596,l),
(331,667,l),
(78,667,l),
(78,596,l)
);
}
);
};
layerId = "E1689EA5-A91E-47D2-BCA7-04A2C9D26D65";
shapes = (
{
alignment = -1;
ref = e;
},
{
alignment = -1;
pos = (78,0);
ref = macroncomb;
}
);
width = 395;
}
);
unicode = 275;
},
{
glyphname = eogonek;
kernLeft = o;
kernRight = e;
lastChange = "2024-12-19 13:17:24 +0000";
layers = (
{
background = {
shapes = (
{
closed = 1;
nodes = (
(330,-98,l),
(304,-101,o),
(275,-90,o),
(275,-55,cs),
(275,-31,o),
(287,-7,o),
(316,31,cs),
(343,66,o),
(364,109,o),
(367,174,c),
(268,182,l),
(260,103,o),
(247,73,o),
(206,73,cs),
(162,73,o),
(139,105,o),
(139,202,cs),
(139,312,ls),
(139,407,o),
(163,438,o),
(206,438,cs),
(247,438,o),
(268,409,o),
(268,315,cs),
(268,270,l),
(301,309,l),
(108,309,l),
(108,238,l),
(364,238,l),
(376,363,o),
(357,521,o),
(204,521,cs),
(100,521,o),
(26,450,o),
(26,254,cs),
(26,58,o),
(99,-12,o),
(201,-12,cs),
(223,-12,o),
(243,-7,o),
(258,-1,c),
(256,8,l),
(227,-14,o),
(201,-49,o),
(201,-86,cs),
(201,-153,o),
(271,-170,o),
(330,-161,c)
);
}
);
};
layerId = "E1689EA5-A91E-47D2-BCA7-04A2C9D26D65";
shapes = (
{
closed = 1;
nodes = (
(330,-98,l),
(304,-101,o),
(275,-90,o),
(275,-55,cs),
(275,-31,o),
(287,-7,o),
(316,31,cs),
(343,66,o),
(364,109,o),
(367,174,c),
(268,182,l),
(260,103,o),
(247,73,o),
(206,73,cs),
(162,73,o),
(139,105,o),
(139,202,cs),
(139,312,ls),
(139,407,o),
(163,438,o),
(206,438,cs),
(247,438,o),
(268,409,o),
(268,315,cs),
(268,270,l),
(301,309,l),
(108,309,l),
(108,238,l),
(364,238,l),
(376,363,o),
(357,521,o),
(204,521,cs),
(100,521,o),
(26,450,o),
(26,254,cs),
(26,58,o),
(99,-12,o),
(201,-12,cs),
(223,-12,o),
(243,-7,o),
(258,-1,c),
(256,8,l),
(227,-14,o),
(201,-49,o),
(201,-86,cs),
(201,-153,o),
(271,-170,o),
(330,-161,c)
);
}
);
width = 394.5;
}
);
unicode = 281;
},
{
glyphname = f;
kernLeft = f;
kernRight = f;
lastChange = "2024-12-19 13:17:24 +0000";
layers = (
{
anchors = (
{
name = bottom;
pos = (146,0);
},
{
name = top;
pos = (146,758);
}
);
background = {
anchors = (
{
name = bottom;
pos = (146,0);
},
{
name = top;
pos = (146,758);
}
);
shapes = (
{
closed = 1;
nodes = (
(181,0,l),
(181,571,ls),
(181,618,o),
(202,634,o),
(233,634,cs),
(245,634,o),
(258,632,o),
(277,629,c),
(277,712,l),
(254,719,o),
(233,722,o),
(210,722,cs),
(130,722,o),
(69,675,o),
(69,566,cs),
(69,0,l)
);
},
{
closed = 1;
nodes = (
(260,424,l),
(260,509,l),
(15,509,l),
(15,424,l)
);
}
);
};
layerId = "E1689EA5-A91E-47D2-BCA7-04A2C9D26D65";
shapes = (
{
closed = 1;
nodes = (
(181,0,l),
(181,571,ls),
(181,618,o),
(202,634,o),
(233,634,cs),
(245,634,o),
(258,632,o),
(277,629,c),
(277,712,l),
(254,719,o),
(233,722,o),
(210,722,cs),
(130,722,o),
(69,675,o),
(69,566,cs),
(69,0,l)
);
},
{
closed = 1;
nodes = (
(260,424,l),
(260,509,l),
(15,509,l),
(15,424,l)
);
}
);
width = 267;
}
);
note = f;
unicode = 102;
},
{
glyphname = g;
kernLeft = g;
kernRight = g;
lastChange = "2024-12-19 13:17:24 +0000";
layers = (
{
anchors = (
{
name = bottom;
pos = (206,-165);
},
{
name = top;
pos = (197,509);
}
);
background = {
anchors = (
{
name = bottom;
pos = (206,-165);
},
{
name = top;
pos = (197,509);
}
);
shapes = (
{
closed = 1;
nodes = (
(326,-177,o),
(407,-124,o),
(407,-24,cs),
(407,39,o),
(370,89,o),
(284,106,cs),
(190,124,ls),
(160,130,o),
(145,141,o),
(145,161,cs),
(145,178,o),
(153,191,o),
(167,208,c),
(117,224,l),
(83,203,o),
(58,170,o),
(58,131,cs),
(58,96,o),
(80,61,o),
(129,46,c),
(129,32,l),
(240,15,ls),
(289,6,o),
(310,-14,o),
(310,-43,cs),
(310,-81,o),
(271,-101,o),
(206,-101,cs),
(143,-101,o),
(107,-82,o),
(107,-39,cs),
(107,-4,o),
(134,21,o),
(184,34,c),
(140,65,l),
(53,50,o),
(12,-1,o),
(12,-56,cs),
(12,-126,o),
(69,-177,o),
(199,-177,cs)
);
},
{
closed = 1;
nodes = (
(310,180,o),
(373,249,o),
(373,350,cs),
(373,448,o),
(312,521,o),
(197,521,cs),
(84,521,o),
(23,450,o),
(23,350,cs),
(23,249,o),
(86,180,o),
(197,180,cs)
);
},
{
closed = 1;
nodes = (
(152,251,o),
(133,283,o),
(133,351,cs),
(133,413,o),
(150,450,o),
(197,450,cs),
(244,450,o),
(262,415,o),
(262,351,cs),
(262,285,o),
(244,251,o),
(197,251,cs)
);
},
{
closed = 1;
nodes = (
(334,470,o),
(365,477,o),
(400,473,c),
(400,563,l),
(392,565,o),
(384,566,o),
(376,566,cs),
(333,566,o),
(295,533,o),
(276,465,c),
(314,438,l)
);
}
);
};
layerId = "E1689EA5-A91E-47D2-BCA7-04A2C9D26D65";
shapes = (
{
closed = 1;
nodes = (
(326,-177,o),
(407,-124,o),
(407,-24,cs),
(407,39,o),
(370,89,o),
(284,106,cs),
(190,124,ls),
(160,130,o),
(145,141,o),
(145,161,cs),
(145,178,o),
(153,191,o),
(167,208,c),
(117,224,l),
(83,203,o),
(58,170,o),
(58,131,cs),
(58,96,o),
(80,61,o),
(129,46,c),
(129,32,l),
(240,15,ls),
(289,6,o),
(310,-14,o),
(310,-43,cs),
(310,-81,o),
(271,-101,o),
(206,-101,cs),
(143,-101,o),
(107,-82,o),
(107,-39,cs),
(107,-4,o),
(134,21,o),
(184,34,c),
(140,65,l),
(53,50,o),
(12,-1,o),
(12,-56,cs),
(12,-126,o),
(69,-177,o),
(199,-177,cs)
);
},
{
closed = 1;
nodes = (
(310,180,o),
(373,249,o),
(373,350,cs),
(373,448,o),
(312,521,o),
(197,521,cs),
(84,521,o),
(23,450,o),
(23,350,cs),
(23,249,o),
(86,180,o),
(197,180,cs)
);
},
{
closed = 1;
nodes = (
(152,251,o),
(133,283,o),
(133,351,cs),
(133,413,o),
(150,450,o),
(197,450,cs),
(244,450,o),
(262,415,o),
(262,351,cs),
(262,285,o),
(244,251,o),
(197,251,cs)
);
},
{
closed = 1;
nodes = (
(334,470,o),
(365,477,o),
(400,473,c),
(400,563,l),
(392,565,o),
(384,566,o),
(376,566,cs),
(333,566,o),
(295,533,o),
(276,465,c),
(314,438,l)
);
}
);
width = 417;
}
);
note = g;
unicode = 103;
},
{
glyphname = gbreve;
kernLeft = g;
kernRight = g;
lastChange = "2024-12-19 13:17:38 +0000";
layers = (
{
background = {
anchors = (
{
name = bottom;
pos = (206,-165);
},
{
name = top;
pos = (197,704);
}
);
shapes = (
{
closed = 1;
nodes = (
(326,-177,o),
(407,-124,o),
(407,-24,cs),
(407,39,o),
(370,89,o),
(284,106,cs),
(190,124,ls),
(160,130,o),
(145,141,o),
(145,161,cs),
(145,178,o),
(153,191,o),
(167,208,c),
(117,224,l),
(83,203,o),
(58,170,o),
(58,131,cs),
(58,96,o),
(80,61,o),
(129,46,c),
(129,32,l),
(240,15,ls),
(289,6,o),
(310,-14,o),
(310,-43,cs),
(310,-81,o),
(271,-101,o),
(206,-101,cs),
(143,-101,o),
(107,-82,o),
(107,-39,cs),
(107,-4,o),
(134,21,o),
(184,34,c),
(140,65,l),
(53,50,o),
(12,-1,o),
(12,-56,cs),
(12,-126,o),
(69,-177,o),
(199,-177,cs)
);
},
{
closed = 1;
nodes = (
(310,180,o),
(373,249,o),
(373,350,cs),
(373,448,o),
(312,521,o),
(197,521,cs),
(84,521,o),
(23,450,o),
(23,350,cs),
(23,249,o),
(86,180,o),
(197,180,cs)
);
},
{
closed = 1;
nodes = (
(152,251,o),
(133,283,o),
(133,351,cs),
(133,413,o),
(150,450,o),
(197,450,cs),
(244,450,o),
(262,415,o),
(262,351,cs),
(262,285,o),
(244,251,o),
(197,251,cs)
);
},
{
closed = 1;
nodes = (
(334,470,o),
(365,477,o),
(400,473,c),
(400,563,l),
(392,565,o),
(384,566,o),
(376,566,cs),
(333,566,o),
(295,533,o),
(276,465,c),
(314,438,l)
);
},
{
closed = 1;
nodes = (
(256,576,o),
(295,614,o),
(299,704,c),
(233,704,l),
(230,650,o),
(218,639,o),
(197,639,cs),
(176,639,o),
(164,650,o),
(162,704,c),
(95,704,l),
(99,614,o),
(138,576,o),
(197,576,cs)
);
}
);
};
layerId = "E1689EA5-A91E-47D2-BCA7-04A2C9D26D65";
shapes = (
{
alignment = -1;
ref = g;
},
{
alignment = -1;
pos = (95,0);
ref = brevecomb;
}
);
width = 417;
}
);
unicode = 287;
},
{
glyphname = gcircumflex;
kernLeft = g;
kernRight = g;
lastChange = "2024-12-19 13:17:38 +0000";
layers = (
{
anchors = (
{
name = bottom;
pos = (200,-165);
},
{
name = top;
pos = (200,509);
}
);
background = {
anchors = (
{
name = bottom;
pos = (200,-165);
},
{
name = top;
pos = (200,509);
}
);
shapes = (
{
closed = 1;
nodes = (
(326,-177,o),
(407,-124,o),
(407,-24,cs),
(407,39,o),
(370,89,o),
(284,106,cs),
(190,124,ls),
(160,130,o),
(145,141,o),
(145,161,cs),
(145,178,o),
(153,191,o),
(167,208,c),
(117,224,l),
(83,203,o),
(58,170,o),
(58,131,cs),
(58,96,o),
(80,61,o),
(129,46,c),
(129,32,l),
(240,15,ls),
(289,6,o),
(310,-14,o),
(310,-43,cs),
(310,-81,o),
(271,-101,o),
(206,-101,cs),
(143,-101,o),
(107,-82,o),
(107,-39,cs),
(107,-4,o),
(134,21,o),
(184,34,c),
(140,65,l),
(53,50,o),
(12,-1,o),
(12,-56,cs),
(12,-126,o),
(69,-177,o),
(199,-177,cs)
);
},
{
closed = 1;
nodes = (
(310,180,o),
(373,249,o),
(373,350,cs),
(373,448,o),
(312,521,o),
(197,521,cs),
(84,521,o),
(23,450,o),
(23,350,cs),
(23,249,o),
(86,180,o),
(197,180,cs)
);
},
{
closed = 1;
nodes = (
(152,251,o),
(133,283,o),
(133,351,cs),
(133,413,o),
(150,450,o),
(197,450,cs),
(244,450,o),
(262,415,o),
(262,351,cs),
(262,285,o),
(244,251,o),
(197,251,cs)
);
},
{
closed = 1;
nodes = (
(334,470,o),
(365,477,o),
(400,473,c),
(400,563,l),
(392,565,o),
(384,566,o),
(376,566,cs),
(333,566,o),
(295,533,o),
(276,465,c),
(314,438,l)
);
},
{
closed = 1;
nodes = (
(153,582,l),
(226,689,l),
(168,689,l),
(241,582,l),
(320,582,l),
(234,703,l),
(159,703,l),
(73,582,l)
);
}
);
};
layerId = "E1689EA5-A91E-47D2-BCA7-04A2C9D26D65";
shapes = (
{
alignment = -1;
ref = g;
},
{
alignment = -1;
pos = (73,0);
ref = circumflexcomb;
}
);
width = 417;
}
);
unicode = 285;
},
{
glyphname = gcommaaccent;
kernLeft = g;
kernRight = g;
lastChange = "2024-12-19 13:17:38 +0000";
layers = (
{
background = {
anchors = (
{
name = bottom;
pos = (206,-165);
},
{
name = top;
pos = (197,763);
}
);
shapes = (
{
closed = 1;
nodes = (
(326,-177,o),
(407,-124,o),
(407,-24,cs),
(407,39,o),
(370,89,o),
(284,106,cs),
(190,124,ls),
(160,130,o),
(145,141,o),
(145,161,cs),
(145,178,o),
(153,191,o),
(167,208,c),
(117,224,l),
(83,203,o),
(58,170,o),
(58,131,cs),
(58,96,o),
(80,61,o),
(129,46,c),
(129,32,l),
(240,15,ls),
(289,6,o),
(310,-14,o),
(310,-43,cs),
(310,-81,o),
(271,-101,o),
(206,-101,cs),
(143,-101,o),
(107,-82,o),
(107,-39,cs),
(107,-4,o),
(134,21,o),
(184,34,c),
(140,65,l),
(53,50,o),
(12,-1,o),
(12,-56,cs),
(12,-126,o),
(69,-177,o),
(199,-177,cs)
);
},
{
closed = 1;
nodes = (
(310,180,o),
(373,249,o),
(373,350,cs),
(373,448,o),
(312,521,o),
(197,521,cs),
(84,521,o),
(23,450,o),
(23,350,cs),
(23,249,o),
(86,180,o),
(197,180,cs)
);
},
{
closed = 1;
nodes = (
(152,251,o),
(133,283,o),
(133,351,cs),
(133,413,o),
(150,450,o),
(197,450,cs),
(244,450,o),
(262,415,o),
(262,351,cs),
(262,285,o),
(244,251,o),
(197,251,cs)
);
},
{
closed = 1;
nodes = (
(334,470,o),
(365,477,o),
(400,473,c),
(400,563,l),
(392,565,o),
(384,566,o),
(376,566,cs),
(333,566,o),
(295,533,o),
(276,465,c),
(314,438,l)
);
},
{
closed = 1;
nodes = (
(185,763,l),
(143,659,l),
(143,581,l),
(251,581,l),
(251,676,l),
(207,676,l),
(235,763,l)
);
}
);
};
layerId = "E1689EA5-A91E-47D2-BCA7-04A2C9D26D65";
shapes = (
{
alignment = -1;
ref = g;
},
{
alignment = -1;
angle = 180;
pos = (251,509);
ref = commaaccentcomb;
}
);
width = 417;
}
);
unicode = 291;
},
{
glyphname = gdotaccent;
kernLeft = g;
kernRight = g;
lastChange = "2024-12-19 13:17:38 +0000";
layers = (
{
anchors = (
{
name = bottom;
pos = (200,-165);
},
{
name = top;
pos = (200,509);
}
);
background = {
anchors = (
{
name = bottom;
pos = (200,-165);
},
{
name = top;
pos = (200,509);
}
);
shapes = (
{
closed = 1;
nodes = (
(326,-177,o),
(407,-124,o),
(407,-24,cs),
(407,39,o),
(370,89,o),
(284,106,cs),
(190,124,ls),
(160,130,o),
(145,141,o),
(145,161,cs),
(145,178,o),
(153,191,o),
(167,208,c),
(117,224,l),
(83,203,o),
(58,170,o),
(58,131,cs),
(58,96,o),
(80,61,o),
(129,46,c),
(129,32,l),
(240,15,ls),
(289,6,o),
(310,-14,o),
(310,-43,cs),
(310,-81,o),
(271,-101,o),
(206,-101,cs),
(143,-101,o),
(107,-82,o),
(107,-39,cs),
(107,-4,o),
(134,21,o),
(184,34,c),
(140,65,l),
(53,50,o),
(12,-1,o),
(12,-56,cs),
(12,-126,o),
(69,-177,o),
(199,-177,cs)
);
},
{
closed = 1;
nodes = (
(310,180,o),
(373,249,o),
(373,350,cs),
(373,448,o),
(312,521,o),
(197,521,cs),
(84,521,o),
(23,450,o),
(23,350,cs),
(23,249,o),
(86,180,o),
(197,180,cs)
);
},
{
closed = 1;
nodes = (
(152,251,o),
(133,283,o),
(133,351,cs),
(133,413,o),
(150,450,o),
(197,450,cs),
(244,450,o),
(262,415,o),
(262,351,cs),
(262,285,o),
(244,251,o),
(197,251,cs)
);
},
{
closed = 1;
nodes = (
(334,470,o),
(365,477,o),
(400,473,c),
(400,563,l),
(392,565,o),
(384,566,o),
(376,566,cs),
(333,566,o),
(295,533,o),
(276,465,c),
(314,438,l)
);
},
{
closed = 1;
nodes = (
(252,584,l),
(252,690,l),
(140,690,l),
(140,584,l)
);
}
);
};
layerId = "E1689EA5-A91E-47D2-BCA7-04A2C9D26D65";
shapes = (
{
alignment = -1;
ref = g;
},
{
alignment = -1;
pos = (140,0);
ref = dotaccentcomb;
}
);
width = 417;
}
);
unicode = 289;
},
{
glyphname = h;
kernLeft = h;
kernRight = n;
lastChange = "2024-12-19 13:17:24 +0000";
layers = (
{
anchors = (
{
name = bottom;
pos = (242,0);
},
{
name = center;
pos = (241,379);
},
{
name = top;
pos = (164,710);
}
);
background = {
anchors = (
{
name = bottom;
pos = (242,0);
},
{
name = center;
pos = (241,379);
},
{
name = top;
pos = (164,710);
}
);
shapes = (
{
closed = 1;
nodes = (
(378,0,l),
(378,376,ls),
(378,473,o),
(332,521,o),
(262,521,cs),
(204,521,o),
(150,481,o),
(134,391,c),
(153,355,l),
(153,414,o),
(181,432,o),
(213,432,cs),
(246,432,o),
(265,411,o),
(265,357,cs),
(265,0,l)
);
},
{
closed = 1;
nodes = (
(153,0,l),
(153,710,l),
(41,710,l),
(41,0,l)
);
}
);
};
layerId = "E1689EA5-A91E-47D2-BCA7-04A2C9D26D65";
shapes = (
{
closed = 1;
nodes = (
(378,0,l),
(378,376,ls),
(378,473,o),
(332,521,o),
(262,521,cs),
(204,521,o),
(150,481,o),
(134,391,c),
(153,355,l),
(153,414,o),
(181,432,o),
(213,432,cs),
(246,432,o),
(265,411,o),
(265,357,cs),
(265,0,l)
);
},
{
closed = 1;
nodes = (
(153,0,l),
(153,710,l),
(41,710,l),
(41,0,l)
);
}
);
width = 416;
}
);
note = h;
unicode = 104;
},
{
glyphname = hbar;
kernLeft = h;
kernRight = n;
lastChange = "2024-12-19 13:17:38 +0000";
layers = (
{
background = {
anchors = (
{
name = bottom;
pos = (242,0);
},
{
name = center;
pos = (241,379);
},
{
name = top;
pos = (164,710);
}
);
shapes = (
{
closed = 1;
nodes = (
(242,569,l),
(242,644,l),
(-5,644,l),
(-5,569,l)
);
},
{
closed = 1;
nodes = (
(378,0,l),
(378,376,ls),
(378,473,o),
(332,521,o),
(262,521,cs),
(204,521,o),
(150,481,o),
(134,391,c),
(153,355,l),
(153,414,o),
(181,432,o),
(213,432,cs),
(246,432,o),
(265,411,o),
(265,357,cs),
(265,0,l)
);
},
{
closed = 1;
nodes = (
(153,0,l),
(153,710,l),
(41,710,l),
(41,0,l)
);
}
);
};
layerId = "E1689EA5-A91E-47D2-BCA7-04A2C9D26D65";
shapes = (
{
closed = 1;
nodes = (
(242,569,l),
(242,644,l),
(-5,644,l),
(-5,569,l)
);
},
{
alignment = -1;
ref = h;
}
);
width = 416;
}
);
unicode = 295;
},
{
glyphname = hcircumflex;
kernLeft = h;
kernRight = n;
lastChange = "2024-12-19 13:17:38 +0000";
layers = (
{
background = {
anchors = (
{
name = bottom;
pos = (242,0);
},
{
name = center;
pos = (241,379);
},
{
name = top;
pos = (165,889);
}
);
shapes = (
{
closed = 1;
nodes = (
(378,0,l),
(378,376,ls),
(378,473,o),
(332,521,o),
(262,521,cs),
(204,521,o),
(150,481,o),
(134,391,c),
(153,355,l),
(153,414,o),
(181,432,o),
(213,432,cs),
(246,432,o),
(265,411,o),
(265,357,cs),
(265,0,l)
);
},
{
closed = 1;
nodes = (
(153,0,l),
(153,710,l),
(41,710,l),
(41,0,l)
);
},
{
closed = 1;
nodes = (
(121,768,l),
(194,875,l),
(136,875,l),
(209,768,l),
(288,768,l),
(202,889,l),
(127,889,l),
(41,768,l)
);
}
);
};
layerId = "E1689EA5-A91E-47D2-BCA7-04A2C9D26D65";
shapes = (
{
alignment = -1;
ref = h;
},
{
alignment = -1;
pos = (41,0);
ref = circumflexcomb.case;
}
);
width = 416;
}
);
unicode = 293;
},
{
glyphname = i;
kernLeft = i;
kernRight = i;
lastChange = "2024-12-19 13:17:24 +0000";
layers = (
{
anchors = (
{
name = bottom;
pos = (97,0);
}
);
background = {
anchors = (
{
name = bottom;
pos = (97,0);
}
);
shapes = (
{
closed = 1;
nodes = (
(153,0,l),
(153,509,l),
(41,509,l),
(41,0,l)
);
},
{
closed = 1;
nodes = (
(153,584,l),
(153,690,l),
(41,690,l),
(41,584,l)
);
}
);
};
layerId = "E1689EA5-A91E-47D2-BCA7-04A2C9D26D65";
shapes = (
{
closed = 1;
nodes = (
(153,0,l),
(153,509,l),
(41,509,l),
(41,0,l)
);
},
{
closed = 1;
nodes = (
(153,584,l),
(153,690,l),
(41,690,l),
(41,584,l)
);
}
);
width = 193;
}
);
note = i;
unicode = 105;
},
{
glyphname = idotless;
kernLeft = i;
kernRight = i;
lastChange = "2024-12-19 13:17:24 +0000";
layers = (
{
anchors = (
{
name = bottom;
pos = (97,0);
},
{
name = ogonek;
pos = (153,0);
},
{
name = top;
pos = (97,509);
}
);
background = {
anchors = (
{
name = bottom;
pos = (97,0);
},
{
name = ogonek;
pos = (153,0);
},
{
name = top;
pos = (97,509);
}
);
shapes = (
{
closed = 1;
nodes = (
(153,0,l),
(153,509,l),
(41,509,l),
(41,0,l)
);
}
);
};
layerId = "E1689EA5-A91E-47D2-BCA7-04A2C9D26D65";
shapes = (
{
closed = 1;
nodes = (
(153,0,l),
(153,509,l),
(41,509,l),
(41,0,l)
);
}
);
width = 193;
}
);
unicode = 305;
},
{
glyphname = iacute;
kernLeft = i;
kernRight = i;
lastChange = "2024-12-19 13:17:38 +0000";
layers = (
{
background = {
anchors = (
{
name = bottom;
pos = (97,0);
},
{
name = ogonek;
pos = (153,0);
},
{
name = top;
pos = (138,751);
}
);
shapes = (
{
closed = 1;
nodes = (
(153,0,l),
(153,509,l),
(41,509,l),
(41,0,l)
);
},
{
closed = 1;
nodes = (
(222,731,l),
(144,761,l),
(63,590,l),
(128,572,l)
);
}
);
};
layerId = "E1689EA5-A91E-47D2-BCA7-04A2C9D26D65";
shapes = (
{
alignment = -1;
ref = idotless;
},
{
alignment = -1;
pos = (63,0);
ref = acutecomb;
}
);
width = 193;
}
);
unicode = 237;
},
{
glyphname = ibreve;
kernLeft = i;
kernRight = i;
lastChange = "2024-12-19 13:17:38 +0000";
layers = (
{
background = {
anchors = (
{
name = bottom;
pos = (97,0);
},
{
name = ogonek;
pos = (153,0);
},
{
name = top;
pos = (97,704);
}
);
shapes = (
{
closed = 1;
nodes = (
(153,0,l),
(153,509,l),
(41,509,l),
(41,0,l)
);
},
{
closed = 1;
nodes = (
(156,576,o),
(195,614,o),
(199,704,c),
(133,704,l),
(130,650,o),
(118,639,o),
(97,639,cs),
(76,639,o),
(64,650,o),
(62,704,c),
(-5,704,l),
(-1,614,o),
(38,576,o),
(97,576,cs)
);
}
);
};
layerId = "E1689EA5-A91E-47D2-BCA7-04A2C9D26D65";
shapes = (
{
alignment = -1;
ref = idotless;
},
{
alignment = -1;
pos = (-5,0);
ref = brevecomb;
}
);
width = 193;
}
);
unicode = 301;
},
{
glyphname = icircumflex;
kernLeft = i;
kernRight = i;
lastChange = "2024-12-19 13:17:38 +0000";
layers = (
{
background = {
anchors = (
{
name = bottom;
pos = (97,0);
},
{
name = ogonek;
pos = (153,0);
},
{
name = top;
pos = (98,711);
}
);
shapes = (
{
closed = 1;
nodes = (
(153,0,l),
(153,509,l),
(41,509,l),
(41,0,l)
);
},
{
closed = 1;
nodes = (
(54,590,l),
(127,697,l),
(69,697,l),
(142,590,l),
(219,590,l),
(133,711,l),
(62,711,l),
(-24,590,l)
);
}
);
};
layerId = "E1689EA5-A91E-47D2-BCA7-04A2C9D26D65";
shapes = (
{
alignment = -1;
ref = idotless;
},
{
alignment = -1;
pos = (-24,0);
ref = circumflexcomb.short;
}
);
width = 193;
}
);
unicode = 238;
},
{
glyphname = idieresis;
kernLeft = i;
kernRight = i;
lastChange = "2024-12-19 13:17:38 +0000";
layers = (
{
background = {
anchors = (
{
name = bottom;
pos = (97,0);
},
{
name = ogonek;
pos = (153,0);
},
{
name = top;
pos = (98,690);
}
);
shapes = (
{
closed = 1;
nodes = (
(153,0,l),
(153,509,l),
(41,509,l),
(41,0,l)
);
},
{
closed = 1;
nodes = (
(78,584,l),
(78,690,l),
(-9,690,l),
(-9,584,l)
);
},
{
closed = 1;
nodes = (
(204,584,l),
(204,690,l),
(117,690,l),
(117,584,l)
);
}
);
};
layerId = "E1689EA5-A91E-47D2-BCA7-04A2C9D26D65";
shapes = (
{
alignment = -1;
ref = idotless;
},
{
alignment = -1;
pos = (-9,0);
ref = dieresiscomb.short;
}
);
width = 193;
}
);
unicode = 239;
},
{
glyphname = igrave;
kernLeft = i;
kernRight = i;
lastChange = "2024-12-19 13:17:51 +0000";
layers = (
{
background = {
anchors = (
{
name = bottom;
pos = (97,0);
},
{
name = ogonek;
pos = (153,0);
},
{
name = top;
pos = (50,751);
}
);
shapes = (
{
closed = 1;
nodes = (
(153,0,l),
(153,509,l),
(41,509,l),
(41,0,l)
);
},
{
closed = 1;
nodes = (
(125,590,l),
(44,761,l),
(-34,731,l),
(60,572,l)
);
}
);
};
layerId = "E1689EA5-A91E-47D2-BCA7-04A2C9D26D65";
shapes = (
{
alignment = -1;
ref = idotless;
},
{
alignment = -1;
pos = (-34,0);
ref = gravecomb;
}
);
width = 193;
}
);
unicode = 236;
},
{
glyphname = imacron;
kernLeft = i;
kernRight = i;
lastChange = "2024-12-19 13:17:38 +0000";
layers = (
{
background = {
anchors = (
{
name = bottom;
pos = (97,0);
},
{
name = ogonek;
pos = (153,0);
},
{
name = top;
pos = (98,667);
}
);
shapes = (
{
closed = 1;
nodes = (
(153,0,l),
(153,509,l),
(41,509,l),
(41,0,l)
);
},
{
closed = 1;
nodes = (
(215,596,l),
(215,667,l),
(-20,667,l),
(-20,596,l)
);
}
);
};
layerId = "E1689EA5-A91E-47D2-BCA7-04A2C9D26D65";
shapes = (
{
alignment = -1;
ref = idotless;
},
{
alignment = -1;
pos = (-20,0);
ref = macroncomb.short;
}
);
width = 193;
}
);
unicode = 299;
},
{
glyphname = iogonek;
kernLeft = i;
kernRight = i;
lastChange = "2024-12-19 13:17:24 +0000";
layers = (
{
background = {
shapes = (
{
closed = 1;
nodes = (
(153,-98,l),
(127,-101,o),
(98,-90,o),
(98,-61,cs),
(98,-36,o),
(114,-14,o),
(132,0,c),
(153,0,l),
(153,509,l),
(41,509,l),
(41,0,l),
(66,0,l),
(42,-22,o),
(24,-51,o),
(24,-84,cs),
(24,-151,o),
(94,-170,o),
(153,-161,c)
);
},
{
closed = 1;
nodes = (
(153,584,l),
(153,690,l),
(41,690,l),
(41,584,l)
);
}
);
};
layerId = "E1689EA5-A91E-47D2-BCA7-04A2C9D26D65";
shapes = (
{
closed = 1;
nodes = (
(153,-98,l),
(127,-101,o),
(98,-90,o),
(98,-61,cs),
(98,-36,o),
(114,-14,o),
(132,0,c),
(153,0,l),
(153,509,l),
(41,509,l),
(41,0,l),
(66,0,l),
(42,-22,o),
(24,-51,o),
(24,-84,cs),
(24,-151,o),
(94,-170,o),
(153,-161,c)
);
},
{
closed = 1;
nodes = (
(153,584,l),
(153,690,l),
(41,690,l),
(41,584,l)
);
}
);
width = 193;
}
);
unicode = 303;
},
{
glyphname = itilde;
kernLeft = i;
kernRight = i;
lastChange = "2024-12-19 13:17:38 +0000";
layers = (
{
background = {
anchors = (
{
name = bottom;
pos = (97,0);
},
{
name = ogonek;
pos = (153,0);
},
{
name = top;
pos = (98,694);
}
);
shapes = (
{
closed = 1;
nodes = (
(153,0,l),
(153,509,l),
(41,509,l),
(41,0,l)
);
},
{
closed = 1;
nodes = (
(176,590,o),
(205,616,o),
(207,693,c),
(156,693,l),
(155,665,o),
(150,651,o),
(135,651,cs),
(116,651,o),
(90,693,o),
(49,693,cs),
(18,693,o),
(-10,667,o),
(-12,592,c),
(39,592,l),
(41,619,o),
(46,633,o),
(61,633,cs),
(79,633,o),
(106,590,o),
(146,590,cs)
);
}
);
};
layerId = "E1689EA5-A91E-47D2-BCA7-04A2C9D26D65";
shapes = (
{
alignment = -1;
ref = idotless;
},
{
alignment = -1;
pos = (-12,0);
ref = tildecomb.short;
}
);
width = 193;
}
);
unicode = 297;
},
{
glyphname = ij;
kernLeft = i;
kernRight = i;
lastChange = "2024-12-19 13:17:38 +0000";
layers = (
{
background = {
anchors = (
{
name = bottom;
pos = (97,0);
}
);
shapes = (
{
closed = 1;
nodes = (
(153,0,l),
(153,509,l),
(41,509,l),
(41,0,l)
);
},
{
closed = 1;
nodes = (
(153,584,l),
(153,690,l),
(41,690,l),
(41,584,l)
);
},
{
closed = 1;
nodes = (
(290,-177,o),
(346,-138,o),
(346,-34,cs),
(346,509,l),
(234,509,l),
(234,-36,ls),
(234,-79,o),
(211,-88,o),
(183,-88,cs),
(171,-88,o),
(160,-87,o),
(142,-83,c),
(142,-167,l),
(169,-173,o),
(189,-177,o),
(214,-177,cs)
);
},
{
closed = 1;
nodes = (
(346,584,l),
(346,690,l),
(234,690,l),
(234,584,l)
);
}
);
};
layerId = "E1689EA5-A91E-47D2-BCA7-04A2C9D26D65";
shapes = (
{
alignment = -1;
ref = i;
},
{
alignment = -1;
pos = (193,0);
ref = j;
}
);
width = 386;
}
);
metricLeft = i;
metricRight = j;
unicode = 307;
},
{
glyphname = j;
kernLeft = i;
kernRight = i;
lastChange = "2024-12-19 13:17:24 +0000";
layers = (
{
background = {
shapes = (
{
closed = 1;
nodes = (
(97,-177,o),
(153,-138,o),
(153,-34,cs),
(153,509,l),
(41,509,l),
(41,-36,ls),
(41,-79,o),
(18,-88,o),
(-10,-88,cs),
(-22,-88,o),
(-33,-87,o),
(-51,-83,c),
(-51,-167,l),
(-24,-173,o),
(-4,-177,o),
(21,-177,cs)
);
},
{
closed = 1;
nodes = (
(153,584,l),
(153,690,l),
(41,690,l),
(41,584,l)
);
}
);
};
layerId = "E1689EA5-A91E-47D2-BCA7-04A2C9D26D65";
shapes = (
{
closed = 1;
nodes = (
(97,-177,o),
(153,-138,o),
(153,-34,cs),
(153,509,l),
(41,509,l),
(41,-36,ls),
(41,-79,o),
(18,-88,o),
(-10,-88,cs),
(-22,-88,o),
(-33,-87,o),
(-51,-83,c),
(-51,-167,l),
(-24,-173,o),
(-4,-177,o),
(21,-177,cs)
);
},
{
closed = 1;
nodes = (
(153,584,l),
(153,690,l),
(41,690,l),
(41,584,l)
);
}
);
width = 193;
}
);
note = j;
unicode = 106;
},
{
glyphname = jdotless;
kernLeft = i;
kernRight = i;
lastChange = "2024-12-19 13:17:24 +0000";
layers = (
{
anchors = (
{
name = bottom;
pos = (95,-165);
},
{
name = top;
pos = (95,509);
}
);
background = {
anchors = (
{
name = bottom;
pos = (95,-165);
},
{
name = top;
pos = (95,509);
}
);
shapes = (
{
closed = 1;
nodes = (
(97,-177,o),
(153,-138,o),
(153,-34,cs),
(153,509,l),
(41,509,l),
(41,-36,ls),
(41,-79,o),
(18,-88,o),
(-10,-88,cs),
(-22,-88,o),
(-33,-87,o),
(-51,-83,c),
(-51,-167,l),
(-24,-173,o),
(-4,-177,o),
(21,-177,cs)
);
}
);
};
layerId = "E1689EA5-A91E-47D2-BCA7-04A2C9D26D65";
shapes = (
{
closed = 1;
nodes = (
(97,-177,o),
(153,-138,o),
(153,-34,cs),
(153,509,l),
(41,509,l),
(41,-36,ls),
(41,-79,o),
(18,-88,o),
(-10,-88,cs),
(-22,-88,o),
(-33,-87,o),
(-51,-83,c),
(-51,-167,l),
(-24,-173,o),
(-4,-177,o),
(21,-177,cs)
);
}
);
width = 193;
}
);
unicode = 567;
},
{
glyphname = jcircumflex;
kernLeft = i;
kernRight = i;
lastChange = "2024-12-19 13:17:38 +0000";
layers = (
{
background = {
anchors = (
{
name = bottom;
pos = (95,-165);
},
{
name = top;
pos = (96,711);
}
);
shapes = (
{
closed = 1;
nodes = (
(97,-177,o),
(153,-138,o),
(153,-34,cs),
(153,509,l),
(41,509,l),
(41,-36,ls),
(41,-79,o),
(18,-88,o),
(-10,-88,cs),
(-22,-88,o),
(-33,-87,o),
(-51,-83,c),
(-51,-167,l),
(-24,-173,o),
(-4,-177,o),
(21,-177,cs)
);
},
{
closed = 1;
nodes = (
(52,590,l),
(125,697,l),
(67,697,l),
(140,590,l),
(217,590,l),
(131,711,l),
(60,711,l),
(-26,590,l)
);
}
);
};
layerId = "E1689EA5-A91E-47D2-BCA7-04A2C9D26D65";
shapes = (
{
alignment = -1;
ref = jdotless;
},
{
alignment = -1;
pos = (-26,0);
ref = circumflexcomb.short;
}
);
width = 193;
}
);
unicode = 309;
},
{
glyphname = k;
kernLeft = h;
kernRight = k;
lastChange = "2024-12-19 13:17:24 +0000";
layers = (
{
anchors = (
{
name = bottom;
pos = (203,0);
},
{
name = top;
pos = (203,758);
}
);
background = {
anchors = (
{
name = bottom;
pos = (203,0);
},
{
name = top;
pos = (203,758);
}
);
shapes = (
{
closed = 1;
nodes = (
(153,0,l),
(153,710,l),
(41,710,l),
(41,0,l)
);
},
{
closed = 1;
nodes = (
(384,0,l),
(258,344,l),
(173,274,l),
(270,0,l)
);
},
{
closed = 1;
nodes = (
(211,262,l),
(236,261,l),
(380,509,l),
(272,509,l),
(135,269,l),
(134,126,l)
);
}
);
};
layerId = "E1689EA5-A91E-47D2-BCA7-04A2C9D26D65";
shapes = (
{
closed = 1;
nodes = (
(153,0,l),
(153,710,l),
(41,710,l),
(41,0,l)
);
},
{
closed = 1;
nodes = (
(384,0,l),
(258,344,l),
(173,274,l),
(270,0,l)
);
},
{
closed = 1;
nodes = (
(211,262,l),
(236,261,l),
(380,509,l),
(272,509,l),
(135,269,l),
(134,126,l)
);
}
);
width = 385;
}
);
note = k;
unicode = 107;
},
{
glyphname = kcommaaccent;
kernLeft = h;
kernRight = k;
lastChange = "2024-12-19 13:17:38 +0000";
layers = (
{
background = {
anchors = (
{
name = bottom;
pos = (203,-254);
},
{
name = top;
pos = (203,758);
}
);
shapes = (
{
closed = 1;
nodes = (
(153,0,l),
(153,710,l),
(41,710,l),
(41,0,l)
);
},
{
closed = 1;
nodes = (
(384,0,l),
(258,344,l),
(173,274,l),
(270,0,l)
);
},
{
closed = 1;
nodes = (
(211,262,l),
(236,261,l),
(380,509,l),
(272,509,l),
(135,269,l),
(134,126,l)
);
},
{
closed = 1;
nodes = (
(215,-254,l),
(257,-150,l),
(257,-72,l),
(149,-72,l),
(149,-167,l),
(193,-167,l),
(165,-254,l)
);
}
);
};
layerId = "E1689EA5-A91E-47D2-BCA7-04A2C9D26D65";
shapes = (
{
alignment = -1;
ref = k;
},
{
alignment = -1;
pos = (149,0);
ref = commaaccentcomb;
}
);
width = 385;
}
);
unicode = 311;
},
{
glyphname = kgreenlandic;
kernLeft = n;
kernRight = k;
lastChange = "2024-12-19 13:17:24 +0000";
layers = (
{
anchors = (
{
name = bottom;
pos = (194,0);
},
{
name = top;
pos = (194,509);
}
);
background = {
anchors = (
{
name = bottom;
pos = (194,0);
},
{
name = top;
pos = (194,509);
}
);
shapes = (
{
closed = 1;
nodes = (
(216,262,l),
(239,261,l),
(383,509,l),
(272,509,l),
(135,269,l),
(139,126,l)
);
},
{
closed = 1;
nodes = (
(153,0,l),
(153,509,l),
(41,509,l),
(41,0,l)
);
},
{
closed = 1;
nodes = (
(384,0,l),
(258,344,l),
(173,274,l),
(270,0,l)
);
}
);
};
layerId = "E1689EA5-A91E-47D2-BCA7-04A2C9D26D65";
shapes = (
{
closed = 1;
nodes = (
(216,262,l),
(239,261,l),
(383,509,l),
(272,509,l),
(135,269,l),
(139,126,l)
);
},
{
closed = 1;
nodes = (
(153,0,l),
(153,509,l),
(41,509,l),
(41,0,l)
);
},
{
closed = 1;
nodes = (
(384,0,l),
(258,344,l),
(173,274,l),
(270,0,l)
);
}
);
width = 386;
}
);
unicode = 312;
},
{
glyphname = l;
kernLeft = h;
kernRight = d;
lastChange = "2024-12-19 13:17:24 +0000";
layers = (
{
anchors = (
{
name = bottom;
pos = (97,0);
},
{
name = center;
pos = (97,379);
},
{
name = top;
pos = (107,710);
},
{
name = topright;
pos = (180,710);
}
);
background = {
anchors = (
{
name = bottom;
pos = (97,0);
},
{
name = center;
pos = (97,379);
},
{
name = top;
pos = (107,710);
},
{
name = topright;
pos = (180,710);
}
);
shapes = (
{
closed = 1;
nodes = (
(153,0,l),
(153,710,l),
(41,710,l),
(41,0,l)
);
}
);
};
layerId = "E1689EA5-A91E-47D2-BCA7-04A2C9D26D65";
shapes = (
{
closed = 1;
nodes = (
(153,0,l),
(153,710,l),
(41,710,l),
(41,0,l)
);
}
);
width = 193;
}
);
note = l;
unicode = 108;
},
{
glyphname = lacute;
kernLeft = h;
kernRight = d;
lastChange = "2024-12-19 13:17:38 +0000";
layers = (
{
background = {
anchors = (
{
name = bottom;
pos = (97,0);
},
{
name = center;
pos = (97,379);
},
{
name = top;
pos = (139,927);
},
{
name = topright;
pos = (180,710);
}
);
shapes = (
{
closed = 1;
nodes = (
(153,0,l),
(153,710,l),
(41,710,l),
(41,0,l)
);
},
{
closed = 1;
nodes = (
(214,897,l),
(136,927,l),
(64,781,l),
(129,763,l)
);
}
);
};
layerId = "E1689EA5-A91E-47D2-BCA7-04A2C9D26D65";
shapes = (
{
alignment = -1;
ref = l;
},
{
alignment = -1;
pos = (64,0);
ref = acutecomb.case;
}
);
width = 193;
}
);
unicode = 314;
},
{
glyphname = lcaron;
kernLeft = h;
kernRight = dcaron;
lastChange = "2024-12-19 13:17:38 +0000";
layers = (
{
background = {
anchors = (
{
name = bottom;
pos = (97,0);
},
{
name = center;
pos = (97,379);
},
{
name = top;
pos = (107,710);
},
{
name = topright;
pos = (180,710);
}
);
shapes = (
{
closed = 1;
nodes = (
(270,503,l),
(296,710,l),
(214,710,l),
(204,503,l)
);
},
{
closed = 1;
nodes = (
(153,0,l),
(153,710,l),
(41,710,l),
(41,0,l)
);
}
);
};
layerId = "E1689EA5-A91E-47D2-BCA7-04A2C9D26D65";
shapes = (
{
closed = 1;
nodes = (
(270,503,l),
(296,710,l),
(214,710,l),
(204,503,l)
);
},
{
alignment = -1;
ref = l;
userData = {
UFO.identifier = BF51190C;
};
}
);
width = 258.5;
}
);
unicode = 318;
},
{
glyphname = lcommaaccent;
kernLeft = h;
kernRight = d;
lastChange = "2024-12-19 13:17:38 +0000";
layers = (
{
background = {
anchors = (
{
name = bottom;
pos = (97,-254);
},
{
name = center;
pos = (97,379);
},
{
name = top;
pos = (107,710);
},
{
name = topright;
pos = (180,710);
}
);
shapes = (
{
closed = 1;
nodes = (
(153,0,l),
(153,710,l),
(41,710,l),
(41,0,l)
);
},
{
closed = 1;
nodes = (
(109,-254,l),
(151,-150,l),
(151,-72,l),
(43,-72,l),
(43,-167,l),
(87,-167,l),
(59,-254,l)
);
}
);
};
layerId = "E1689EA5-A91E-47D2-BCA7-04A2C9D26D65";
shapes = (
{
alignment = -1;
ref = l;
},
{
alignment = -1;
pos = (43,0);
ref = commaaccentcomb;
}
);
width = 193;
}
);
unicode = 316;
},
{
glyphname = ldot;
kernLeft = h;
lastChange = "2024-12-19 13:17:51 +0000";
layers = (
{
background = {
anchors = (
{
name = bottom;
pos = (97,0);
},
{
name = center;
pos = (97,379);
},
{
name = top;
pos = (107,710);
},
{
name = topright;
pos = (180,710);
}
);
shapes = (
{
closed = 1;
nodes = (
(153,0,l),
(153,710,l),
(41,710,l),
(41,0,l)
);
},
{
closed = 1;
nodes = (
(313,244,l),
(313,353,l),
(202,353,l),
(202,244,l)
);
}
);
};
layerId = "E1689EA5-A91E-47D2-BCA7-04A2C9D26D65";
shapes = (
{
alignment = -1;
ref = l;
userData = {
UFO.identifier = 220FB9D3;
};
},
{
alignment = -1;
pos = (167,0);
ref = periodcentered;
}
);
width = 320.5;
}
);
unicode = 320;
},
{
glyphname = lslash;
lastChange = "2024-12-19 13:17:38 +0000";
layers = (
{
background = {
anchors = (
{
name = bottom;
pos = (137,0);
},
{
name = center;
pos = (137,379);
},
{
name = top;
pos = (147,710);
},
{
name = topright;
pos = (220,710);
}
);
shapes = (
{
closed = 1;
nodes = (
(259,369,l),
(259,465,l),
(14,321,l),
(14,224,l)
);
},
{
closed = 1;
nodes = (
(193,0,l),
(193,710,l),
(81,710,l),
(81,0,l)
);
}
);
};
layerId = "E1689EA5-A91E-47D2-BCA7-04A2C9D26D65";
shapes = (
{
closed = 1;
nodes = (
(259,369,l),
(259,465,l),
(14,321,l),
(14,224,l)
);
},
{
alignment = -1;
pos = (40,0);
ref = l;
}
);
width = 272;
}
);
unicode = 322;
},
{
glyphname = m;
kernLeft = n;
kernRight = n;
lastChange = "2024-12-19 13:17:24 +0000";
layers = (
{
anchors = (
{
name = bottom;
pos = (333,0);
},
{
name = top;
pos = (333,498);
}
);
background = {
anchors = (
{
name = bottom;
pos = (333,0);
},
{
name = top;
pos = (333,498);
}
);
shapes = (
{
closed = 1;
nodes = (
(362,0,l),
(362,357,ls),
(362,414,o),
(384,430,o),
(413,430,cs),
(443,430,o),
(460,412,o),
(460,361,cs),
(460,0,l),
(572,0,l),
(572,378,ls),
(572,492,o),
(515,521,o),
(462,521,cs),
(411,521,o),
(369,494,o),
(345,434,c),
(355,434,l),
(343,494,o),
(303,521,o),
(257,521,cs),
(191,521,o),
(147,477,o),
(130,381,c),
(153,358,l),
(153,416,o),
(177,430,o),
(204,430,cs),
(231,430,o),
(250,413,o),
(250,361,cs),
(250,0,l)
);
},
{
closed = 1;
nodes = (
(153,0,l),
(153,413,l),
(152,419,l),
(152,509,l),
(41,509,l),
(41,0,l)
);
}
);
};
layerId = "E1689EA5-A91E-47D2-BCA7-04A2C9D26D65";
shapes = (
{
closed = 1;
nodes = (
(362,0,l),
(362,357,ls),
(362,414,o),
(384,430,o),
(413,430,cs),
(443,430,o),
(460,412,o),
(460,361,cs),
(460,0,l),
(572,0,l),
(572,378,ls),
(572,492,o),
(515,521,o),
(462,521,cs),
(411,521,o),
(369,494,o),
(345,434,c),
(355,434,l),
(343,494,o),
(303,521,o),
(257,521,cs),
(191,521,o),
(147,477,o),
(130,381,c),
(153,358,l),
(153,416,o),
(177,430,o),
(204,430,cs),
(231,430,o),
(250,413,o),
(250,361,cs),
(250,0,l)
);
},
{
closed = 1;
nodes = (
(153,0,l),
(153,413,l),
(152,419,l),
(152,509,l),
(41,509,l),
(41,0,l)
);
}
);
width = 610;
}
);
note = m;
unicode = 109;
},
{
glyphname = n;
kernLeft = n;
kernRight = n;
lastChange = "2024-12-19 13:17:24 +0000";
layers = (
{
anchors = (
{
name = bottom;
pos = (214,0);
},
{
name = top;
pos = (216,506);
}
);
background = {
anchors = (
{
name = bottom;
pos = (214,0);
},
{
name = top;
pos = (216,506);
}
);
shapes = (
{
closed = 1;
nodes = (
(377,0,l),
(377,376,ls),
(377,473,o),
(332,521,o),
(262,521,cs),
(204,521,o),
(150,481,o),
(134,391,c),
(153,355,l),
(153,414,o),
(181,432,o),
(213,432,cs),
(246,432,o),
(265,411,o),
(265,357,cs),
(265,0,l)
);
},
{
closed = 1;
nodes = (
(153,0,l),
(153,412,l),
(152,418,l),
(152,509,l),
(41,509,l),
(41,0,l)
);
}
);
};
layerId = "E1689EA5-A91E-47D2-BCA7-04A2C9D26D65";
shapes = (
{
closed = 1;
nodes = (
(377,0,l),
(377,376,ls),
(377,473,o),
(332,521,o),
(262,521,cs),
(204,521,o),
(150,481,o),
(134,391,c),
(153,355,l),
(153,414,o),
(181,432,o),
(213,432,cs),
(246,432,o),
(265,411,o),
(265,357,cs),
(265,0,l)
);
},
{
closed = 1;
nodes = (
(153,0,l),
(153,412,l),
(152,418,l),
(152,509,l),
(41,509,l),
(41,0,l)
);
}
);
width = 415.5;
}
);
note = n;
unicode = 110;
},
{
glyphname = nacute;
kernLeft = n;
kernRight = n;
lastChange = "2024-12-19 13:17:38 +0000";
layers = (
{
anchors = (
{
name = bottom;
pos = (214,0);
},
{
name = top;
pos = (216,506);
}
);
background = {
anchors = (
{
name = bottom;
pos = (214,0);
},
{
name = top;
pos = (216,506);
}
);
shapes = (
{
closed = 1;
nodes = (
(377,0,l),
(377,376,ls),
(377,473,o),
(332,521,o),
(262,521,cs),
(204,521,o),
(150,481,o),
(134,391,c),
(153,355,l),
(153,414,o),
(181,432,o),
(213,432,cs),
(246,432,o),
(265,411,o),
(265,357,cs),
(265,0,l)
);
},
{
closed = 1;
nodes = (
(153,0,l),
(153,412,l),
(152,418,l),
(152,509,l),
(41,509,l),
(41,0,l)
);
},
{
closed = 1;
nodes = (
(341,728,l),
(263,758,l),
(182,587,l),
(247,569,l)
);
}
);
};
layerId = "E1689EA5-A91E-47D2-BCA7-04A2C9D26D65";
shapes = (
{
alignment = -1;
ref = n;
},
{
alignment = -1;
pos = (182,-3);
ref = acutecomb;
}
);
width = 415.5;
}
);
unicode = 324;
},
{
glyphname = ncaron;
kernLeft = n;
kernRight = n;
lastChange = "2024-12-19 13:17:38 +0000";
layers = (
{
anchors = (
{
name = bottom;
pos = (214,0);
},
{
name = top;
pos = (216,506);
}
);
background = {
anchors = (
{
name = bottom;
pos = (214,0);
},
{
name = top;
pos = (216,506);
}
);
shapes = (
{
closed = 1;
nodes = (
(377,0,l),
(377,376,ls),
(377,473,o),
(332,521,o),
(262,521,cs),
(204,521,o),
(150,481,o),
(134,391,c),
(153,355,l),
(153,414,o),
(181,432,o),
(213,432,cs),
(246,432,o),
(265,411,o),
(265,357,cs),
(265,0,l)
);
},
{
closed = 1;
nodes = (
(153,0,l),
(153,412,l),
(152,418,l),
(152,509,l),
(41,509,l),
(41,0,l)
);
},
{
closed = 1;
nodes = (
(252,579,l),
(338,700,l),
(261,700,l),
(188,593,l),
(246,593,l),
(173,700,l),
(95,700,l),
(181,579,l)
);
}
);
};
layerId = "E1689EA5-A91E-47D2-BCA7-04A2C9D26D65";
shapes = (
{
alignment = -1;
ref = n;
},
{
alignment = -1;
pos = (95,-3);
ref = caroncomb;
}
);
width = 415.5;
}
);
unicode = 328;
},
{
glyphname = ncommaaccent;
kernLeft = n;
kernRight = n;
lastChange = "2024-12-19 13:17:38 +0000";
layers = (
{
background = {
anchors = (
{
name = bottom;
pos = (214,-254);
},
{
name = top;
pos = (216,506);
}
);
shapes = (
{
closed = 1;
nodes = (
(377,0,l),
(377,376,ls),
(377,473,o),
(332,521,o),
(262,521,cs),
(204,521,o),
(150,481,o),
(134,391,c),
(153,355,l),
(153,414,o),
(181,432,o),
(213,432,cs),
(246,432,o),
(265,411,o),
(265,357,cs),
(265,0,l)
);
},
{
closed = 1;
nodes = (
(153,0,l),
(153,412,l),
(152,418,l),
(152,509,l),
(41,509,l),
(41,0,l)
);
},
{
closed = 1;
nodes = (
(226,-254,l),
(268,-150,l),
(268,-72,l),
(160,-72,l),
(160,-167,l),
(204,-167,l),
(176,-254,l)
);
}
);
};
layerId = "E1689EA5-A91E-47D2-BCA7-04A2C9D26D65";
shapes = (
{
alignment = -1;
ref = n;
},
{
alignment = -1;
pos = (160,0);
ref = commaaccentcomb;
}
);
width = 415.5;
}
);
unicode = 326;
},
{
glyphname = ntilde;
kernLeft = n;
kernRight = n;
lastChange = "2024-12-19 13:17:38 +0000";
layers = (
{
anchors = (
{
name = bottom;
pos = (214,0);
},
{
name = top;
pos = (216,506);
}
);
background = {
anchors = (
{
name = bottom;
pos = (214,0);
},
{
name = top;
pos = (216,506);
}
);
shapes = (
{
closed = 1;
nodes = (
(377,0,l),
(377,376,ls),
(377,473,o),
(332,521,o),
(262,521,cs),
(204,521,o),
(150,481,o),
(134,391,c),
(153,355,l),
(153,414,o),
(181,432,o),
(213,432,cs),
(246,432,o),
(265,411,o),
(265,357,cs),
(265,0,l)
);
},
{
closed = 1;
nodes = (
(153,0,l),
(153,412,l),
(152,418,l),
(152,509,l),
(41,509,l),
(41,0,l)
);
},
{
closed = 1;
nodes = (
(302,592,o),
(333,618,o),
(335,695,c),
(278,695,l),
(277,672,o),
(271,658,o),
(255,658,cs),
(235,658,o),
(211,695,o),
(166,695,cs),
(130,695,o),
(99,669,o),
(97,594,c),
(154,594,l),
(156,617,o),
(161,630,o),
(178,630,cs),
(197,630,o),
(221,592,o),
(265,592,cs)
);
}
);
};
layerId = "E1689EA5-A91E-47D2-BCA7-04A2C9D26D65";
shapes = (
{
alignment = -1;
ref = n;
},
{
alignment = -1;
pos = (97,-3);
ref = tildecomb;
}
);
width = 415.5;
}
);
unicode = 241;
},
{
glyphname = eng;
kernLeft = n;
kernRight = n;
lastChange = "2024-12-19 13:17:24 +0000";
layers = (
{
anchors = (
{
name = bottom;
pos = (211,0);
},
{
name = top;
pos = (212,508);
}
);
background = {
anchors = (
{
name = bottom;
pos = (211,0);
},
{
name = top;
pos = (212,508);
}
);
shapes = (
{
closed = 1;
nodes = (
(322,-177,o),
(377,-138,o),
(377,-34,cs),
(377,376,ls),
(377,473,o),
(332,521,o),
(262,521,cs),
(204,521,o),
(150,481,o),
(134,391,c),
(153,355,l),
(153,414,o),
(181,432,o),
(213,432,cs),
(246,432,o),
(265,411,o),
(265,357,cs),
(265,-36,ls),
(265,-79,o),
(242,-88,o),
(214,-88,cs),
(203,-88,o),
(191,-87,o),
(173,-83,c),
(173,-167,l),
(200,-173,o),
(220,-177,o),
(245,-177,cs)
);
},
{
closed = 1;
nodes = (
(153,0,l),
(153,412,l),
(152,418,l),
(152,509,l),
(41,509,l),
(41,0,l)
);
}
);
};
layerId = "E1689EA5-A91E-47D2-BCA7-04A2C9D26D65";
shapes = (
{
closed = 1;
nodes = (
(322,-177,o),
(377,-138,o),
(377,-34,cs),
(377,376,ls),
(377,473,o),
(332,521,o),
(262,521,cs),
(204,521,o),
(150,481,o),
(134,391,c),
(153,355,l),
(153,414,o),
(181,432,o),
(213,432,cs),
(246,432,o),
(265,411,o),
(265,357,cs),
(265,-36,ls),
(265,-79,o),
(242,-88,o),
(214,-88,cs),
(203,-88,o),
(191,-87,o),
(173,-83,c),
(173,-167,l),
(200,-173,o),
(220,-177,o),
(245,-177,cs)
);
},
{
closed = 1;
nodes = (
(153,0,l),
(153,412,l),
(152,418,l),
(152,509,l),
(41,509,l),
(41,0,l)
);
}
);
width = 415.5;
}
);
unicode = 331;
},
{
glyphname = o;
kernLeft = o;
kernRight = o;
lastChange = "2024-12-19 13:17:24 +0000";
layers = (
{
anchors = (
{
name = bottom;
pos = (207,0);
},
{
name = center;
pos = (207,255);
},
{
name = ogonek;
pos = (369,10);
},
{
name = top;
pos = (207,509);
},
{
name = topright;
pos = (390,509);
}
);
background = {
anchors = (
{
name = bottom;
pos = (207,0);
},
{
name = center;
pos = (207,255);
},
{
name = ogonek;
pos = (369,10);
},
{
name = top;
pos = (207,509);
},
{
name = topright;
pos = (390,509);
}
);
shapes = (
{
closed = 1;
nodes = (
(314,-12,o),
(388,58,o),
(388,255,cs),
(388,450,o),
(314,521,o),
(207,521,cs),
(101,521,o),
(26,450,o),
(26,255,cs),
(26,58,o),
(101,-12,o),
(207,-12,cs)
);
},
{
closed = 1;
nodes = (
(164,75,o),
(140,107,o),
(140,202,cs),
(140,307,ls),
(140,402,o),
(164,434,o),
(207,434,cs),
(250,434,o),
(274,402,o),
(274,307,cs),
(274,202,ls),
(274,107,o),
(250,75,o),
(207,75,cs)
);
}
);
};
layerId = "E1689EA5-A91E-47D2-BCA7-04A2C9D26D65";
shapes = (
{
closed = 1;
nodes = (
(314,-12,o),
(388,58,o),
(388,255,cs),
(388,450,o),
(314,521,o),
(207,521,cs),
(101,521,o),
(26,450,o),
(26,255,cs),
(26,58,o),
(101,-12,o),
(207,-12,cs)
);
},
{
closed = 1;
nodes = (
(164,75,o),
(140,107,o),
(140,202,cs),
(140,307,ls),
(140,402,o),
(164,434,o),
(207,434,cs),
(250,434,o),
(274,402,o),
(274,307,cs),
(274,202,ls),
(274,107,o),
(250,75,o),
(207,75,cs)
);
}
);
width = 414;
}
);
note = o;
unicode = 111;
},
{
glyphname = oacute;
kernLeft = o;
kernRight = o;
lastChange = "2024-12-19 13:17:38 +0000";
layers = (
{
background = {
anchors = (
{
name = bottom;
pos = (207,0);
},
{
name = center;
pos = (207,255);
},
{
name = ogonek;
pos = (369,10);
},
{
name = top;
pos = (248,751);
},
{
name = topright;
pos = (390,509);
}
);
shapes = (
{
closed = 1;
nodes = (
(314,-12,o),
(388,58,o),
(388,255,cs),
(388,450,o),
(314,521,o),
(207,521,cs),
(101,521,o),
(26,450,o),
(26,255,cs),
(26,58,o),
(101,-12,o),
(207,-12,cs)
);
},
{
closed = 1;
nodes = (
(164,75,o),
(140,107,o),
(140,202,cs),
(140,307,ls),
(140,402,o),
(164,434,o),
(207,434,cs),
(250,434,o),
(274,402,o),
(274,307,cs),
(274,202,ls),
(274,107,o),
(250,75,o),
(207,75,cs)
);
},
{
closed = 1;
nodes = (
(332,731,l),
(254,761,l),
(173,590,l),
(238,572,l)
);
}
);
};
layerId = "E1689EA5-A91E-47D2-BCA7-04A2C9D26D65";
shapes = (
{
alignment = -1;
ref = o;
},
{
alignment = -1;
pos = (173,0);
ref = acutecomb;
}
);
width = 414;
}
);
unicode = 243;
},
